<?xml version="1.0" encoding="UTF-8"?>
<!DOCTYPE svg PUBLIC "-//W3C//DTD SVG 1.1//EN" "http://www.w3.org/Graphics/SVG/1.1/DTD/svg11.dtd">
<!-- Creator: CorelDRAW -->
<svg xmlns="http://www.w3.org/2000/svg" xml:space="preserve" width="4.7412mm" height="4.7412mm" version="1.1" style="shape-rendering:geometricPrecision; text-rendering:geometricPrecision; image-rendering:optimizeQuality; fill-rule:evenodd; clip-rule:evenodd"
viewBox="0 0 474.12 474.12"
 xmlns:xlink="http://www.w3.org/1999/xlink"
 xmlns:xodm="http://www.corel.com/coreldraw/odm/2003">
 <defs>
  <style type="text/css">
   <![CDATA[
    .fil58 {fill:none}
    .fil62 {fill:#AB711D}
    .fil0 {fill:#BD8333}
    .fil2 {fill:#C78C3A}
    .fil1 {fill:#C9892F}
    .fil60 {fill:#DEA555}
    .fil8 {fill:#E3A042}
    .fil9 {fill:#E3A043}
    .fil10 {fill:#E3A144}
    .fil11 {fill:#E3A145}
    .fil12 {fill:#E3A146}
    .fil13 {fill:#E3A147}
    .fil14 {fill:#E3A247}
    .fil15 {fill:#E3A248}
    .fil16 {fill:#E3A249}
    .fil17 {fill:#E3A34A}
    .fil18 {fill:#E3A34B}
    .fil19 {fill:#E3A34C}
    .fil20 {fill:#E3A44C}
    .fil21 {fill:#E3A44D}
    .fil22 {fill:#E3A44E}
    .fil23 {fill:#E3A54E}
    .fil24 {fill:#E3A54F}
    .fil25 {fill:#E3A64F}
    .fil26 {fill:#E4A64F}
    .fil27 {fill:#E4A650}
    .fil28 {fill:#E4A750}
    .fil5 {fill:#E4AB5C}
    .fil29 {fill:#E5A750}
    .fil30 {fill:#E6A850}
    .fil31 {fill:#E6A950}
    .fil4 {fill:#E6A953}
    .fil32 {fill:#E7A950}
    .fil33 {fill:#E7A951}
    .fil34 {fill:#E7AA51}
    .fil35 {fill:#E8AA51}
    .fil36 {fill:#E8AA52}
    .fil37 {fill:#E8AB52}
    .fil38 {fill:#E9AB53}
    .fil39 {fill:#E9AC53}
    .fil40 {fill:#E9AC54}
    .fil41 {fill:#EAAC54}
    .fil42 {fill:#EAAD55}
    .fil43 {fill:#EBAD55}
    .fil44 {fill:#EBAD56}
    .fil45 {fill:#EBAE56}
    .fil46 {fill:#ECAE57}
    .fil47 {fill:#ECAF57}
    .fil48 {fill:#ECAF58}
    .fil49 {fill:#EDAF58}
    .fil50 {fill:#EDB058}
    .fil51 {fill:#EDB059}
    .fil52 {fill:#EEB059}
    .fil53 {fill:#EEB15A}
    .fil54 {fill:#EEB15B}
    .fil61 {fill:#EEB565}
    .fil55 {fill:#EFB15B}
    .fil56 {fill:#EFB25B}
    .fil57 {fill:#EFB25C}
    .fil59 {fill:url(#id1)}
    .fil64 {fill:url(#id2)}
    .fil6 {fill:url(#id3)}
    .fil65 {fill:url(#id4)}
    .fil63 {fill:url(#id5)}
    .fil7 {fill:url(#id6)}
    .fil3 {fill:url(#id7)}
    .fil66 {fill:url(#id8)}
   ]]>
  </style>
     <clipPath id="id0">
      <path d="M266.14 -729.33c-77.29,5.91 -116.44,8.26 -154.56,11.83l12.33 580.84 -159.08 6.18 -7.39 -576.16 -701.47 62.27 36.39 2046.55c207.49,-17.51 397.22,0.57 640.34,-47.71 278.8,-41 535.28,-47.81 811.82,-73.81l795.53 -39.79 -34.44 -2086.8 -745.19 70.13 1.17 583.1 -138.63 3.35 -11.5 -573.47c-25.4,-2.82 -334.4,27 -345.32,33.49z"/>
     </clipPath>
  <linearGradient id="id1" gradientUnits="userSpaceOnUse" x1="85.21" y1="-1152.92" x2="642.65" y2="-1152.92">
   <stop offset="0" style="stop-opacity:1; stop-color:#DB9A40"/>
   <stop offset="1" style="stop-opacity:1; stop-color:#EDB05A"/>
  </linearGradient>
  <linearGradient id="id2" gradientUnits="userSpaceOnUse" x1="489.85" y1="1861.32" x2="433.2" y2="1281.98">
   <stop offset="0" style="stop-opacity:1; stop-color:#C68D3D"/>
   <stop offset="1" style="stop-opacity:1; stop-color:#F0B25B"/>
  </linearGradient>
  <linearGradient id="id3" gradientUnits="userSpaceOnUse" x1="-949.52" y1="1127.1" x2="-977.66" y2="-835.35">
   <stop offset="0" style="stop-opacity:1; stop-color:#D49133"/>
   <stop offset="1" style="stop-opacity:1; stop-color:#E8A343"/>
  </linearGradient>
  <linearGradient id="id4" gradientUnits="userSpaceOnUse" x1="-73.94" y1="-1054.33" x2="-10.29" y2="-128.62">
   <stop offset="0" style="stop-opacity:1; stop-color:#EBAE59"/>
   <stop offset="1" style="stop-opacity:1; stop-color:#DB9739"/>
  </linearGradient>
  <linearGradient id="id5" gradientUnits="userSpaceOnUse" x1="-924.84" y1="1636.5" x2="-601.82" y2="1960.92">
   <stop offset="0" style="stop-opacity:1; stop-color:#B67D2D"/>
   <stop offset="0.411765" style="stop-opacity:1; stop-color:#C78931"/>
   <stop offset="1" style="stop-opacity:1; stop-color:#D99536"/>
  </linearGradient>
  <linearGradient id="id6" gradientUnits="userSpaceOnUse" x1="-822.32" y1="1556.02" x2="-1065.08" y2="1154">
   <stop offset="0" style="stop-opacity:1; stop-color:#BF8B43"/>
   <stop offset="0.321569" style="stop-opacity:1; stop-color:#C78A35"/>
   <stop offset="1" style="stop-opacity:1; stop-color:#CF8927"/>
  </linearGradient>
  <linearGradient id="id7" gradientUnits="userSpaceOnUse" x1="1054.22" y1="-1010.59" x2="-880.27" y2="-874.97">
   <stop offset="0" style="stop-opacity:1; stop-color:#D68F2B"/>
   <stop offset="0.301961" style="stop-opacity:1; stop-color:#CD8A2B"/>
   <stop offset="0.490196" style="stop-opacity:1; stop-color:#C4842A"/>
   <stop offset="1" style="stop-opacity:1; stop-color:#C7801E"/>
  </linearGradient>
  <linearGradient id="id8" gradientUnits="userSpaceOnUse" x1="634.29" y1="-187.76" x2="736.12" y2="-2072.22">
   <stop offset="0" style="stop-opacity:1; stop-color:#DB9739"/>
   <stop offset="1" style="stop-opacity:1; stop-color:#FDCE88"/>
  </linearGradient>
 </defs>
 <g id="Слой_x0020_1">
  <metadata id="CorelCorpID_0Corel-Layer"/>
  <g id="_3026281562752">
   <path class="fil0" d="M400.11 -982.6l139.4 -24.6 -17.92 -379.97 -113.29 -103.84c-114.8,-8.2 -213.2,0 -336.2,24.6 -57.08,10.07 -105.79,18.64 -209.68,45.49 -26.06,19.63 -52.73,28.31 -110.13,93.91l141.43 6.41c0.01,-1.34 212.16,-3.91 260.38,-6.41 79.27,-10.93 138.68,-13.87 237.81,-32.8l8.2 377.21z"/>
   <path class="fil1" d="M400.11 -982.6l139.4 -24.6c-5.79,-122.86 -11.59,-245.71 -17.38,-368.56 -56.42,15.95 -64.62,-8.65 -130.22,15.95l8.2 377.21z"/>
   <path class="fil2" d="M-247.71 -1327.01l-8.2 393.61 147.6 -8.2 2.03 -379c-43.03,-6.41 -84.03,-6.41 -141.43,-6.41z"/>
   <path class="fil3" d="M755.29 -764.65l87.63 -12.94 8.2 -123 303.41 -114.81 39.51 -62.66 -439.4 29.36 0.65 284.05zm-651.89 -207.76l-2.84 274.97 517.29 -42.28 -4.79 -287.78 -509.66 55.09zm-129.7 14.41c-459.21,24.6 -541.22,41 -1026.53,71.27l627.3 79.22 -18.99 144.72 426.42 -16.4 -8.2 -278.81z"/>
   <path class="fil4" d="M1482.54 -818.6l23.07 -27.33 -311.6 -28.74 -348.06 -37.91c-17.73,9.94 -19.43,102.19 -11.23,151.39 22.38,4.86 173.48,-35.3 196.8,-24.6 189,13.01 226.64,-28.56 451.02,-32.81z"/>
   <path class="fil5" d="M-411.68 -814.62c-7.56,3.34 -369.59,107.82 -352.65,201.03 7.37,40.48 43.43,38.04 131.21,32.81 39.9,-2.39 223.02,13.7 229.6,-32.81 8.44,-59.56 -16.4,-90.2 -8.16,-201.03z"/>
   <path class="fil6" d="M-1062.58 1202.66l396.66 -86 -49.2 -1443.24 -28.91 -317.79 332.35 -170.25c-203.19,-20.01 -408.21,-64.9 -641.14,-72.11l-9.76 2089.39z"/>
   <path class="fil7" d="M-1132.13 1767.53c19.32,-3.62 374.19,-247.09 449.81,-331.06l-24.6 -344.41 -347.01 55.2c-24.02,167.52 -41.89,164.59 -78.2,620.27z"/>
   <g>
    <g style="clip-path:url(#id0)">
     <polygon class="fil8" points="-744.03,-845.93 -698.53,-845.93 -698.53,1402.75 -744.03,1402.75 "/>
     <polygon id="_1" class="fil8" points="-703.26,-845.93 -689.06,-845.93 -689.06,1402.75 -703.26,1402.75 "/>
     <polygon id="_2" class="fil8" points="-693.8,-845.93 -679.59,-845.93 -679.59,1402.75 -693.8,1402.75 "/>
     <polygon id="_3" class="fil8" points="-684.33,-845.93 -670.12,-845.93 -670.12,1402.75 -684.33,1402.75 "/>
     <polygon id="_4" class="fil8" points="-674.86,-845.93 -660.65,-845.93 -660.65,1402.75 -674.86,1402.75 "/>
     <polygon id="_5" class="fil8" points="-665.39,-845.93 -651.18,-845.93 -651.18,1402.75 -665.39,1402.75 "/>
     <polygon id="_6" class="fil8" points="-655.92,-845.93 -641.71,-845.93 -641.71,1402.75 -655.92,1402.75 "/>
     <polygon id="_7" class="fil8" points="-646.45,-845.93 -632.24,-845.93 -632.24,1402.75 -646.45,1402.75 "/>
     <polygon id="_8" class="fil8" points="-636.98,-845.93 -622.77,-845.93 -622.77,1402.75 -636.98,1402.75 "/>
     <polygon id="_9" class="fil8" points="-627.51,-845.93 -613.3,-845.93 -613.3,1402.75 -627.51,1402.75 "/>
     <polygon id="_10" class="fil8" points="-618.04,-845.93 -603.83,-845.93 -603.83,1402.75 -618.04,1402.75 "/>
     <polygon id="_11" class="fil8" points="-608.57,-845.93 -594.36,-845.93 -594.36,1402.75 -608.57,1402.75 "/>
     <polygon id="_12" class="fil9" points="-599.1,-845.93 -584.9,-845.93 -584.9,1402.75 -599.1,1402.75 "/>
     <polygon id="_13" class="fil9" points="-589.63,-845.93 -575.43,-845.93 -575.43,1402.75 -589.63,1402.75 "/>
     <polygon id="_14" class="fil9" points="-580.16,-845.93 -565.96,-845.93 -565.96,1402.75 -580.16,1402.75 "/>
     <polygon id="_15" class="fil9" points="-570.69,-845.93 -556.49,-845.93 -556.49,1402.75 -570.69,1402.75 "/>
     <polygon id="_16" class="fil9" points="-561.22,-845.93 -547.02,-845.93 -547.02,1402.75 -561.22,1402.75 "/>
     <polygon id="_17" class="fil9" points="-551.75,-845.93 -537.55,-845.93 -537.55,1402.75 -551.75,1402.75 "/>
     <polygon id="_18" class="fil9" points="-542.28,-845.93 -528.08,-845.93 -528.08,1402.75 -542.28,1402.75 "/>
     <polygon id="_19" class="fil9" points="-532.81,-845.93 -518.61,-845.93 -518.61,1402.75 -532.81,1402.75 "/>
     <polygon id="_20" class="fil9" points="-523.34,-845.93 -509.14,-845.93 -509.14,1402.75 -523.34,1402.75 "/>
     <polygon id="_21" class="fil10" points="-513.87,-845.93 -499.67,-845.93 -499.67,1402.75 -513.87,1402.75 "/>
     <polygon id="_22" class="fil10" points="-504.4,-845.93 -490.2,-845.93 -490.2,1402.75 -504.4,1402.75 "/>
     <polygon id="_23" class="fil10" points="-494.93,-845.93 -480.73,-845.93 -480.73,1402.75 -494.93,1402.75 "/>
     <polygon id="_24" class="fil10" points="-485.47,-845.93 -471.26,-845.93 -471.26,1402.75 -485.47,1402.75 "/>
     <polygon id="_25" class="fil10" points="-476,-845.93 -461.79,-845.93 -461.79,1402.75 -476,1402.75 "/>
     <polygon id="_26" class="fil10" points="-466.53,-845.93 -452.32,-845.93 -452.32,1402.75 -466.53,1402.75 "/>
     <polygon id="_27" class="fil11" points="-457.06,-845.93 -442.85,-845.93 -442.85,1402.75 -457.06,1402.75 "/>
     <polygon id="_28" class="fil11" points="-447.59,-845.93 -433.38,-845.93 -433.38,1402.75 -447.59,1402.75 "/>
     <polygon id="_29" class="fil11" points="-438.12,-845.93 -423.91,-845.93 -423.91,1402.75 -438.12,1402.75 "/>
     <polygon id="_30" class="fil11" points="-428.65,-845.93 -414.44,-845.93 -414.44,1402.75 -428.65,1402.75 "/>
     <polygon id="_31" class="fil11" points="-419.18,-845.93 -404.97,-845.93 -404.97,1402.75 -419.18,1402.75 "/>
     <polygon id="_32" class="fil11" points="-409.71,-845.93 -395.5,-845.93 -395.5,1402.75 -409.71,1402.75 "/>
     <polygon id="_33" class="fil12" points="-400.24,-845.93 -386.03,-845.93 -386.03,1402.75 -400.24,1402.75 "/>
     <polygon id="_34" class="fil12" points="-390.77,-845.93 -376.57,-845.93 -376.57,1402.75 -390.77,1402.75 "/>
     <polygon id="_35" class="fil12" points="-381.3,-845.93 -367.1,-845.93 -367.1,1402.75 -381.3,1402.75 "/>
     <polygon id="_36" class="fil12" points="-371.83,-845.93 -357.63,-845.93 -357.63,1402.75 -371.83,1402.75 "/>
     <polygon id="_37" class="fil12" points="-362.36,-845.93 -348.16,-845.93 -348.16,1402.75 -362.36,1402.75 "/>
     <polygon id="_38" class="fil13" points="-352.89,-845.93 -338.69,-845.93 -338.69,1402.75 -352.89,1402.75 "/>
     <polygon id="_39" class="fil14" points="-343.42,-845.93 -329.22,-845.93 -329.22,1402.75 -343.42,1402.75 "/>
     <polygon id="_40" class="fil14" points="-333.95,-845.93 -319.75,-845.93 -319.75,1402.75 -333.95,1402.75 "/>
     <polygon id="_41" class="fil14" points="-324.48,-845.93 -310.28,-845.93 -310.28,1402.75 -324.48,1402.75 "/>
     <polygon id="_42" class="fil14" points="-315.01,-845.93 -300.81,-845.93 -300.81,1402.75 -315.01,1402.75 "/>
     <polygon id="_43" class="fil15" points="-305.54,-845.93 -291.34,-845.93 -291.34,1402.75 -305.54,1402.75 "/>
     <polygon id="_44" class="fil15" points="-296.07,-845.93 -281.87,-845.93 -281.87,1402.75 -296.07,1402.75 "/>
     <polygon id="_45" class="fil15" points="-286.6,-845.93 -272.4,-845.93 -272.4,1402.75 -286.6,1402.75 "/>
     <polygon id="_46" class="fil15" points="-277.14,-845.93 -262.93,-845.93 -262.93,1402.75 -277.14,1402.75 "/>
     <polygon id="_47" class="fil15" points="-267.67,-845.93 -253.46,-845.93 -253.46,1402.75 -267.67,1402.75 "/>
     <polygon id="_48" class="fil16" points="-258.2,-845.93 -243.99,-845.93 -243.99,1402.75 -258.2,1402.75 "/>
     <polygon id="_49" class="fil16" points="-248.73,-845.93 -234.52,-845.93 -234.52,1402.75 -248.73,1402.75 "/>
     <polygon id="_50" class="fil16" points="-239.26,-845.93 -225.05,-845.93 -225.05,1402.75 -239.26,1402.75 "/>
     <polygon id="_51" class="fil16" points="-229.79,-845.93 -215.58,-845.93 -215.58,1402.75 -229.79,1402.75 "/>
     <polygon id="_52" class="fil16" points="-220.32,-845.93 -206.11,-845.93 -206.11,1402.75 -220.32,1402.75 "/>
     <polygon id="_53" class="fil17" points="-210.85,-845.93 -196.64,-845.93 -196.64,1402.75 -210.85,1402.75 "/>
     <polygon id="_54" class="fil17" points="-201.38,-845.93 -187.17,-845.93 -187.17,1402.75 -201.38,1402.75 "/>
     <polygon id="_55" class="fil17" points="-191.91,-845.93 -177.7,-845.93 -177.7,1402.75 -191.91,1402.75 "/>
     <polygon id="_56" class="fil17" points="-182.44,-845.93 -168.24,-845.93 -168.24,1402.75 -182.44,1402.75 "/>
     <polygon id="_57" class="fil17" points="-172.97,-845.93 -158.77,-845.93 -158.77,1402.75 -172.97,1402.75 "/>
     <polygon id="_58" class="fil18" points="-163.5,-845.93 -149.3,-845.93 -149.3,1402.75 -163.5,1402.75 "/>
     <polygon id="_59" class="fil18" points="-154.03,-845.93 -139.83,-845.93 -139.83,1402.75 -154.03,1402.75 "/>
     <polygon id="_60" class="fil18" points="-144.56,-845.93 -130.36,-845.93 -130.36,1402.75 -144.56,1402.75 "/>
     <polygon id="_61" class="fil18" points="-135.09,-845.93 -120.89,-845.93 -120.89,1402.75 -135.09,1402.75 "/>
     <polygon id="_62" class="fil18" points="-125.62,-845.93 -111.42,-845.93 -111.42,1402.75 -125.62,1402.75 "/>
     <polygon id="_63" class="fil19" points="-116.15,-845.93 -101.95,-845.93 -101.95,1402.75 -116.15,1402.75 "/>
     <polygon id="_64" class="fil19" points="-106.68,-845.93 -92.48,-845.93 -92.48,1402.75 -106.68,1402.75 "/>
     <polygon id="_65" class="fil19" points="-97.21,-845.93 -83.01,-845.93 -83.01,1402.75 -97.21,1402.75 "/>
     <polygon id="_66" class="fil19" points="-87.74,-845.93 -73.54,-845.93 -73.54,1402.75 -87.74,1402.75 "/>
     <polygon id="_67" class="fil20" points="-78.27,-845.93 -64.07,-845.93 -64.07,1402.75 -78.27,1402.75 "/>
     <polygon id="_68" class="fil20" points="-68.8,-845.93 -54.6,-845.93 -54.6,1402.75 -68.8,1402.75 "/>
     <polygon id="_69" class="fil21" points="-59.34,-845.93 -45.13,-845.93 -45.13,1402.75 -59.34,1402.75 "/>
     <polygon id="_70" class="fil21" points="-49.87,-845.93 -35.66,-845.93 -35.66,1402.75 -49.87,1402.75 "/>
     <polygon id="_71" class="fil21" points="-40.4,-845.93 -26.19,-845.93 -26.19,1402.75 -40.4,1402.75 "/>
     <polygon id="_72" class="fil21" points="-30.93,-845.93 -16.72,-845.93 -16.72,1402.75 -30.93,1402.75 "/>
     <polygon id="_73" class="fil21" points="-21.46,-845.93 -7.25,-845.93 -7.25,1402.75 -21.46,1402.75 "/>
     <polygon id="_74" class="fil21" points="-11.99,-845.93 2.22,-845.93 2.22,1402.75 -11.99,1402.75 "/>
     <polygon id="_75" class="fil21" points="-2.52,-845.93 11.69,-845.93 11.69,1402.75 -2.52,1402.75 "/>
     <polygon id="_76" class="fil22" points="6.95,-845.93 21.16,-845.93 21.16,1402.75 6.95,1402.75 "/>
     <polygon id="_77" class="fil22" points="16.42,-845.93 30.63,-845.93 30.63,1402.75 16.42,1402.75 "/>
     <polygon id="_78" class="fil22" points="25.89,-845.93 40.09,-845.93 40.09,1402.75 25.89,1402.75 "/>
     <polygon id="_79" class="fil22" points="35.36,-845.93 49.56,-845.93 49.56,1402.75 35.36,1402.75 "/>
     <polygon id="_80" class="fil22" points="44.83,-845.93 59.03,-845.93 59.03,1402.75 44.83,1402.75 "/>
     <polygon id="_81" class="fil22" points="54.3,-845.93 68.5,-845.93 68.5,1402.75 54.3,1402.75 "/>
     <polygon id="_82" class="fil23" points="63.77,-845.93 77.97,-845.93 77.97,1402.75 63.77,1402.75 "/>
     <polygon id="_83" class="fil23" points="73.24,-845.93 87.44,-845.93 87.44,1402.75 73.24,1402.75 "/>
     <polygon id="_84" class="fil24" points="82.71,-845.93 96.91,-845.93 96.91,1402.75 82.71,1402.75 "/>
     <polygon id="_85" class="fil24" points="92.18,-845.93 106.38,-845.93 106.38,1402.75 92.18,1402.75 "/>
     <polygon id="_86" class="fil24" points="101.65,-845.93 115.85,-845.93 115.85,1402.75 101.65,1402.75 "/>
     <polygon id="_87" class="fil24" points="111.12,-845.93 125.32,-845.93 125.32,1402.75 111.12,1402.75 "/>
     <polygon id="_88" class="fil24" points="120.59,-845.93 134.79,-845.93 134.79,1402.75 120.59,1402.75 "/>
     <polygon id="_89" class="fil24" points="130.06,-845.93 144.26,-845.93 144.26,1402.75 130.06,1402.75 "/>
     <polygon id="_90" class="fil24" points="139.53,-845.93 153.73,-845.93 153.73,1402.75 139.53,1402.75 "/>
     <polygon id="_91" class="fil24" points="148.99,-845.93 163.2,-845.93 163.2,1402.75 148.99,1402.75 "/>
     <polygon id="_92" class="fil24" points="158.46,-845.93 172.67,-845.93 172.67,1402.75 158.46,1402.75 "/>
     <polygon id="_93" class="fil24" points="167.93,-845.93 182.14,-845.93 182.14,1402.75 167.93,1402.75 "/>
     <polygon id="_94" class="fil24" points="177.4,-845.93 191.61,-845.93 191.61,1402.75 177.4,1402.75 "/>
     <polygon id="_95" class="fil24" points="186.87,-845.93 201.08,-845.93 201.08,1402.75 186.87,1402.75 "/>
     <polygon id="_96" class="fil24" points="196.34,-845.93 210.55,-845.93 210.55,1402.75 196.34,1402.75 "/>
     <polygon id="_97" class="fil24" points="205.81,-845.93 220.02,-845.93 220.02,1402.75 205.81,1402.75 "/>
     <polygon id="_98" class="fil24" points="215.28,-845.93 229.49,-845.93 229.49,1402.75 215.28,1402.75 "/>
     <polygon id="_99" class="fil24" points="224.75,-845.93 238.96,-845.93 238.96,1402.75 224.75,1402.75 "/>
     <polygon id="_100" class="fil24" points="234.22,-845.93 248.42,-845.93 248.42,1402.75 234.22,1402.75 "/>
     <polygon id="_101" class="fil24" points="243.69,-845.93 257.89,-845.93 257.89,1402.75 243.69,1402.75 "/>
     <polygon id="_102" class="fil24" points="253.16,-845.93 267.36,-845.93 267.36,1402.75 253.16,1402.75 "/>
     <polygon id="_103" class="fil24" points="262.63,-845.93 276.83,-845.93 276.83,1402.75 262.63,1402.75 "/>
     <polygon id="_104" class="fil25" points="272.1,-845.93 286.3,-845.93 286.3,1402.75 272.1,1402.75 "/>
     <polygon id="_105" class="fil25" points="281.57,-845.93 295.77,-845.93 295.77,1402.75 281.57,1402.75 "/>
     <polygon id="_106" class="fil25" points="291.04,-845.93 305.24,-845.93 305.24,1402.75 291.04,1402.75 "/>
     <polygon id="_107" class="fil25" points="300.51,-845.93 314.71,-845.93 314.71,1402.75 300.51,1402.75 "/>
     <polygon id="_108" class="fil25" points="309.98,-845.93 324.18,-845.93 324.18,1402.75 309.98,1402.75 "/>
     <polygon id="_109" class="fil25" points="319.45,-845.93 333.65,-845.93 333.65,1402.75 319.45,1402.75 "/>
     <polygon id="_110" class="fil25" points="328.92,-845.93 343.12,-845.93 343.12,1402.75 328.92,1402.75 "/>
     <polygon id="_111" class="fil25" points="338.39,-845.93 352.59,-845.93 352.59,1402.75 338.39,1402.75 "/>
     <polygon id="_112" class="fil25" points="347.86,-845.93 362.06,-845.93 362.06,1402.75 347.86,1402.75 "/>
     <polygon id="_113" class="fil25" points="357.32,-845.93 371.53,-845.93 371.53,1402.75 357.32,1402.75 "/>
     <polygon id="_114" class="fil25" points="366.79,-845.93 381,-845.93 381,1402.75 366.79,1402.75 "/>
     <polygon id="_115" class="fil25" points="376.26,-845.93 390.47,-845.93 390.47,1402.75 376.26,1402.75 "/>
     <polygon id="_116" class="fil25" points="385.73,-845.93 399.94,-845.93 399.94,1402.75 385.73,1402.75 "/>
     <polygon id="_117" class="fil25" points="395.2,-845.93 409.41,-845.93 409.41,1402.75 395.2,1402.75 "/>
     <polygon id="_118" class="fil25" points="404.67,-845.93 418.88,-845.93 418.88,1402.75 404.67,1402.75 "/>
     <polygon id="_119" class="fil25" points="414.14,-845.93 428.35,-845.93 428.35,1402.75 414.14,1402.75 "/>
     <polygon id="_120" class="fil25" points="423.61,-845.93 437.82,-845.93 437.82,1402.75 423.61,1402.75 "/>
     <polygon id="_121" class="fil25" points="433.08,-845.93 447.29,-845.93 447.29,1402.75 433.08,1402.75 "/>
     <polygon id="_122" class="fil25" points="442.55,-845.93 456.76,-845.93 456.76,1402.75 442.55,1402.75 "/>
     <polygon id="_123" class="fil25" points="452.02,-845.93 466.22,-845.93 466.22,1402.75 452.02,1402.75 "/>
     <polygon id="_124" class="fil25" points="461.49,-845.93 475.69,-845.93 475.69,1402.75 461.49,1402.75 "/>
     <polygon id="_125" class="fil26" points="470.96,-845.93 485.16,-845.93 485.16,1402.75 470.96,1402.75 "/>
     <polygon id="_126" class="fil26" points="480.43,-845.93 494.63,-845.93 494.63,1402.75 480.43,1402.75 "/>
     <polygon id="_127" class="fil26" points="489.9,-845.93 504.1,-845.93 504.1,1402.75 489.9,1402.75 "/>
     <polygon id="_128" class="fil26" points="499.37,-845.93 513.57,-845.93 513.57,1402.75 499.37,1402.75 "/>
     <polygon id="_129" class="fil26" points="508.84,-845.93 523.04,-845.93 523.04,1402.75 508.84,1402.75 "/>
     <polygon id="_130" class="fil26" points="518.31,-845.93 532.51,-845.93 532.51,1402.75 518.31,1402.75 "/>
     <polygon id="_131" class="fil27" points="527.78,-845.93 541.98,-845.93 541.98,1402.75 527.78,1402.75 "/>
     <polygon id="_132" class="fil27" points="537.25,-845.93 551.45,-845.93 551.45,1402.75 537.25,1402.75 "/>
     <polygon id="_133" class="fil27" points="546.72,-845.93 560.92,-845.93 560.92,1402.75 546.72,1402.75 "/>
     <polygon id="_134" class="fil27" points="556.19,-845.93 570.39,-845.93 570.39,1402.75 556.19,1402.75 "/>
     <polygon id="_135" class="fil27" points="565.65,-845.93 579.86,-845.93 579.86,1402.75 565.65,1402.75 "/>
     <polygon id="_136" class="fil27" points="575.12,-845.93 589.33,-845.93 589.33,1402.75 575.12,1402.75 "/>
     <polygon id="_137" class="fil27" points="584.59,-845.93 598.8,-845.93 598.8,1402.75 584.59,1402.75 "/>
     <polygon id="_138" class="fil27" points="594.06,-845.93 608.27,-845.93 608.27,1402.75 594.06,1402.75 "/>
     <polygon id="_139" class="fil27" points="603.53,-845.93 617.74,-845.93 617.74,1402.75 603.53,1402.75 "/>
     <polygon id="_140" class="fil27" points="613,-845.93 627.21,-845.93 627.21,1402.75 613,1402.75 "/>
     <polygon id="_141" class="fil27" points="622.47,-845.93 636.68,-845.93 636.68,1402.75 622.47,1402.75 "/>
     <polygon id="_142" class="fil27" points="631.94,-845.93 646.15,-845.93 646.15,1402.75 631.94,1402.75 "/>
     <polygon id="_143" class="fil27" points="641.41,-845.93 655.62,-845.93 655.62,1402.75 641.41,1402.75 "/>
     <polygon id="_144" class="fil28" points="650.88,-845.93 665.09,-845.93 665.09,1402.75 650.88,1402.75 "/>
     <polygon id="_145" class="fil28" points="660.35,-845.93 674.55,-845.93 674.55,1402.75 660.35,1402.75 "/>
     <polygon id="_146" class="fil28" points="669.82,-845.93 684.02,-845.93 684.02,1402.75 669.82,1402.75 "/>
     <polygon id="_147" class="fil28" points="679.29,-845.93 693.49,-845.93 693.49,1402.75 679.29,1402.75 "/>
     <polygon id="_148" class="fil29" points="688.76,-845.93 702.96,-845.93 702.96,1402.75 688.76,1402.75 "/>
     <polygon id="_149" class="fil29" points="698.23,-845.93 712.43,-845.93 712.43,1402.75 698.23,1402.75 "/>
     <polygon id="_150" class="fil29" points="707.7,-845.93 721.9,-845.93 721.9,1402.75 707.7,1402.75 "/>
     <polygon id="_151" class="fil29" points="717.17,-845.93 731.37,-845.93 731.37,1402.75 717.17,1402.75 "/>
     <polygon id="_152" class="fil29" points="726.64,-845.93 740.84,-845.93 740.84,1402.75 726.64,1402.75 "/>
     <polygon id="_153" class="fil29" points="736.11,-845.93 750.31,-845.93 750.31,1402.75 736.11,1402.75 "/>
     <polygon id="_154" class="fil29" points="745.58,-845.93 759.78,-845.93 759.78,1402.75 745.58,1402.75 "/>
     <polygon id="_155" class="fil29" points="755.05,-845.93 769.25,-845.93 769.25,1402.75 755.05,1402.75 "/>
     <polygon id="_156" class="fil29" points="764.52,-845.93 778.72,-845.93 778.72,1402.75 764.52,1402.75 "/>
     <polygon id="_157" class="fil29" points="773.98,-845.93 788.19,-845.93 788.19,1402.75 773.98,1402.75 "/>
     <polygon id="_158" class="fil29" points="783.45,-845.93 797.66,-845.93 797.66,1402.75 783.45,1402.75 "/>
     <polygon id="_159" class="fil29" points="792.92,-845.93 807.13,-845.93 807.13,1402.75 792.92,1402.75 "/>
     <polygon id="_160" class="fil29" points="802.39,-845.93 816.6,-845.93 816.6,1402.75 802.39,1402.75 "/>
     <polygon id="_161" class="fil29" points="811.86,-845.93 826.07,-845.93 826.07,1402.75 811.86,1402.75 "/>
     <polygon id="_162" class="fil29" points="821.33,-845.93 835.54,-845.93 835.54,1402.75 821.33,1402.75 "/>
     <polygon id="_163" class="fil30" points="830.8,-845.93 845.01,-845.93 845.01,1402.75 830.8,1402.75 "/>
     <polygon id="_164" class="fil30" points="840.27,-845.93 854.48,-845.93 854.48,1402.75 840.27,1402.75 "/>
     <polygon id="_165" class="fil30" points="849.74,-845.93 863.95,-845.93 863.95,1402.75 849.74,1402.75 "/>
     <polygon id="_166" class="fil30" points="859.21,-845.93 873.42,-845.93 873.42,1402.75 859.21,1402.75 "/>
     <polygon id="_167" class="fil30" points="868.68,-845.93 882.88,-845.93 882.88,1402.75 868.68,1402.75 "/>
     <polygon id="_168" class="fil30" points="878.15,-845.93 892.35,-845.93 892.35,1402.75 878.15,1402.75 "/>
     <polygon id="_169" class="fil30" points="887.62,-845.93 901.82,-845.93 901.82,1402.75 887.62,1402.75 "/>
     <polygon id="_170" class="fil30" points="897.09,-845.93 911.29,-845.93 911.29,1402.75 897.09,1402.75 "/>
     <polygon id="_171" class="fil30" points="906.56,-845.93 920.76,-845.93 920.76,1402.75 906.56,1402.75 "/>
     <polygon id="_172" class="fil30" points="916.03,-845.93 930.23,-845.93 930.23,1402.75 916.03,1402.75 "/>
     <polygon id="_173" class="fil30" points="925.5,-845.93 939.7,-845.93 939.7,1402.75 925.5,1402.75 "/>
     <polygon id="_174" class="fil31" points="934.97,-845.93 949.17,-845.93 949.17,1402.75 934.97,1402.75 "/>
     <polygon id="_175" class="fil32" points="944.44,-845.93 958.64,-845.93 958.64,1402.75 944.44,1402.75 "/>
     <polygon id="_176" class="fil33" points="953.91,-845.93 968.11,-845.93 968.11,1402.75 953.91,1402.75 "/>
     <polygon id="_177" class="fil33" points="963.38,-845.93 977.58,-845.93 977.58,1402.75 963.38,1402.75 "/>
     <polygon id="_178" class="fil33" points="972.85,-845.93 987.05,-845.93 987.05,1402.75 972.85,1402.75 "/>
     <polygon id="_179" class="fil33" points="982.31,-845.93 996.52,-845.93 996.52,1402.75 982.31,1402.75 "/>
     <polygon id="_180" class="fil33" points="991.78,-845.93 1005.99,-845.93 1005.99,1402.75 991.78,1402.75 "/>
     <polygon id="_181" class="fil33" points="1001.25,-845.93 1015.46,-845.93 1015.46,1402.75 1001.25,1402.75 "/>
     <polygon id="_182" class="fil34" points="1010.72,-845.93 1024.93,-845.93 1024.93,1402.75 1010.72,1402.75 "/>
     <polygon id="_183" class="fil35" points="1020.19,-845.93 1034.4,-845.93 1034.4,1402.75 1020.19,1402.75 "/>
     <polygon id="_184" class="fil35" points="1029.66,-845.93 1043.87,-845.93 1043.87,1402.75 1029.66,1402.75 "/>
     <polygon id="_185" class="fil36" points="1039.13,-845.93 1053.34,-845.93 1053.34,1402.75 1039.13,1402.75 "/>
     <polygon id="_186" class="fil36" points="1048.6,-845.93 1062.81,-845.93 1062.81,1402.75 1048.6,1402.75 "/>
     <polygon id="_187" class="fil36" points="1058.07,-845.93 1072.28,-845.93 1072.28,1402.75 1058.07,1402.75 "/>
     <polygon id="_188" class="fil36" points="1067.54,-845.93 1081.75,-845.93 1081.75,1402.75 1067.54,1402.75 "/>
     <polygon id="_189" class="fil37" points="1077.01,-845.93 1091.21,-845.93 1091.21,1402.75 1077.01,1402.75 "/>
     <polygon id="_190" class="fil37" points="1086.48,-845.93 1100.68,-845.93 1100.68,1402.75 1086.48,1402.75 "/>
     <polygon id="_191" class="fil38" points="1095.95,-845.93 1110.15,-845.93 1110.15,1402.75 1095.95,1402.75 "/>
     <polygon id="_192" class="fil38" points="1105.42,-845.93 1119.62,-845.93 1119.62,1402.75 1105.42,1402.75 "/>
     <polygon id="_193" class="fil38" points="1114.89,-845.93 1129.09,-845.93 1129.09,1402.75 1114.89,1402.75 "/>
     <polygon id="_194" class="fil38" points="1124.36,-845.93 1138.56,-845.93 1138.56,1402.75 1124.36,1402.75 "/>
     <polygon id="_195" class="fil39" points="1133.83,-845.93 1148.03,-845.93 1148.03,1402.75 1133.83,1402.75 "/>
     <polygon id="_196" class="fil40" points="1143.3,-845.93 1157.5,-845.93 1157.5,1402.75 1143.3,1402.75 "/>
     <polygon id="_197" class="fil41" points="1152.77,-845.93 1166.97,-845.93 1166.97,1402.75 1152.77,1402.75 "/>
     <polygon id="_198" class="fil41" points="1162.24,-845.93 1176.44,-845.93 1176.44,1402.75 1162.24,1402.75 "/>
     <polygon id="_199" class="fil41" points="1171.71,-845.93 1185.91,-845.93 1185.91,1402.75 1171.71,1402.75 "/>
     <polygon id="_200" class="fil41" points="1181.18,-845.93 1195.38,-845.93 1195.38,1402.75 1181.18,1402.75 "/>
     <polygon id="_201" class="fil42" points="1190.65,-845.93 1204.85,-845.93 1204.85,1402.75 1190.65,1402.75 "/>
     <polygon id="_202" class="fil42" points="1200.11,-845.93 1214.32,-845.93 1214.32,1402.75 1200.11,1402.75 "/>
     <polygon id="_203" class="fil42" points="1209.58,-845.93 1223.79,-845.93 1223.79,1402.75 1209.58,1402.75 "/>
     <polygon id="_204" class="fil43" points="1219.05,-845.93 1233.26,-845.93 1233.26,1402.75 1219.05,1402.75 "/>
     <polygon id="_205" class="fil43" points="1228.52,-845.93 1242.73,-845.93 1242.73,1402.75 1228.52,1402.75 "/>
     <polygon id="_206" class="fil44" points="1237.99,-845.93 1252.2,-845.93 1252.2,1402.75 1237.99,1402.75 "/>
     <polygon id="_207" class="fil45" points="1247.46,-845.93 1261.67,-845.93 1261.67,1402.75 1247.46,1402.75 "/>
     <polygon id="_208" class="fil45" points="1256.93,-845.93 1271.14,-845.93 1271.14,1402.75 1256.93,1402.75 "/>
     <polygon id="_209" class="fil45" points="1266.4,-845.93 1280.61,-845.93 1280.61,1402.75 1266.4,1402.75 "/>
     <polygon id="_210" class="fil46" points="1275.87,-845.93 1290.08,-845.93 1290.08,1402.75 1275.87,1402.75 "/>
     <polygon id="_211" class="fil46" points="1285.34,-845.93 1299.54,-845.93 1299.54,1402.75 1285.34,1402.75 "/>
     <polygon id="_212" class="fil46" points="1294.81,-845.93 1309.01,-845.93 1309.01,1402.75 1294.81,1402.75 "/>
     <polygon id="_213" class="fil47" points="1304.28,-845.93 1318.48,-845.93 1318.48,1402.75 1304.28,1402.75 "/>
     <polygon id="_214" class="fil47" points="1313.75,-845.93 1327.95,-845.93 1327.95,1402.75 1313.75,1402.75 "/>
     <polygon id="_215" class="fil48" points="1323.22,-845.93 1337.42,-845.93 1337.42,1402.75 1323.22,1402.75 "/>
     <polygon id="_216" class="fil48" points="1332.69,-845.93 1346.89,-845.93 1346.89,1402.75 1332.69,1402.75 "/>
     <polygon id="_217" class="fil49" points="1342.16,-845.93 1356.36,-845.93 1356.36,1402.75 1342.16,1402.75 "/>
     <polygon id="_218" class="fil49" points="1351.63,-845.93 1365.83,-845.93 1365.83,1402.75 1351.63,1402.75 "/>
     <polygon id="_219" class="fil50" points="1361.1,-845.93 1375.3,-845.93 1375.3,1402.75 1361.1,1402.75 "/>
     <polygon id="_220" class="fil51" points="1370.57,-845.93 1384.77,-845.93 1384.77,1402.75 1370.57,1402.75 "/>
     <polygon id="_221" class="fil51" points="1380.04,-845.93 1394.24,-845.93 1394.24,1402.75 1380.04,1402.75 "/>
     <polygon id="_222" class="fil51" points="1389.51,-845.93 1403.71,-845.93 1403.71,1402.75 1389.51,1402.75 "/>
     <polygon id="_223" class="fil51" points="1398.98,-845.93 1413.18,-845.93 1413.18,1402.75 1398.98,1402.75 "/>
     <polygon id="_224" class="fil52" points="1408.44,-845.93 1422.65,-845.93 1422.65,1402.75 1408.44,1402.75 "/>
     <polygon id="_225" class="fil53" points="1417.91,-845.93 1432.12,-845.93 1432.12,1402.75 1417.91,1402.75 "/>
     <polygon id="_226" class="fil53" points="1427.38,-845.93 1441.59,-845.93 1441.59,1402.75 1427.38,1402.75 "/>
     <polygon id="_227" class="fil53" points="1436.85,-845.93 1451.06,-845.93 1451.06,1402.75 1436.85,1402.75 "/>
     <polygon id="_228" class="fil53" points="1446.32,-845.93 1460.53,-845.93 1460.53,1402.75 1446.32,1402.75 "/>
     <polygon id="_229" class="fil53" points="1455.79,-845.93 1470,-845.93 1470,1402.75 1455.79,1402.75 "/>
     <polygon id="_230" class="fil54" points="1465.26,-845.93 1479.47,-845.93 1479.47,1402.75 1465.26,1402.75 "/>
     <polygon id="_231" class="fil54" points="1474.73,-845.93 1488.94,-845.93 1488.94,1402.75 1474.73,1402.75 "/>
     <polygon id="_232" class="fil55" points="1484.2,-845.93 1498.41,-845.93 1498.41,1402.75 1484.2,1402.75 "/>
     <polygon id="_233" class="fil56" points="1493.67,-845.93 1507.87,-845.93 1507.87,1402.75 1493.67,1402.75 "/>
     <polygon id="_234" class="fil56" points="1503.14,-845.93 1517.34,-845.93 1517.34,1402.75 1503.14,1402.75 "/>
     <polygon id="_235" class="fil56" points="1512.61,-845.93 1526.81,-845.93 1526.81,1402.75 1512.61,1402.75 "/>
     <polygon id="_236" class="fil57" points="1522.08,-845.93 1536.28,-845.93 1536.28,1402.75 1522.08,1402.75 "/>
     <polygon id="_237" class="fil57" points="1531.55,-845.93 1545.75,-845.93 1545.75,1402.75 1531.55,1402.75 "/>
     <polygon id="_238" class="fil57" points="1541.02,-845.93 1540.05,-845.93 1540.05,1402.75 1541.02,1402.75 "/>
    </g>
   </g>
   <polyline class="fil58" points="-733.95,352.3 -737.21,350.4 -757.88,1483.53 -767.92,1479.43 -683.36,1826.84 -687.73,1827.69 -687.72,1773.65 "/>
   <path class="fil59" d="M96.7 -1195.8c-24.59,57.4 -3.28,85.79 4.91,126.79 106.61,-41 504.24,-37.39 536.3,-69.4 11.09,-4 2.63,-98.4 -24.6,-98.4 -180.41,0 -360.79,41.02 -516.61,41.01z"/>
   <polygon class="fil60" points="1154.53,-1056.4 839.64,-912.58 949.52,-875.99 1195.53,-867.8 1194.01,-1083.75 "/>
   <path class="fil61" d="M-1093.85 1405.03l0.02 0c3.35,-5.52 -4.72,-4.05 4.11,-4.11 -9.59,4.08 -0.03,-5.47 -4.13,4.11z"/>
   <polygon class="fil62" points="-267.86,1958.51 853.68,1856.02 "/>
   <path class="fil63" d="M-619.96 1985.42l-21.36 -196.35c6.51,-4.22 -58.01,-364.84 -49.2,-369.01 -149.06,117.29 -298.13,234.57 -447.18,351.86l517.74 213.5z"/>
   <path class="fil64" d="M-264.47 1345.79l-444.6 37.51c6.33,96.11 30.66,220.03 38.72,279.57l43.67 322.81c327.1,-12.05 537.84,-58.43 864.79,-73.42 95.73,-4.38 451.57,-56.23 615.57,-56.23 164,0 569.93,-45.55 780.24,-45.55 -20.72,-257.61 -87.71,-502.76 -98.72,-604l-792.19 46.32c-340.29,12.78 -674.36,61.68 -1007.48,92.99z"/>
   <path class="fil65" d="M-50.91 -1056.4c-16.39,114.8 -8.2,820.02 15.75,925.92 41.66,8.9 137.44,15.78 172.86,0.7 13.78,-173.52 -8.58,-386.86 -12.41,-569.69 -4.4,-164.98 -8.7,-326.13 -13.2,-494.93 -48.2,15 -154.47,137.05 -163,138z"/>
   <path class="fil66" d="M613.31 -1236.81c-13.81,58.77 -12.38,700.81 -8.2,1057.83 44.87,11.36 146.94,5.52 172.2,-8.19 -8.2,-317.08 16.41,-639.62 -8.19,-951.24 -49.2,-40.99 -98.4,-73.8 -155.81,-98.4z"/>
  </g>
 </g>
</svg>
