<?xml version="1.0" encoding="UTF-8"?>
<!DOCTYPE svg PUBLIC "-//W3C//DTD SVG 1.1//EN" "http://www.w3.org/Graphics/SVG/1.1/DTD/svg11.dtd">
<!-- Creator: CorelDRAW -->
<svg xmlns="http://www.w3.org/2000/svg" xml:space="preserve" width="56px" height="56px" version="1.1" style="shape-rendering:geometricPrecision; text-rendering:geometricPrecision; image-rendering:optimizeQuality; fill-rule:evenodd; clip-rule:evenodd"
viewBox="0 0 56000 56000"
 xmlns:xlink="http://www.w3.org/1999/xlink"
 xmlns:xodm="http://www.corel.com/coreldraw/odm/2003">
 <defs>
  <style type="text/css">
   <![CDATA[
    .fil58 {fill:none}
    .fil62 {fill:#AB711D}
    .fil0 {fill:#BD8333}
    .fil2 {fill:#C78C3A}
    .fil1 {fill:#C9892F}
    .fil60 {fill:#DEA555}
    .fil8 {fill:#E3A042}
    .fil9 {fill:#E3A043}
    .fil10 {fill:#E3A144}
    .fil11 {fill:#E3A145}
    .fil12 {fill:#E3A146}
    .fil13 {fill:#E3A147}
    .fil14 {fill:#E3A247}
    .fil15 {fill:#E3A248}
    .fil16 {fill:#E3A249}
    .fil17 {fill:#E3A34A}
    .fil18 {fill:#E3A34B}
    .fil19 {fill:#E3A34C}
    .fil20 {fill:#E3A44C}
    .fil21 {fill:#E3A44D}
    .fil22 {fill:#E3A44E}
    .fil23 {fill:#E3A54E}
    .fil24 {fill:#E3A54F}
    .fil25 {fill:#E3A64F}
    .fil26 {fill:#E4A64F}
    .fil27 {fill:#E4A650}
    .fil28 {fill:#E4A750}
    .fil5 {fill:#E4AB5C}
    .fil29 {fill:#E5A750}
    .fil30 {fill:#E6A850}
    .fil31 {fill:#E6A950}
    .fil4 {fill:#E6A953}
    .fil32 {fill:#E7A950}
    .fil33 {fill:#E7A951}
    .fil34 {fill:#E7AA51}
    .fil35 {fill:#E8AA51}
    .fil36 {fill:#E8AA52}
    .fil37 {fill:#E8AB52}
    .fil38 {fill:#E9AB53}
    .fil39 {fill:#E9AC53}
    .fil40 {fill:#E9AC54}
    .fil41 {fill:#EAAC54}
    .fil42 {fill:#EAAD55}
    .fil43 {fill:#EBAD55}
    .fil44 {fill:#EBAD56}
    .fil45 {fill:#EBAE56}
    .fil46 {fill:#ECAE57}
    .fil47 {fill:#ECAF57}
    .fil48 {fill:#ECAF58}
    .fil49 {fill:#EDAF58}
    .fil50 {fill:#EDB058}
    .fil51 {fill:#EDB059}
    .fil52 {fill:#EEB059}
    .fil53 {fill:#EEB15A}
    .fil54 {fill:#EEB15B}
    .fil61 {fill:#EEB565}
    .fil55 {fill:#EFB15B}
    .fil56 {fill:#EFB25B}
    .fil57 {fill:#EFB25C}
    .fil59 {fill:url(#id1)}
    .fil64 {fill:url(#id2)}
    .fil66 {fill:url(#id3)}
    .fil6 {fill:url(#id4)}
    .fil65 {fill:url(#id5)}
    .fil63 {fill:url(#id6)}
    .fil7 {fill:url(#id7)}
    .fil3 {fill:url(#id8)}
   ]]>
  </style>
     <clipPath id="id0">
      <path d="M49520 -23590c-9130,700 -13750,980 -18250,1400l1450 68610 -18790 730 -870 -68060 -82850 7360 4300 241720c24500,-2070 46910,70 75630,-5630 32930,-4840 63220,-5650 95890,-8720l93960 -4700 -4070 -246480 -88020 8280 140 68880 -16370 390 -1360 -67730c-3000,-340 -39500,3190 -40790,3950z"/>
     </clipPath>
  <linearGradient id="id1" gradientUnits="userSpaceOnUse" x1="28150" y1="-73620" x2="93990" y2="-73620">
   <stop offset="0" style="stop-opacity:1; stop-color:#DB9A40"/>
   <stop offset="1" style="stop-opacity:1; stop-color:#EDB05A"/>
  </linearGradient>
  <linearGradient id="id2" gradientUnits="userSpaceOnUse" x1="75950" y1="282400" x2="69250" y2="213980">
   <stop offset="0" style="stop-opacity:1; stop-color:#C68D3D"/>
   <stop offset="1" style="stop-opacity:1; stop-color:#F0B25B"/>
  </linearGradient>
  <linearGradient id="id3" gradientUnits="userSpaceOnUse" x1="93010" y1="40380" x2="105030" y2="-182200">
   <stop offset="0" style="stop-opacity:1; stop-color:#DB9739"/>
   <stop offset="1" style="stop-opacity:1; stop-color:#FDCE88"/>
  </linearGradient>
  <linearGradient id="id4" gradientUnits="userSpaceOnUse" x1="-94060" y1="195680" x2="-97390" y2="-36110">
   <stop offset="0" style="stop-opacity:1; stop-color:#D49133"/>
   <stop offset="1" style="stop-opacity:1; stop-color:#E8A343"/>
  </linearGradient>
  <linearGradient id="id5" gradientUnits="userSpaceOnUse" x1="9350" y1="-61970" x2="16870" y2="47360">
   <stop offset="0" style="stop-opacity:1; stop-color:#EBAE59"/>
   <stop offset="1" style="stop-opacity:1; stop-color:#DB9739"/>
  </linearGradient>
  <linearGradient id="id6" gradientUnits="userSpaceOnUse" x1="-91150" y1="255850" x2="-53000" y2="294170">
   <stop offset="0" style="stop-opacity:1; stop-color:#B67D2D"/>
   <stop offset="0.411765" style="stop-opacity:1; stop-color:#C78931"/>
   <stop offset="1" style="stop-opacity:1; stop-color:#D99536"/>
  </linearGradient>
  <linearGradient id="id7" gradientUnits="userSpaceOnUse" x1="-79040" y1="246340" x2="-107710" y2="198860">
   <stop offset="0" style="stop-opacity:1; stop-color:#BF8B43"/>
   <stop offset="0.321569" style="stop-opacity:1; stop-color:#C78A35"/>
   <stop offset="1" style="stop-opacity:1; stop-color:#CF8927"/>
  </linearGradient>
  <linearGradient id="id8" gradientUnits="userSpaceOnUse" x1="142610" y1="-56810" x2="-85880" y2="-40790">
   <stop offset="0" style="stop-opacity:1; stop-color:#D68F2B"/>
   <stop offset="0.301961" style="stop-opacity:1; stop-color:#CD8A2B"/>
   <stop offset="0.490196" style="stop-opacity:1; stop-color:#C4842A"/>
   <stop offset="1" style="stop-opacity:1; stop-color:#C7801E"/>
  </linearGradient>
 </defs>
 <g id="Слой_x0020_1">
  <metadata id="CorelCorpID_0Corel-Layer"/>
  <g id="_3025999430192">
   <path class="fil0" d="M65350 -53500l16460 -2910 -2120 -44880 -13380 -12260c-13560,-970 -25180,0 -39710,2900 -6740,1190 -12490,2210 -24760,5380 -3080,2320 -6230,3340 -13010,11090l16700 760c10,-160 25060,-470 30760,-760 9360,-1290 16380,-1640 28090,-3880l970 44560z"/>
   <path class="fil1" d="M65350 -53500l16460 -2910c-680,-14510 -1370,-29020 -2050,-43530 -6670,1880 -7630,-1020 -15380,1880l970 44560z"/>
   <path class="fil2" d="M-11170 -94180l-970 46490 17440 -970 230 -44760c-5080,-760 -9920,-760 -16700,-760z"/>
   <path class="fil3" d="M107300 -27760l10350 -1530 970 -14530 35830 -13560 4670 -7400 -51900 3470 80 33550zm-77000 -24540l-330 32480 61090 -4990 -560 -34000 -60200 6510zm-15320 1700c-54240,2910 -63920,4850 -121250,8420l74100 9360 -2250 17090 50370 -1940 -970 -32930z"/>
   <path class="fil4" d="M193200 -34130l2720 -3230 -36800 -3390 -41110 -4480c-2100,1170 -2300,12070 -1330,17880 2640,570 20490,-4170 23240,-2910 22330,1540 26770,-3370 53280,-3870z"/>
   <path class="fil5" d="M-30540 -33660c-890,390 -43650,12730 -41650,23740 870,4780 5130,4500 15500,3880 4710,-280 26340,1620 27120,-3880 990,-7030 -1940,-10650 -970,-23740z"/>
   <path class="fil6" d="M-107420 204610l46850 -10160 -5810 -170470 -3410 -37530 39250 -20110c-24000,-2360 -48210,-7670 -75720,-8520l-1160 246790z"/>
   <path class="fil7" d="M-115630 271330c2280,-430 44190,-29190 53130,-39110l-2910 -40680 -40990 6520c-2830,19790 -4940,19440 -9230,73270z"/>
   <g>
    <g style="clip-path:url(#id0)">
     <polygon class="fil8" points="-69790,-37360 -64420,-37360 -64420,228240 -69790,228240 "/>
     <polygon id="_1" class="fil8" points="-64980,-37360 -63300,-37360 -63300,228240 -64980,228240 "/>
     <polygon id="_2" class="fil8" points="-63860,-37360 -62180,-37360 -62180,228240 -63860,228240 "/>
     <polygon id="_3" class="fil8" points="-62740,-37360 -61060,-37360 -61060,228240 -62740,228240 "/>
     <polygon id="_4" class="fil8" points="-61620,-37360 -59940,-37360 -59940,228240 -61620,228240 "/>
     <polygon id="_5" class="fil8" points="-60500,-37360 -58830,-37360 -58830,228240 -60500,228240 "/>
     <polygon id="_6" class="fil8" points="-59390,-37360 -57710,-37360 -57710,228240 -59390,228240 "/>
     <polygon id="_7" class="fil8" points="-58270,-37360 -56590,-37360 -56590,228240 -58270,228240 "/>
     <polygon id="_8" class="fil8" points="-57150,-37360 -55470,-37360 -55470,228240 -57150,228240 "/>
     <polygon id="_9" class="fil8" points="-56030,-37360 -54350,-37360 -54350,228240 -56030,228240 "/>
     <polygon id="_10" class="fil8" points="-54910,-37360 -53230,-37360 -53230,228240 -54910,228240 "/>
     <polygon id="_11" class="fil8" points="-53790,-37360 -52110,-37360 -52110,228240 -53790,228240 "/>
     <polygon id="_12" class="fil9" points="-52670,-37360 -51000,-37360 -51000,228240 -52670,228240 "/>
     <polygon id="_13" class="fil9" points="-51560,-37360 -49880,-37360 -49880,228240 -51560,228240 "/>
     <polygon id="_14" class="fil9" points="-50440,-37360 -48760,-37360 -48760,228240 -50440,228240 "/>
     <polygon id="_15" class="fil9" points="-49320,-37360 -47640,-37360 -47640,228240 -49320,228240 "/>
     <polygon id="_16" class="fil9" points="-48200,-37360 -46520,-37360 -46520,228240 -48200,228240 "/>
     <polygon id="_17" class="fil9" points="-47080,-37360 -45400,-37360 -45400,228240 -47080,228240 "/>
     <polygon id="_18" class="fil9" points="-45960,-37360 -44290,-37360 -44290,228240 -45960,228240 "/>
     <polygon id="_19" class="fil9" points="-44840,-37360 -43170,-37360 -43170,228240 -44840,228240 "/>
     <polygon id="_20" class="fil9" points="-43730,-37360 -42050,-37360 -42050,228240 -43730,228240 "/>
     <polygon id="_21" class="fil10" points="-42610,-37360 -40930,-37360 -40930,228240 -42610,228240 "/>
     <polygon id="_22" class="fil10" points="-41490,-37360 -39810,-37360 -39810,228240 -41490,228240 "/>
     <polygon id="_23" class="fil10" points="-40370,-37360 -38690,-37360 -38690,228240 -40370,228240 "/>
     <polygon id="_24" class="fil10" points="-39250,-37360 -37570,-37360 -37570,228240 -39250,228240 "/>
     <polygon id="_25" class="fil10" points="-38130,-37360 -36460,-37360 -36460,228240 -38130,228240 "/>
     <polygon id="_26" class="fil10" points="-37020,-37360 -35340,-37360 -35340,228240 -37020,228240 "/>
     <polygon id="_27" class="fil11" points="-35900,-37360 -34220,-37360 -34220,228240 -35900,228240 "/>
     <polygon id="_28" class="fil11" points="-34780,-37360 -33100,-37360 -33100,228240 -34780,228240 "/>
     <polygon id="_29" class="fil11" points="-33660,-37360 -31980,-37360 -31980,228240 -33660,228240 "/>
     <polygon id="_30" class="fil11" points="-32540,-37360 -30860,-37360 -30860,228240 -32540,228240 "/>
     <polygon id="_31" class="fil11" points="-31420,-37360 -29740,-37360 -29740,228240 -31420,228240 "/>
     <polygon id="_32" class="fil11" points="-30300,-37360 -28630,-37360 -28630,228240 -30300,228240 "/>
     <polygon id="_33" class="fil12" points="-29190,-37360 -27510,-37360 -27510,228240 -29190,228240 "/>
     <polygon id="_34" class="fil12" points="-28070,-37360 -26390,-37360 -26390,228240 -28070,228240 "/>
     <polygon id="_35" class="fil12" points="-26950,-37360 -25270,-37360 -25270,228240 -26950,228240 "/>
     <polygon id="_36" class="fil12" points="-25830,-37360 -24150,-37360 -24150,228240 -25830,228240 "/>
     <polygon id="_37" class="fil12" points="-24710,-37360 -23030,-37360 -23030,228240 -24710,228240 "/>
     <polygon id="_38" class="fil13" points="-23590,-37360 -21920,-37360 -21920,228240 -23590,228240 "/>
     <polygon id="_39" class="fil14" points="-22470,-37360 -20800,-37360 -20800,228240 -22470,228240 "/>
     <polygon id="_40" class="fil14" points="-21360,-37360 -19680,-37360 -19680,228240 -21360,228240 "/>
     <polygon id="_41" class="fil14" points="-20240,-37360 -18560,-37360 -18560,228240 -20240,228240 "/>
     <polygon id="_42" class="fil14" points="-19120,-37360 -17440,-37360 -17440,228240 -19120,228240 "/>
     <polygon id="_43" class="fil15" points="-18000,-37360 -16320,-37360 -16320,228240 -18000,228240 "/>
     <polygon id="_44" class="fil15" points="-16880,-37360 -15200,-37360 -15200,228240 -16880,228240 "/>
     <polygon id="_45" class="fil15" points="-15760,-37360 -14090,-37360 -14090,228240 -15760,228240 "/>
     <polygon id="_46" class="fil15" points="-14650,-37360 -12970,-37360 -12970,228240 -14650,228240 "/>
     <polygon id="_47" class="fil15" points="-13530,-37360 -11850,-37360 -11850,228240 -13530,228240 "/>
     <polygon id="_48" class="fil16" points="-12410,-37360 -10730,-37360 -10730,228240 -12410,228240 "/>
     <polygon id="_49" class="fil16" points="-11290,-37360 -9610,-37360 -9610,228240 -11290,228240 "/>
     <polygon id="_50" class="fil16" points="-10170,-37360 -8490,-37360 -8490,228240 -10170,228240 "/>
     <polygon id="_51" class="fil16" points="-9050,-37360 -7380,-37360 -7380,228240 -9050,228240 "/>
     <polygon id="_52" class="fil16" points="-7930,-37360 -6260,-37360 -6260,228240 -7930,228240 "/>
     <polygon id="_53" class="fil17" points="-6820,-37360 -5140,-37360 -5140,228240 -6820,228240 "/>
     <polygon id="_54" class="fil17" points="-5700,-37360 -4020,-37360 -4020,228240 -5700,228240 "/>
     <polygon id="_55" class="fil17" points="-4580,-37360 -2900,-37360 -2900,228240 -4580,228240 "/>
     <polygon id="_56" class="fil17" points="-3460,-37360 -1780,-37360 -1780,228240 -3460,228240 "/>
     <polygon id="_57" class="fil17" points="-2340,-37360 -660,-37360 -660,228240 -2340,228240 "/>
     <polygon id="_58" class="fil18" points="-1220,-37360 450,-37360 450,228240 -1220,228240 "/>
     <polygon id="_59" class="fil18" points="-110,-37360 1570,-37360 1570,228240 -110,228240 "/>
     <polygon id="_60" class="fil18" points="1010,-37360 2690,-37360 2690,228240 1010,228240 "/>
     <polygon id="_61" class="fil18" points="2130,-37360 3810,-37360 3810,228240 2130,228240 "/>
     <polygon id="_62" class="fil18" points="3250,-37360 4930,-37360 4930,228240 3250,228240 "/>
     <polygon id="_63" class="fil19" points="4370,-37360 6050,-37360 6050,228240 4370,228240 "/>
     <polygon id="_64" class="fil19" points="5490,-37360 7160,-37360 7160,228240 5490,228240 "/>
     <polygon id="_65" class="fil19" points="6610,-37360 8280,-37360 8280,228240 6610,228240 "/>
     <polygon id="_66" class="fil19" points="7720,-37360 9400,-37360 9400,228240 7720,228240 "/>
     <polygon id="_67" class="fil20" points="8840,-37360 10520,-37360 10520,228240 8840,228240 "/>
     <polygon id="_68" class="fil20" points="9960,-37360 11640,-37360 11640,228240 9960,228240 "/>
     <polygon id="_69" class="fil21" points="11080,-37360 12760,-37360 12760,228240 11080,228240 "/>
     <polygon id="_70" class="fil21" points="12200,-37360 13880,-37360 13880,228240 12200,228240 "/>
     <polygon id="_71" class="fil21" points="13320,-37360 14990,-37360 14990,228240 13320,228240 "/>
     <polygon id="_72" class="fil21" points="14430,-37360 16110,-37360 16110,228240 14430,228240 "/>
     <polygon id="_73" class="fil21" points="15550,-37360 17230,-37360 17230,228240 15550,228240 "/>
     <polygon id="_74" class="fil21" points="16670,-37360 18350,-37360 18350,228240 16670,228240 "/>
     <polygon id="_75" class="fil21" points="17790,-37360 19470,-37360 19470,228240 17790,228240 "/>
     <polygon id="_76" class="fil22" points="18910,-37360 20590,-37360 20590,228240 18910,228240 "/>
     <polygon id="_77" class="fil22" points="20030,-37360 21710,-37360 21710,228240 20030,228240 "/>
     <polygon id="_78" class="fil22" points="21150,-37360 22820,-37360 22820,228240 21150,228240 "/>
     <polygon id="_79" class="fil22" points="22260,-37360 23940,-37360 23940,228240 22260,228240 "/>
     <polygon id="_80" class="fil22" points="23380,-37360 25060,-37360 25060,228240 23380,228240 "/>
     <polygon id="_81" class="fil22" points="24500,-37360 26180,-37360 26180,228240 24500,228240 "/>
     <polygon id="_82" class="fil23" points="25620,-37360 27300,-37360 27300,228240 25620,228240 "/>
     <polygon id="_83" class="fil23" points="26740,-37360 28420,-37360 28420,228240 26740,228240 "/>
     <polygon id="_84" class="fil24" points="27860,-37360 29530,-37360 29530,228240 27860,228240 "/>
     <polygon id="_85" class="fil24" points="28980,-37360 30650,-37360 30650,228240 28980,228240 "/>
     <polygon id="_86" class="fil24" points="30090,-37360 31770,-37360 31770,228240 30090,228240 "/>
     <polygon id="_87" class="fil24" points="31210,-37360 32890,-37360 32890,228240 31210,228240 "/>
     <polygon id="_88" class="fil24" points="32330,-37360 34010,-37360 34010,228240 32330,228240 "/>
     <polygon id="_89" class="fil24" points="33450,-37360 35130,-37360 35130,228240 33450,228240 "/>
     <polygon id="_90" class="fil24" points="34570,-37360 36250,-37360 36250,228240 34570,228240 "/>
     <polygon id="_91" class="fil24" points="35690,-37360 37360,-37360 37360,228240 35690,228240 "/>
     <polygon id="_92" class="fil24" points="36800,-37360 38480,-37360 38480,228240 36800,228240 "/>
     <polygon id="_93" class="fil24" points="37920,-37360 39600,-37360 39600,228240 37920,228240 "/>
     <polygon id="_94" class="fil24" points="39040,-37360 40720,-37360 40720,228240 39040,228240 "/>
     <polygon id="_95" class="fil24" points="40160,-37360 41840,-37360 41840,228240 40160,228240 "/>
     <polygon id="_96" class="fil24" points="41280,-37360 42960,-37360 42960,228240 41280,228240 "/>
     <polygon id="_97" class="fil24" points="42400,-37360 44080,-37360 44080,228240 42400,228240 "/>
     <polygon id="_98" class="fil24" points="43520,-37360 45190,-37360 45190,228240 43520,228240 "/>
     <polygon id="_99" class="fil24" points="44630,-37360 46310,-37360 46310,228240 44630,228240 "/>
     <polygon id="_100" class="fil24" points="45750,-37360 47430,-37360 47430,228240 45750,228240 "/>
     <polygon id="_101" class="fil24" points="46870,-37360 48550,-37360 48550,228240 46870,228240 "/>
     <polygon id="_102" class="fil24" points="47990,-37360 49670,-37360 49670,228240 47990,228240 "/>
     <polygon id="_103" class="fil24" points="49110,-37360 50790,-37360 50790,228240 49110,228240 "/>
     <polygon id="_104" class="fil25" points="50230,-37360 51900,-37360 51900,228240 50230,228240 "/>
     <polygon id="_105" class="fil25" points="51350,-37360 53020,-37360 53020,228240 51350,228240 "/>
     <polygon id="_106" class="fil25" points="52460,-37360 54140,-37360 54140,228240 52460,228240 "/>
     <polygon id="_107" class="fil25" points="53580,-37360 55260,-37360 55260,228240 53580,228240 "/>
     <polygon id="_108" class="fil25" points="54700,-37360 56380,-37360 56380,228240 54700,228240 "/>
     <polygon id="_109" class="fil25" points="55820,-37360 57500,-37360 57500,228240 55820,228240 "/>
     <polygon id="_110" class="fil25" points="56940,-37360 58620,-37360 58620,228240 56940,228240 "/>
     <polygon id="_111" class="fil25" points="58060,-37360 59730,-37360 59730,228240 58060,228240 "/>
     <polygon id="_112" class="fil25" points="59170,-37360 60850,-37360 60850,228240 59170,228240 "/>
     <polygon id="_113" class="fil25" points="60290,-37360 61970,-37360 61970,228240 60290,228240 "/>
     <polygon id="_114" class="fil25" points="61410,-37360 63090,-37360 63090,228240 61410,228240 "/>
     <polygon id="_115" class="fil25" points="62530,-37360 64210,-37360 64210,228240 62530,228240 "/>
     <polygon id="_116" class="fil25" points="63650,-37360 65330,-37360 65330,228240 63650,228240 "/>
     <polygon id="_117" class="fil25" points="64770,-37360 66440,-37360 66440,228240 64770,228240 "/>
     <polygon id="_118" class="fil25" points="65880,-37360 67560,-37360 67560,228240 65880,228240 "/>
     <polygon id="_119" class="fil25" points="67000,-37360 68680,-37360 68680,228240 67000,228240 "/>
     <polygon id="_120" class="fil25" points="68120,-37360 69800,-37360 69800,228240 68120,228240 "/>
     <polygon id="_121" class="fil25" points="69240,-37360 70920,-37360 70920,228240 69240,228240 "/>
     <polygon id="_122" class="fil25" points="70360,-37360 72040,-37360 72040,228240 70360,228240 "/>
     <polygon id="_123" class="fil25" points="71480,-37360 73150,-37360 73150,228240 71480,228240 "/>
     <polygon id="_124" class="fil25" points="72600,-37360 74270,-37360 74270,228240 72600,228240 "/>
     <polygon id="_125" class="fil26" points="73710,-37360 75390,-37360 75390,228240 73710,228240 "/>
     <polygon id="_126" class="fil26" points="74830,-37360 76510,-37360 76510,228240 74830,228240 "/>
     <polygon id="_127" class="fil26" points="75950,-37360 77630,-37360 77630,228240 75950,228240 "/>
     <polygon id="_128" class="fil26" points="77070,-37360 78750,-37360 78750,228240 77070,228240 "/>
     <polygon id="_129" class="fil26" points="78190,-37360 79870,-37360 79870,228240 78190,228240 "/>
     <polygon id="_130" class="fil26" points="79310,-37360 80980,-37360 80980,228240 79310,228240 "/>
     <polygon id="_131" class="fil27" points="80430,-37360 82100,-37360 82100,228240 80430,228240 "/>
     <polygon id="_132" class="fil27" points="81540,-37360 83220,-37360 83220,228240 81540,228240 "/>
     <polygon id="_133" class="fil27" points="82660,-37360 84340,-37360 84340,228240 82660,228240 "/>
     <polygon id="_134" class="fil27" points="83780,-37360 85460,-37360 85460,228240 83780,228240 "/>
     <polygon id="_135" class="fil27" points="84900,-37360 86580,-37360 86580,228240 84900,228240 "/>
     <polygon id="_136" class="fil27" points="86020,-37360 87700,-37360 87700,228240 86020,228240 "/>
     <polygon id="_137" class="fil27" points="87140,-37360 88810,-37360 88810,228240 87140,228240 "/>
     <polygon id="_138" class="fil27" points="88250,-37360 89930,-37360 89930,228240 88250,228240 "/>
     <polygon id="_139" class="fil27" points="89370,-37360 91050,-37360 91050,228240 89370,228240 "/>
     <polygon id="_140" class="fil27" points="90490,-37360 92170,-37360 92170,228240 90490,228240 "/>
     <polygon id="_141" class="fil27" points="91610,-37360 93290,-37360 93290,228240 91610,228240 "/>
     <polygon id="_142" class="fil27" points="92730,-37360 94410,-37360 94410,228240 92730,228240 "/>
     <polygon id="_143" class="fil27" points="93850,-37360 95530,-37360 95530,228240 93850,228240 "/>
     <polygon id="_144" class="fil28" points="94970,-37360 96640,-37360 96640,228240 94970,228240 "/>
     <polygon id="_145" class="fil28" points="96080,-37360 97760,-37360 97760,228240 96080,228240 "/>
     <polygon id="_146" class="fil28" points="97200,-37360 98880,-37360 98880,228240 97200,228240 "/>
     <polygon id="_147" class="fil28" points="98320,-37360 100000,-37360 100000,228240 98320,228240 "/>
     <polygon id="_148" class="fil29" points="99440,-37360 101120,-37360 101120,228240 99440,228240 "/>
     <polygon id="_149" class="fil29" points="100560,-37360 102240,-37360 102240,228240 100560,228240 "/>
     <polygon id="_150" class="fil29" points="101680,-37360 103350,-37360 103350,228240 101680,228240 "/>
     <polygon id="_151" class="fil29" points="102800,-37360 104470,-37360 104470,228240 102800,228240 "/>
     <polygon id="_152" class="fil29" points="103910,-37360 105590,-37360 105590,228240 103910,228240 "/>
     <polygon id="_153" class="fil29" points="105030,-37360 106710,-37360 106710,228240 105030,228240 "/>
     <polygon id="_154" class="fil29" points="106150,-37360 107830,-37360 107830,228240 106150,228240 "/>
     <polygon id="_155" class="fil29" points="107270,-37360 108950,-37360 108950,228240 107270,228240 "/>
     <polygon id="_156" class="fil29" points="108390,-37360 110070,-37360 110070,228240 108390,228240 "/>
     <polygon id="_157" class="fil29" points="109510,-37360 111180,-37360 111180,228240 109510,228240 "/>
     <polygon id="_158" class="fil29" points="110620,-37360 112300,-37360 112300,228240 110620,228240 "/>
     <polygon id="_159" class="fil29" points="111740,-37360 113420,-37360 113420,228240 111740,228240 "/>
     <polygon id="_160" class="fil29" points="112860,-37360 114540,-37360 114540,228240 112860,228240 "/>
     <polygon id="_161" class="fil29" points="113980,-37360 115660,-37360 115660,228240 113980,228240 "/>
     <polygon id="_162" class="fil29" points="115100,-37360 116780,-37360 116780,228240 115100,228240 "/>
     <polygon id="_163" class="fil30" points="116220,-37360 117900,-37360 117900,228240 116220,228240 "/>
     <polygon id="_164" class="fil30" points="117340,-37360 119010,-37360 119010,228240 117340,228240 "/>
     <polygon id="_165" class="fil30" points="118450,-37360 120130,-37360 120130,228240 118450,228240 "/>
     <polygon id="_166" class="fil30" points="119570,-37360 121250,-37360 121250,228240 119570,228240 "/>
     <polygon id="_167" class="fil30" points="120690,-37360 122370,-37360 122370,228240 120690,228240 "/>
     <polygon id="_168" class="fil30" points="121810,-37360 123490,-37360 123490,228240 121810,228240 "/>
     <polygon id="_169" class="fil30" points="122930,-37360 124610,-37360 124610,228240 122930,228240 "/>
     <polygon id="_170" class="fil30" points="124050,-37360 125720,-37360 125720,228240 124050,228240 "/>
     <polygon id="_171" class="fil30" points="125160,-37360 126840,-37360 126840,228240 125160,228240 "/>
     <polygon id="_172" class="fil30" points="126280,-37360 127960,-37360 127960,228240 126280,228240 "/>
     <polygon id="_173" class="fil30" points="127400,-37360 129080,-37360 129080,228240 127400,228240 "/>
     <polygon id="_174" class="fil31" points="128520,-37360 130200,-37360 130200,228240 128520,228240 "/>
     <polygon id="_175" class="fil32" points="129640,-37360 131320,-37360 131320,228240 129640,228240 "/>
     <polygon id="_176" class="fil33" points="130760,-37360 132430,-37360 132430,228240 130760,228240 "/>
     <polygon id="_177" class="fil33" points="131880,-37360 133550,-37360 133550,228240 131880,228240 "/>
     <polygon id="_178" class="fil33" points="132990,-37360 134670,-37360 134670,228240 132990,228240 "/>
     <polygon id="_179" class="fil33" points="134110,-37360 135790,-37360 135790,228240 134110,228240 "/>
     <polygon id="_180" class="fil33" points="135230,-37360 136910,-37360 136910,228240 135230,228240 "/>
     <polygon id="_181" class="fil33" points="136350,-37360 138030,-37360 138030,228240 136350,228240 "/>
     <polygon id="_182" class="fil34" points="137470,-37360 139150,-37360 139150,228240 137470,228240 "/>
     <polygon id="_183" class="fil35" points="138590,-37360 140260,-37360 140260,228240 138590,228240 "/>
     <polygon id="_184" class="fil35" points="139700,-37360 141380,-37360 141380,228240 139700,228240 "/>
     <polygon id="_185" class="fil36" points="140820,-37360 142500,-37360 142500,228240 140820,228240 "/>
     <polygon id="_186" class="fil36" points="141940,-37360 143620,-37360 143620,228240 141940,228240 "/>
     <polygon id="_187" class="fil36" points="143060,-37360 144740,-37360 144740,228240 143060,228240 "/>
     <polygon id="_188" class="fil36" points="144180,-37360 145860,-37360 145860,228240 144180,228240 "/>
     <polygon id="_189" class="fil37" points="145300,-37360 146970,-37360 146970,228240 145300,228240 "/>
     <polygon id="_190" class="fil37" points="146420,-37360 148090,-37360 148090,228240 146420,228240 "/>
     <polygon id="_191" class="fil38" points="147530,-37360 149210,-37360 149210,228240 147530,228240 "/>
     <polygon id="_192" class="fil38" points="148650,-37360 150330,-37360 150330,228240 148650,228240 "/>
     <polygon id="_193" class="fil38" points="149770,-37360 151450,-37360 151450,228240 149770,228240 "/>
     <polygon id="_194" class="fil38" points="150890,-37360 152570,-37360 152570,228240 150890,228240 "/>
     <polygon id="_195" class="fil39" points="152010,-37360 153690,-37360 153690,228240 152010,228240 "/>
     <polygon id="_196" class="fil40" points="153130,-37360 154800,-37360 154800,228240 153130,228240 "/>
     <polygon id="_197" class="fil41" points="154250,-37360 155920,-37360 155920,228240 154250,228240 "/>
     <polygon id="_198" class="fil41" points="155360,-37360 157040,-37360 157040,228240 155360,228240 "/>
     <polygon id="_199" class="fil41" points="156480,-37360 158160,-37360 158160,228240 156480,228240 "/>
     <polygon id="_200" class="fil41" points="157600,-37360 159280,-37360 159280,228240 157600,228240 "/>
     <polygon id="_201" class="fil42" points="158720,-37360 160400,-37360 160400,228240 158720,228240 "/>
     <polygon id="_202" class="fil42" points="159840,-37360 161520,-37360 161520,228240 159840,228240 "/>
     <polygon id="_203" class="fil42" points="160960,-37360 162630,-37360 162630,228240 160960,228240 "/>
     <polygon id="_204" class="fil43" points="162070,-37360 163750,-37360 163750,228240 162070,228240 "/>
     <polygon id="_205" class="fil43" points="163190,-37360 164870,-37360 164870,228240 163190,228240 "/>
     <polygon id="_206" class="fil44" points="164310,-37360 165990,-37360 165990,228240 164310,228240 "/>
     <polygon id="_207" class="fil45" points="165430,-37360 167110,-37360 167110,228240 165430,228240 "/>
     <polygon id="_208" class="fil45" points="166550,-37360 168230,-37360 168230,228240 166550,228240 "/>
     <polygon id="_209" class="fil45" points="167670,-37360 169350,-37360 169350,228240 167670,228240 "/>
     <polygon id="_210" class="fil46" points="168790,-37360 170460,-37360 170460,228240 168790,228240 "/>
     <polygon id="_211" class="fil46" points="169900,-37360 171580,-37360 171580,228240 169900,228240 "/>
     <polygon id="_212" class="fil46" points="171020,-37360 172700,-37360 172700,228240 171020,228240 "/>
     <polygon id="_213" class="fil47" points="172140,-37360 173820,-37360 173820,228240 172140,228240 "/>
     <polygon id="_214" class="fil47" points="173260,-37360 174940,-37360 174940,228240 173260,228240 "/>
     <polygon id="_215" class="fil48" points="174380,-37360 176060,-37360 176060,228240 174380,228240 "/>
     <polygon id="_216" class="fil48" points="175500,-37360 177170,-37360 177170,228240 175500,228240 "/>
     <polygon id="_217" class="fil49" points="176620,-37360 178290,-37360 178290,228240 176620,228240 "/>
     <polygon id="_218" class="fil49" points="177730,-37360 179410,-37360 179410,228240 177730,228240 "/>
     <polygon id="_219" class="fil50" points="178850,-37360 180530,-37360 180530,228240 178850,228240 "/>
     <polygon id="_220" class="fil51" points="179970,-37360 181650,-37360 181650,228240 179970,228240 "/>
     <polygon id="_221" class="fil51" points="181090,-37360 182770,-37360 182770,228240 181090,228240 "/>
     <polygon id="_222" class="fil51" points="182210,-37360 183890,-37360 183890,228240 182210,228240 "/>
     <polygon id="_223" class="fil51" points="183330,-37360 185000,-37360 185000,228240 183330,228240 "/>
     <polygon id="_224" class="fil52" points="184440,-37360 186120,-37360 186120,228240 184440,228240 "/>
     <polygon id="_225" class="fil53" points="185560,-37360 187240,-37360 187240,228240 185560,228240 "/>
     <polygon id="_226" class="fil53" points="186680,-37360 188360,-37360 188360,228240 186680,228240 "/>
     <polygon id="_227" class="fil53" points="187800,-37360 189480,-37360 189480,228240 187800,228240 "/>
     <polygon id="_228" class="fil53" points="188920,-37360 190600,-37360 190600,228240 188920,228240 "/>
     <polygon id="_229" class="fil53" points="190040,-37360 191710,-37360 191710,228240 190040,228240 "/>
     <polygon id="_230" class="fil54" points="191150,-37360 192830,-37360 192830,228240 191150,228240 "/>
     <polygon id="_231" class="fil54" points="192270,-37360 193950,-37360 193950,228240 192270,228240 "/>
     <polygon id="_232" class="fil55" points="193390,-37360 195070,-37360 195070,228240 193390,228240 "/>
     <polygon id="_233" class="fil56" points="194510,-37360 196190,-37360 196190,228240 194510,228240 "/>
     <polygon id="_234" class="fil56" points="195630,-37360 197310,-37360 197310,228240 195630,228240 "/>
     <polygon id="_235" class="fil56" points="196750,-37360 198420,-37360 198420,228240 196750,228240 "/>
     <polygon id="_236" class="fil57" points="197870,-37360 199540,-37360 199540,228240 197870,228240 "/>
     <polygon id="_237" class="fil57" points="198980,-37360 200660,-37360 200660,228240 198980,228240 "/>
     <polygon id="_238" class="fil57" points="200100,-37360 199990,-37360 199990,228240 200100,228240 "/>
    </g>
   </g>
   <polyline class="fil58" points="-68600,104170 -68990,103940 -71430,237780 -72610,237300 -62630,278330 -63140,278430 -63140,272050 "/>
   <path class="fil59" d="M29510 -78680c-2900,6780 -390,10130 580,14970 12590,-4840 59560,-4410 63340,-8200 1310,-470 310,-11620 -2900,-11620 -21310,0 -42620,4850 -61020,4850z"/>
   <polygon class="fil60" points="154450,-62220 117260,-45230 130240,-40910 159300,-39940 159120,-65450 "/>
   <path class="fil61" d="M-111110 228510l0 0c400,-650 -560,-480 490,-490 -1140,490 -10,-640 -490,490z"/>
   <polygon class="fil62" points="-13550,293880 118920,281780 "/>
   <path class="fil63" d="M-55140 297060l-2520 -23190c770,-500 -6850,-43090 -5810,-43590 -17610,13860 -35220,27710 -52820,41560l61150 25220z"/>
   <path class="fil64" d="M-13150 221510l-52510 4430c740,11350 3620,25990 4570,33020l5160 38130c38630,-1420 63520,-6900 102140,-8670 11310,-520 53340,-6640 72710,-6640 19370,0 67320,-5380 92160,-5380 -2450,-30430 -10360,-59380 -11660,-71340l-93570 5470c-40200,1510 -79650,7280 -119000,10980z"/>
   <path class="fil65" d="M12070 -62220c-1930,13560 -960,96860 1870,109370 4920,1050 16230,1860 20410,80 1630,-20500 -1010,-45700 -1460,-67290 -520,-19490 -1030,-38520 -1560,-58460 -5700,1770 -18250,16190 -19260,16300z"/>
   <path class="fil66" d="M90530 -83530c-1630,6940 -1460,82780 -970,124950 5300,1340 17360,650 20340,-970 -970,-37450 1940,-75550 -970,-112360 -5810,-4840 -11620,-8710 -18400,-11620z"/>
  </g>
 </g>
 <g id="Слой_x0020_1_8">
  <metadata id="CorelCorpID_1Corel-Layer"/>
 </g>
 <g id="Слой_x0020_1_0">
  <metadata id="CorelCorpID_2Corel-Layer"/>
 </g>
 <g id="Слой_x0020_1_0_9">
  <metadata id="CorelCorpID_3Corel-Layer"/>
 </g>
 <g id="Слой_x0020_1_0_3">
  <metadata id="CorelCorpID_4Corel-Layer"/>
 </g>
</svg>
