<?xml version="1.0" encoding="UTF-8"?>
<!DOCTYPE svg PUBLIC "-//W3C//DTD SVG 1.1//EN" "http://www.w3.org/Graphics/SVG/1.1/DTD/svg11.dtd">
<!-- Creator: CorelDRAW -->
<svg xmlns="http://www.w3.org/2000/svg" xml:space="preserve" width="56px" height="56px" version="1.1" style="shape-rendering:geometricPrecision; text-rendering:geometricPrecision; image-rendering:optimizeQuality; fill-rule:evenodd; clip-rule:evenodd"
viewBox="0 0 56000 56000"
 xmlns:xlink="http://www.w3.org/1999/xlink"
 xmlns:xodm="http://www.corel.com/coreldraw/odm/2003">
 <defs>
  <style type="text/css">
   <![CDATA[
    .fil58 {fill:none}
    .fil62 {fill:#AB711D}
    .fil0 {fill:#BD8333}
    .fil2 {fill:#C78C3A}
    .fil1 {fill:#C9892F}
    .fil60 {fill:#DEA555}
    .fil8 {fill:#E3A042}
    .fil9 {fill:#E3A043}
    .fil10 {fill:#E3A144}
    .fil11 {fill:#E3A145}
    .fil12 {fill:#E3A146}
    .fil13 {fill:#E3A147}
    .fil14 {fill:#E3A247}
    .fil15 {fill:#E3A248}
    .fil16 {fill:#E3A249}
    .fil17 {fill:#E3A34A}
    .fil18 {fill:#E3A34B}
    .fil19 {fill:#E3A34C}
    .fil20 {fill:#E3A44C}
    .fil21 {fill:#E3A44D}
    .fil22 {fill:#E3A44E}
    .fil23 {fill:#E3A54E}
    .fil24 {fill:#E3A54F}
    .fil25 {fill:#E3A64F}
    .fil26 {fill:#E4A64F}
    .fil27 {fill:#E4A650}
    .fil28 {fill:#E4A750}
    .fil5 {fill:#E4AB5C}
    .fil29 {fill:#E5A750}
    .fil30 {fill:#E6A850}
    .fil31 {fill:#E6A950}
    .fil4 {fill:#E6A953}
    .fil32 {fill:#E7A950}
    .fil33 {fill:#E7A951}
    .fil34 {fill:#E7AA51}
    .fil35 {fill:#E8AA51}
    .fil36 {fill:#E8AA52}
    .fil37 {fill:#E8AB52}
    .fil38 {fill:#E9AB53}
    .fil39 {fill:#E9AC53}
    .fil40 {fill:#E9AC54}
    .fil41 {fill:#EAAC54}
    .fil42 {fill:#EAAD55}
    .fil43 {fill:#EBAD55}
    .fil44 {fill:#EBAD56}
    .fil45 {fill:#EBAE56}
    .fil46 {fill:#ECAE57}
    .fil47 {fill:#ECAF57}
    .fil48 {fill:#ECAF58}
    .fil49 {fill:#EDAF58}
    .fil50 {fill:#EDB058}
    .fil51 {fill:#EDB059}
    .fil52 {fill:#EEB059}
    .fil53 {fill:#EEB15A}
    .fil54 {fill:#EEB15B}
    .fil61 {fill:#EEB565}
    .fil55 {fill:#EFB15B}
    .fil56 {fill:#EFB25B}
    .fil57 {fill:#EFB25C}
    .fil59 {fill:url(#id1)}
    .fil64 {fill:url(#id2)}
    .fil3 {fill:url(#id3)}
    .fil6 {fill:url(#id4)}
    .fil63 {fill:url(#id5)}
    .fil66 {fill:url(#id6)}
    .fil7 {fill:url(#id7)}
    .fil65 {fill:url(#id8)}
   ]]>
  </style>
     <clipPath id="id0">
      <path d="M28260 12170c-1230,90 -1850,130 -2460,180l200 9240 -2530 100 -120 -9160 -11160 990 580 32550c3300,-270 6320,10 10190,-750 4430,-660 8510,-760 12910,-1180l12660 -630 -550 -33200 -11850 1120 10 9270 -2200 60 -180 -9130c-410,-40 -5320,430 -5500,540z"/>
     </clipPath>
  <linearGradient id="id1" gradientUnits="userSpaceOnUse" x1="25380" y1="5430" x2="34250" y2="5430">
   <stop offset="0" style="stop-opacity:1; stop-color:#DB9A40"/>
   <stop offset="1" style="stop-opacity:1; stop-color:#EDB05A"/>
  </linearGradient>
  <linearGradient id="id2" gradientUnits="userSpaceOnUse" x1="31820" y1="53380" x2="30920" y2="44160">
   <stop offset="0" style="stop-opacity:1; stop-color:#C68D3D"/>
   <stop offset="1" style="stop-opacity:1; stop-color:#F0B25B"/>
  </linearGradient>
  <linearGradient id="id3" gradientUnits="userSpaceOnUse" x1="40800" y1="7690" x2="10020" y2="9850">
   <stop offset="0" style="stop-opacity:1; stop-color:#D68F2B"/>
   <stop offset="0.301961" style="stop-opacity:1; stop-color:#CD8A2B"/>
   <stop offset="0.490196" style="stop-opacity:1; stop-color:#C4842A"/>
   <stop offset="1" style="stop-opacity:1; stop-color:#C7801E"/>
  </linearGradient>
  <linearGradient id="id4" gradientUnits="userSpaceOnUse" x1="8920" y1="41700" x2="8480" y2="10480">
   <stop offset="0" style="stop-opacity:1; stop-color:#D49133"/>
   <stop offset="1" style="stop-opacity:1; stop-color:#E8A343"/>
  </linearGradient>
  <linearGradient id="id5" gradientUnits="userSpaceOnUse" x1="9320" y1="49800" x2="14450" y2="54960">
   <stop offset="0" style="stop-opacity:1; stop-color:#B67D2D"/>
   <stop offset="0.411765" style="stop-opacity:1; stop-color:#C78931"/>
   <stop offset="1" style="stop-opacity:1; stop-color:#D99536"/>
  </linearGradient>
  <linearGradient id="id6" gradientUnits="userSpaceOnUse" x1="34120" y1="20780" x2="35740" y2="-9200">
   <stop offset="0" style="stop-opacity:1; stop-color:#DB9739"/>
   <stop offset="1" style="stop-opacity:1; stop-color:#FDCE88"/>
  </linearGradient>
  <linearGradient id="id7" gradientUnits="userSpaceOnUse" x1="10950" y1="48520" x2="7080" y2="42130">
   <stop offset="0" style="stop-opacity:1; stop-color:#BF8B43"/>
   <stop offset="0.321569" style="stop-opacity:1; stop-color:#C78A35"/>
   <stop offset="1" style="stop-opacity:1; stop-color:#CF8927"/>
  </linearGradient>
  <linearGradient id="id8" gradientUnits="userSpaceOnUse" x1="22850" y1="7000" x2="23860" y2="21720">
   <stop offset="0" style="stop-opacity:1; stop-color:#EBAE59"/>
   <stop offset="1" style="stop-opacity:1; stop-color:#DB9739"/>
  </linearGradient>
 </defs>
 <g id="Слой_x0020_1">
  <metadata id="CorelCorpID_0Corel-Layer"/>
  <g id="_3027191609184">
   <path class="fil0" d="M30390 8140l2220 -390 -280 -6050 -1810 -1650c-1820,-130 -3390,0 -5350,390 -900,160 -1680,300 -3330,720 -420,320 -840,450 -1750,1500l2250 100c0,-20 3370,-60 4140,-100 1260,-180 2210,-220 3780,-520l130 6000z"/>
   <path class="fil1" d="M30390 8140l2220 -390c-90,-1960 -180,-3910 -280,-5870 -890,260 -1020,-140 -2070,260l130 6000z"/>
   <path class="fil2" d="M20090 2660l-130 6260 2340 -130 40 -6030c-690,-100 -1340,-100 -2250,-100z"/>
   <path class="fil3" d="M36040 11600l1400 -200 130 -1960 4820 -1830 630 -990 -6990 470 10 4510zm-10370 -3300l-40 4370 8230 -670 -80 -4580 -8110 880zm-2060 230c-7310,390 -8610,650 -16330,1130l9980 1260 -300 2310 6780 -270 -130 -4430z"/>
   <path class="fil4" d="M47610 10750l370 -440 -4960 -460 -5530 -600c-290,160 -310,1630 -180,2410 350,80 2760,-560 3130,-390 3000,200 3600,-460 7170,-520z"/>
   <path class="fil5" d="M17480 10810c-120,50 -5880,1710 -5610,3200 120,640 690,600 2090,520 630,-40 3540,220 3650,-520 130,-950 -260,-1440 -130,-3200z"/>
   <path class="fil6" d="M7120 42900l6310 -1370 -780 -22960 -460 -5050 5290 -2710c-3230,-320 -6500,-1030 -10200,-1150l-160 33240z"/>
   <path class="fil7" d="M6020 51890c300,-60 5950,-3930 7150,-5270l-390 -5480 -5520 880c-380,2660 -660,2620 -1240,9870z"/>
   <g>
    <g style="clip-path:url(#id0)">
     <polygon class="fil8" points="12190,10310 12920,10310 12920,46080 12190,46080 "/>
     <polygon id="_1" class="fil8" points="12840,10310 13070,10310 13070,46080 12840,46080 "/>
     <polygon id="_2" class="fil8" points="12990,10310 13220,10310 13220,46080 12990,46080 "/>
     <polygon id="_3" class="fil8" points="13140,10310 13370,10310 13370,46080 13140,46080 "/>
     <polygon id="_4" class="fil8" points="13290,10310 13520,10310 13520,46080 13290,46080 "/>
     <polygon id="_5" class="fil8" points="13440,10310 13670,10310 13670,46080 13440,46080 "/>
     <polygon id="_6" class="fil8" points="13590,10310 13820,10310 13820,46080 13590,46080 "/>
     <polygon id="_7" class="fil8" points="13740,10310 13970,10310 13970,46080 13740,46080 "/>
     <polygon id="_8" class="fil8" points="13890,10310 14120,10310 14120,46080 13890,46080 "/>
     <polygon id="_9" class="fil8" points="14040,10310 14270,10310 14270,46080 14040,46080 "/>
     <polygon id="_10" class="fil8" points="14200,10310 14420,10310 14420,46080 14200,46080 "/>
     <polygon id="_11" class="fil8" points="14350,10310 14570,10310 14570,46080 14350,46080 "/>
     <polygon id="_12" class="fil9" points="14500,10310 14720,10310 14720,46080 14500,46080 "/>
     <polygon id="_13" class="fil9" points="14650,10310 14870,10310 14870,46080 14650,46080 "/>
     <polygon id="_14" class="fil9" points="14800,10310 15020,10310 15020,46080 14800,46080 "/>
     <polygon id="_15" class="fil9" points="14950,10310 15180,10310 15180,46080 14950,46080 "/>
     <polygon id="_16" class="fil9" points="15100,10310 15330,10310 15330,46080 15100,46080 "/>
     <polygon id="_17" class="fil9" points="15250,10310 15480,10310 15480,46080 15250,46080 "/>
     <polygon id="_18" class="fil9" points="15400,10310 15630,10310 15630,46080 15400,46080 "/>
     <polygon id="_19" class="fil9" points="15550,10310 15780,10310 15780,46080 15550,46080 "/>
     <polygon id="_20" class="fil9" points="15700,10310 15930,10310 15930,46080 15700,46080 "/>
     <polygon id="_21" class="fil10" points="15850,10310 16080,10310 16080,46080 15850,46080 "/>
     <polygon id="_22" class="fil10" points="16000,10310 16230,10310 16230,46080 16000,46080 "/>
     <polygon id="_23" class="fil10" points="16150,10310 16380,10310 16380,46080 16150,46080 "/>
     <polygon id="_24" class="fil10" points="16310,10310 16530,10310 16530,46080 16310,46080 "/>
     <polygon id="_25" class="fil10" points="16460,10310 16680,10310 16680,46080 16460,46080 "/>
     <polygon id="_26" class="fil10" points="16610,10310 16830,10310 16830,46080 16610,46080 "/>
     <polygon id="_27" class="fil11" points="16760,10310 16980,10310 16980,46080 16760,46080 "/>
     <polygon id="_28" class="fil11" points="16910,10310 17130,10310 17130,46080 16910,46080 "/>
     <polygon id="_29" class="fil11" points="17060,10310 17280,10310 17280,46080 17060,46080 "/>
     <polygon id="_30" class="fil11" points="17210,10310 17430,10310 17430,46080 17210,46080 "/>
     <polygon id="_31" class="fil11" points="17360,10310 17590,10310 17590,46080 17360,46080 "/>
     <polygon id="_32" class="fil11" points="17510,10310 17740,10310 17740,46080 17510,46080 "/>
     <polygon id="_33" class="fil12" points="17660,10310 17890,10310 17890,46080 17660,46080 "/>
     <polygon id="_34" class="fil12" points="17810,10310 18040,10310 18040,46080 17810,46080 "/>
     <polygon id="_35" class="fil12" points="17960,10310 18190,10310 18190,46080 17960,46080 "/>
     <polygon id="_36" class="fil12" points="18110,10310 18340,10310 18340,46080 18110,46080 "/>
     <polygon id="_37" class="fil12" points="18260,10310 18490,10310 18490,46080 18260,46080 "/>
     <polygon id="_38" class="fil13" points="18410,10310 18640,10310 18640,46080 18410,46080 "/>
     <polygon id="_39" class="fil14" points="18570,10310 18790,10310 18790,46080 18570,46080 "/>
     <polygon id="_40" class="fil14" points="18720,10310 18940,10310 18940,46080 18720,46080 "/>
     <polygon id="_41" class="fil14" points="18870,10310 19090,10310 19090,46080 18870,46080 "/>
     <polygon id="_42" class="fil14" points="19020,10310 19240,10310 19240,46080 19020,46080 "/>
     <polygon id="_43" class="fil15" points="19170,10310 19390,10310 19390,46080 19170,46080 "/>
     <polygon id="_44" class="fil15" points="19320,10310 19540,10310 19540,46080 19320,46080 "/>
     <polygon id="_45" class="fil15" points="19470,10310 19690,10310 19690,46080 19470,46080 "/>
     <polygon id="_46" class="fil15" points="19620,10310 19850,10310 19850,46080 19620,46080 "/>
     <polygon id="_47" class="fil15" points="19770,10310 20000,10310 20000,46080 19770,46080 "/>
     <polygon id="_48" class="fil16" points="19920,10310 20150,10310 20150,46080 19920,46080 "/>
     <polygon id="_49" class="fil16" points="20070,10310 20300,10310 20300,46080 20070,46080 "/>
     <polygon id="_50" class="fil16" points="20220,10310 20450,10310 20450,46080 20220,46080 "/>
     <polygon id="_51" class="fil16" points="20370,10310 20600,10310 20600,46080 20370,46080 "/>
     <polygon id="_52" class="fil16" points="20520,10310 20750,10310 20750,46080 20520,46080 "/>
     <polygon id="_53" class="fil17" points="20670,10310 20900,10310 20900,46080 20670,46080 "/>
     <polygon id="_54" class="fil17" points="20820,10310 21050,10310 21050,46080 20820,46080 "/>
     <polygon id="_55" class="fil17" points="20970,10310 21200,10310 21200,46080 20970,46080 "/>
     <polygon id="_56" class="fil17" points="21130,10310 21350,10310 21350,46080 21130,46080 "/>
     <polygon id="_57" class="fil17" points="21280,10310 21500,10310 21500,46080 21280,46080 "/>
     <polygon id="_58" class="fil18" points="21430,10310 21650,10310 21650,46080 21430,46080 "/>
     <polygon id="_59" class="fil18" points="21580,10310 21800,10310 21800,46080 21580,46080 "/>
     <polygon id="_60" class="fil18" points="21730,10310 21950,10310 21950,46080 21730,46080 "/>
     <polygon id="_61" class="fil18" points="21880,10310 22100,10310 22100,46080 21880,46080 "/>
     <polygon id="_62" class="fil18" points="22030,10310 22250,10310 22250,46080 22030,46080 "/>
     <polygon id="_63" class="fil19" points="22180,10310 22410,10310 22410,46080 22180,46080 "/>
     <polygon id="_64" class="fil19" points="22330,10310 22560,10310 22560,46080 22330,46080 "/>
     <polygon id="_65" class="fil19" points="22480,10310 22710,10310 22710,46080 22480,46080 "/>
     <polygon id="_66" class="fil19" points="22630,10310 22860,10310 22860,46080 22630,46080 "/>
     <polygon id="_67" class="fil20" points="22780,10310 23010,10310 23010,46080 22780,46080 "/>
     <polygon id="_68" class="fil20" points="22930,10310 23160,10310 23160,46080 22930,46080 "/>
     <polygon id="_69" class="fil21" points="23080,10310 23310,10310 23310,46080 23080,46080 "/>
     <polygon id="_70" class="fil21" points="23240,10310 23460,10310 23460,46080 23240,46080 "/>
     <polygon id="_71" class="fil21" points="23390,10310 23610,10310 23610,46080 23390,46080 "/>
     <polygon id="_72" class="fil21" points="23540,10310 23760,10310 23760,46080 23540,46080 "/>
     <polygon id="_73" class="fil21" points="23690,10310 23910,10310 23910,46080 23690,46080 "/>
     <polygon id="_74" class="fil21" points="23840,10310 24060,10310 24060,46080 23840,46080 "/>
     <polygon id="_75" class="fil21" points="23990,10310 24210,10310 24210,46080 23990,46080 "/>
     <polygon id="_76" class="fil22" points="24140,10310 24360,10310 24360,46080 24140,46080 "/>
     <polygon id="_77" class="fil22" points="24290,10310 24520,10310 24520,46080 24290,46080 "/>
     <polygon id="_78" class="fil22" points="24440,10310 24670,10310 24670,46080 24440,46080 "/>
     <polygon id="_79" class="fil22" points="24590,10310 24820,10310 24820,46080 24590,46080 "/>
     <polygon id="_80" class="fil22" points="24740,10310 24970,10310 24970,46080 24740,46080 "/>
     <polygon id="_81" class="fil22" points="24890,10310 25120,10310 25120,46080 24890,46080 "/>
     <polygon id="_82" class="fil23" points="25040,10310 25270,10310 25270,46080 25040,46080 "/>
     <polygon id="_83" class="fil23" points="25190,10310 25420,10310 25420,46080 25190,46080 "/>
     <polygon id="_84" class="fil24" points="25340,10310 25570,10310 25570,46080 25340,46080 "/>
     <polygon id="_85" class="fil24" points="25490,10310 25720,10310 25720,46080 25490,46080 "/>
     <polygon id="_86" class="fil24" points="25640,10310 25870,10310 25870,46080 25640,46080 "/>
     <polygon id="_87" class="fil24" points="25800,10310 26020,10310 26020,46080 25800,46080 "/>
     <polygon id="_88" class="fil24" points="25950,10310 26170,10310 26170,46080 25950,46080 "/>
     <polygon id="_89" class="fil24" points="26100,10310 26320,10310 26320,46080 26100,46080 "/>
     <polygon id="_90" class="fil24" points="26250,10310 26470,10310 26470,46080 26250,46080 "/>
     <polygon id="_91" class="fil24" points="26400,10310 26620,10310 26620,46080 26400,46080 "/>
     <polygon id="_92" class="fil24" points="26550,10310 26780,10310 26780,46080 26550,46080 "/>
     <polygon id="_93" class="fil24" points="26700,10310 26930,10310 26930,46080 26700,46080 "/>
     <polygon id="_94" class="fil24" points="26850,10310 27080,10310 27080,46080 26850,46080 "/>
     <polygon id="_95" class="fil24" points="27000,10310 27230,10310 27230,46080 27000,46080 "/>
     <polygon id="_96" class="fil24" points="27150,10310 27380,10310 27380,46080 27150,46080 "/>
     <polygon id="_97" class="fil24" points="27300,10310 27530,10310 27530,46080 27300,46080 "/>
     <polygon id="_98" class="fil24" points="27450,10310 27680,10310 27680,46080 27450,46080 "/>
     <polygon id="_99" class="fil24" points="27600,10310 27830,10310 27830,46080 27600,46080 "/>
     <polygon id="_100" class="fil24" points="27750,10310 27980,10310 27980,46080 27750,46080 "/>
     <polygon id="_101" class="fil24" points="27900,10310 28130,10310 28130,46080 27900,46080 "/>
     <polygon id="_102" class="fil24" points="28060,10310 28280,10310 28280,46080 28060,46080 "/>
     <polygon id="_103" class="fil24" points="28210,10310 28430,10310 28430,46080 28210,46080 "/>
     <polygon id="_104" class="fil25" points="28360,10310 28580,10310 28580,46080 28360,46080 "/>
     <polygon id="_105" class="fil25" points="28510,10310 28730,10310 28730,46080 28510,46080 "/>
     <polygon id="_106" class="fil25" points="28660,10310 28880,10310 28880,46080 28660,46080 "/>
     <polygon id="_107" class="fil25" points="28810,10310 29030,10310 29030,46080 28810,46080 "/>
     <polygon id="_108" class="fil25" points="28960,10310 29180,10310 29180,46080 28960,46080 "/>
     <polygon id="_109" class="fil25" points="29110,10310 29340,10310 29340,46080 29110,46080 "/>
     <polygon id="_110" class="fil25" points="29260,10310 29490,10310 29490,46080 29260,46080 "/>
     <polygon id="_111" class="fil25" points="29410,10310 29640,10310 29640,46080 29410,46080 "/>
     <polygon id="_112" class="fil25" points="29560,10310 29790,10310 29790,46080 29560,46080 "/>
     <polygon id="_113" class="fil25" points="29710,10310 29940,10310 29940,46080 29710,46080 "/>
     <polygon id="_114" class="fil25" points="29860,10310 30090,10310 30090,46080 29860,46080 "/>
     <polygon id="_115" class="fil25" points="30010,10310 30240,10310 30240,46080 30010,46080 "/>
     <polygon id="_116" class="fil25" points="30170,10310 30390,10310 30390,46080 30170,46080 "/>
     <polygon id="_117" class="fil25" points="30320,10310 30540,10310 30540,46080 30320,46080 "/>
     <polygon id="_118" class="fil25" points="30470,10310 30690,10310 30690,46080 30470,46080 "/>
     <polygon id="_119" class="fil25" points="30620,10310 30840,10310 30840,46080 30620,46080 "/>
     <polygon id="_120" class="fil25" points="30770,10310 30990,10310 30990,46080 30770,46080 "/>
     <polygon id="_121" class="fil25" points="30920,10310 31140,10310 31140,46080 30920,46080 "/>
     <polygon id="_122" class="fil25" points="31070,10310 31290,10310 31290,46080 31070,46080 "/>
     <polygon id="_123" class="fil25" points="31220,10310 31450,10310 31450,46080 31220,46080 "/>
     <polygon id="_124" class="fil25" points="31370,10310 31600,10310 31600,46080 31370,46080 "/>
     <polygon id="_125" class="fil26" points="31520,10310 31750,10310 31750,46080 31520,46080 "/>
     <polygon id="_126" class="fil26" points="31670,10310 31900,10310 31900,46080 31670,46080 "/>
     <polygon id="_127" class="fil26" points="31820,10310 32050,10310 32050,46080 31820,46080 "/>
     <polygon id="_128" class="fil26" points="31970,10310 32200,10310 32200,46080 31970,46080 "/>
     <polygon id="_129" class="fil26" points="32120,10310 32350,10310 32350,46080 32120,46080 "/>
     <polygon id="_130" class="fil26" points="32270,10310 32500,10310 32500,46080 32270,46080 "/>
     <polygon id="_131" class="fil27" points="32420,10310 32650,10310 32650,46080 32420,46080 "/>
     <polygon id="_132" class="fil27" points="32570,10310 32800,10310 32800,46080 32570,46080 "/>
     <polygon id="_133" class="fil27" points="32730,10310 32950,10310 32950,46080 32730,46080 "/>
     <polygon id="_134" class="fil27" points="32880,10310 33100,10310 33100,46080 32880,46080 "/>
     <polygon id="_135" class="fil27" points="33030,10310 33250,10310 33250,46080 33030,46080 "/>
     <polygon id="_136" class="fil27" points="33180,10310 33400,10310 33400,46080 33180,46080 "/>
     <polygon id="_137" class="fil27" points="33330,10310 33550,10310 33550,46080 33330,46080 "/>
     <polygon id="_138" class="fil27" points="33480,10310 33700,10310 33700,46080 33480,46080 "/>
     <polygon id="_139" class="fil27" points="33630,10310 33850,10310 33850,46080 33630,46080 "/>
     <polygon id="_140" class="fil27" points="33780,10310 34010,10310 34010,46080 33780,46080 "/>
     <polygon id="_141" class="fil27" points="33930,10310 34160,10310 34160,46080 33930,46080 "/>
     <polygon id="_142" class="fil27" points="34080,10310 34310,10310 34310,46080 34080,46080 "/>
     <polygon id="_143" class="fil27" points="34230,10310 34460,10310 34460,46080 34230,46080 "/>
     <polygon id="_144" class="fil28" points="34380,10310 34610,10310 34610,46080 34380,46080 "/>
     <polygon id="_145" class="fil28" points="34530,10310 34760,10310 34760,46080 34530,46080 "/>
     <polygon id="_146" class="fil28" points="34680,10310 34910,10310 34910,46080 34680,46080 "/>
     <polygon id="_147" class="fil28" points="34830,10310 35060,10310 35060,46080 34830,46080 "/>
     <polygon id="_148" class="fil29" points="34990,10310 35210,10310 35210,46080 34990,46080 "/>
     <polygon id="_149" class="fil29" points="35140,10310 35360,10310 35360,46080 35140,46080 "/>
     <polygon id="_150" class="fil29" points="35290,10310 35510,10310 35510,46080 35290,46080 "/>
     <polygon id="_151" class="fil29" points="35440,10310 35660,10310 35660,46080 35440,46080 "/>
     <polygon id="_152" class="fil29" points="35590,10310 35810,10310 35810,46080 35590,46080 "/>
     <polygon id="_153" class="fil29" points="35740,10310 35960,10310 35960,46080 35740,46080 "/>
     <polygon id="_154" class="fil29" points="35890,10310 36110,10310 36110,46080 35890,46080 "/>
     <polygon id="_155" class="fil29" points="36040,10310 36270,10310 36270,46080 36040,46080 "/>
     <polygon id="_156" class="fil29" points="36190,10310 36420,10310 36420,46080 36190,46080 "/>
     <polygon id="_157" class="fil29" points="36340,10310 36570,10310 36570,46080 36340,46080 "/>
     <polygon id="_158" class="fil29" points="36490,10310 36720,10310 36720,46080 36490,46080 "/>
     <polygon id="_159" class="fil29" points="36640,10310 36870,10310 36870,46080 36640,46080 "/>
     <polygon id="_160" class="fil29" points="36790,10310 37020,10310 37020,46080 36790,46080 "/>
     <polygon id="_161" class="fil29" points="36940,10310 37170,10310 37170,46080 36940,46080 "/>
     <polygon id="_162" class="fil29" points="37090,10310 37320,10310 37320,46080 37090,46080 "/>
     <polygon id="_163" class="fil30" points="37240,10310 37470,10310 37470,46080 37240,46080 "/>
     <polygon id="_164" class="fil30" points="37400,10310 37620,10310 37620,46080 37400,46080 "/>
     <polygon id="_165" class="fil30" points="37550,10310 37770,10310 37770,46080 37550,46080 "/>
     <polygon id="_166" class="fil30" points="37700,10310 37920,10310 37920,46080 37700,46080 "/>
     <polygon id="_167" class="fil30" points="37850,10310 38070,10310 38070,46080 37850,46080 "/>
     <polygon id="_168" class="fil30" points="38000,10310 38220,10310 38220,46080 38000,46080 "/>
     <polygon id="_169" class="fil30" points="38150,10310 38380,10310 38380,46080 38150,46080 "/>
     <polygon id="_170" class="fil30" points="38300,10310 38530,10310 38530,46080 38300,46080 "/>
     <polygon id="_171" class="fil30" points="38450,10310 38680,10310 38680,46080 38450,46080 "/>
     <polygon id="_172" class="fil30" points="38600,10310 38830,10310 38830,46080 38600,46080 "/>
     <polygon id="_173" class="fil30" points="38750,10310 38980,10310 38980,46080 38750,46080 "/>
     <polygon id="_174" class="fil31" points="38900,10310 39130,10310 39130,46080 38900,46080 "/>
     <polygon id="_175" class="fil32" points="39050,10310 39280,10310 39280,46080 39050,46080 "/>
     <polygon id="_176" class="fil33" points="39200,10310 39430,10310 39430,46080 39200,46080 "/>
     <polygon id="_177" class="fil33" points="39350,10310 39580,10310 39580,46080 39350,46080 "/>
     <polygon id="_178" class="fil33" points="39500,10310 39730,10310 39730,46080 39500,46080 "/>
     <polygon id="_179" class="fil33" points="39660,10310 39880,10310 39880,46080 39660,46080 "/>
     <polygon id="_180" class="fil33" points="39810,10310 40030,10310 40030,46080 39810,46080 "/>
     <polygon id="_181" class="fil33" points="39960,10310 40180,10310 40180,46080 39960,46080 "/>
     <polygon id="_182" class="fil34" points="40110,10310 40330,10310 40330,46080 40110,46080 "/>
     <polygon id="_183" class="fil35" points="40260,10310 40480,10310 40480,46080 40260,46080 "/>
     <polygon id="_184" class="fil35" points="40410,10310 40630,10310 40630,46080 40410,46080 "/>
     <polygon id="_185" class="fil36" points="40560,10310 40780,10310 40780,46080 40560,46080 "/>
     <polygon id="_186" class="fil36" points="40710,10310 40940,10310 40940,46080 40710,46080 "/>
     <polygon id="_187" class="fil36" points="40860,10310 41090,10310 41090,46080 40860,46080 "/>
     <polygon id="_188" class="fil36" points="41010,10310 41240,10310 41240,46080 41010,46080 "/>
     <polygon id="_189" class="fil37" points="41160,10310 41390,10310 41390,46080 41160,46080 "/>
     <polygon id="_190" class="fil37" points="41310,10310 41540,10310 41540,46080 41310,46080 "/>
     <polygon id="_191" class="fil38" points="41460,10310 41690,10310 41690,46080 41460,46080 "/>
     <polygon id="_192" class="fil38" points="41610,10310 41840,10310 41840,46080 41610,46080 "/>
     <polygon id="_193" class="fil38" points="41760,10310 41990,10310 41990,46080 41760,46080 "/>
     <polygon id="_194" class="fil38" points="41910,10310 42140,10310 42140,46080 41910,46080 "/>
     <polygon id="_195" class="fil39" points="42060,10310 42290,10310 42290,46080 42060,46080 "/>
     <polygon id="_196" class="fil40" points="42220,10310 42440,10310 42440,46080 42220,46080 "/>
     <polygon id="_197" class="fil41" points="42370,10310 42590,10310 42590,46080 42370,46080 "/>
     <polygon id="_198" class="fil41" points="42520,10310 42740,10310 42740,46080 42520,46080 "/>
     <polygon id="_199" class="fil41" points="42670,10310 42890,10310 42890,46080 42670,46080 "/>
     <polygon id="_200" class="fil41" points="42820,10310 43040,10310 43040,46080 42820,46080 "/>
     <polygon id="_201" class="fil42" points="42970,10310 43200,10310 43200,46080 42970,46080 "/>
     <polygon id="_202" class="fil42" points="43120,10310 43350,10310 43350,46080 43120,46080 "/>
     <polygon id="_203" class="fil42" points="43270,10310 43500,10310 43500,46080 43270,46080 "/>
     <polygon id="_204" class="fil43" points="43420,10310 43650,10310 43650,46080 43420,46080 "/>
     <polygon id="_205" class="fil43" points="43570,10310 43800,10310 43800,46080 43570,46080 "/>
     <polygon id="_206" class="fil44" points="43720,10310 43950,10310 43950,46080 43720,46080 "/>
     <polygon id="_207" class="fil45" points="43870,10310 44100,10310 44100,46080 43870,46080 "/>
     <polygon id="_208" class="fil45" points="44020,10310 44250,10310 44250,46080 44020,46080 "/>
     <polygon id="_209" class="fil45" points="44170,10310 44400,10310 44400,46080 44170,46080 "/>
     <polygon id="_210" class="fil46" points="44330,10310 44550,10310 44550,46080 44330,46080 "/>
     <polygon id="_211" class="fil46" points="44480,10310 44700,10310 44700,46080 44480,46080 "/>
     <polygon id="_212" class="fil46" points="44630,10310 44850,10310 44850,46080 44630,46080 "/>
     <polygon id="_213" class="fil47" points="44780,10310 45000,10310 45000,46080 44780,46080 "/>
     <polygon id="_214" class="fil47" points="44930,10310 45150,10310 45150,46080 44930,46080 "/>
     <polygon id="_215" class="fil48" points="45080,10310 45300,10310 45300,46080 45080,46080 "/>
     <polygon id="_216" class="fil48" points="45230,10310 45450,10310 45450,46080 45230,46080 "/>
     <polygon id="_217" class="fil49" points="45380,10310 45610,10310 45610,46080 45380,46080 "/>
     <polygon id="_218" class="fil49" points="45530,10310 45760,10310 45760,46080 45530,46080 "/>
     <polygon id="_219" class="fil50" points="45680,10310 45910,10310 45910,46080 45680,46080 "/>
     <polygon id="_220" class="fil51" points="45830,10310 46060,10310 46060,46080 45830,46080 "/>
     <polygon id="_221" class="fil51" points="45980,10310 46210,10310 46210,46080 45980,46080 "/>
     <polygon id="_222" class="fil51" points="46130,10310 46360,10310 46360,46080 46130,46080 "/>
     <polygon id="_223" class="fil51" points="46280,10310 46510,10310 46510,46080 46280,46080 "/>
     <polygon id="_224" class="fil52" points="46430,10310 46660,10310 46660,46080 46430,46080 "/>
     <polygon id="_225" class="fil53" points="46590,10310 46810,10310 46810,46080 46590,46080 "/>
     <polygon id="_226" class="fil53" points="46740,10310 46960,10310 46960,46080 46740,46080 "/>
     <polygon id="_227" class="fil53" points="46890,10310 47110,10310 47110,46080 46890,46080 "/>
     <polygon id="_228" class="fil53" points="47040,10310 47260,10310 47260,46080 47040,46080 "/>
     <polygon id="_229" class="fil53" points="47190,10310 47410,10310 47410,46080 47190,46080 "/>
     <polygon id="_230" class="fil54" points="47340,10310 47560,10310 47560,46080 47340,46080 "/>
     <polygon id="_231" class="fil54" points="47490,10310 47710,10310 47710,46080 47490,46080 "/>
     <polygon id="_232" class="fil55" points="47640,10310 47870,10310 47870,46080 47640,46080 "/>
     <polygon id="_233" class="fil56" points="47790,10310 48020,10310 48020,46080 47790,46080 "/>
     <polygon id="_234" class="fil56" points="47940,10310 48170,10310 48170,46080 47940,46080 "/>
     <polygon id="_235" class="fil56" points="48090,10310 48320,10310 48320,46080 48090,46080 "/>
     <polygon id="_236" class="fil57" points="48240,10310 48470,10310 48470,46080 48240,46080 "/>
     <polygon id="_237" class="fil57" points="48390,10310 48620,10310 48620,46080 48390,46080 "/>
     <polygon id="_238" class="fil57" points="48540,10310 48530,10310 48530,46080 48540,46080 "/>
    </g>
   </g>
   <polyline class="fil58" points="12350,29370 12300,29340 11970,47370 11810,47300 13160,52830 13090,52840 13090,51980 "/>
   <path class="fil59" d="M25570 4750c-400,910 -60,1360 70,2010 1700,-650 8030,-590 8540,-1100 170,-60 40,-1570 -390,-1570 -2870,0 -5750,660 -8220,660z"/>
   <polygon class="fil60" points="42390,6960 37390,9250 39130,9830 43050,9960 43020,6530 "/>
   <path class="fil61" d="M6630 46120l0 0c50,-90 -80,-60 60,-70 -150,70 0,-80 -60,70z"/>
   <polygon class="fil62" points="19770,54930 37610,53300 "/>
   <path class="fil63" d="M14170 55350l-340 -3120c100,-70 -930,-5800 -790,-5870 -2370,1870 -4740,3730 -7110,5600l8240 3390z"/>
   <path class="fil64" d="M19820 45180l-7070 590c100,1530 490,3510 610,4450l700 5140c5200,-190 8560,-930 13760,-1170 1520,-70 7180,-890 9790,-890 2610,0 9070,-730 12410,-730 -330,-4100 -1390,-8000 -1570,-9610l-12600 740c-5420,200 -10730,980 -16030,1480z"/>
   <path class="fil65" d="M23220 6960c-260,1830 -130,13050 250,14730 660,140 2190,250 2750,10 220,-2760 -140,-6150 -200,-9060 -70,-2620 -140,-5190 -210,-7870 -770,240 -2460,2180 -2590,2190z"/>
   <path class="fil66" d="M33790 4090c-220,940 -200,11150 -140,16830 720,180 2340,90 2740,-130 -130,-5040 270,-10170 -130,-15130 -780,-650 -1560,-1180 -2470,-1570z"/>
  </g>
 </g>
 <g id="Слой_x0020_1_10">
  <metadata id="CorelCorpID_1Corel-Layer"/>
 </g>
 <g id="Слой_x0020_1_0">
  <metadata id="CorelCorpID_2Corel-Layer"/>
 </g>
 <g id="Слой_x0020_1_0_11">
  <metadata id="CorelCorpID_3Corel-Layer"/>
 </g>
 <g id="Слой_x0020_1_0_3">
  <metadata id="CorelCorpID_4Corel-Layer"/>
 </g>
</svg>
