<?xml version="1.0" encoding="UTF-8"?>
<!DOCTYPE svg PUBLIC "-//W3C//DTD SVG 1.1//EN" "http://www.w3.org/Graphics/SVG/1.1/DTD/svg11.dtd">
<!-- Creator: CorelDRAW -->
<svg xmlns="http://www.w3.org/2000/svg" xml:space="preserve" width="56px" height="56px" version="1.1" style="shape-rendering:geometricPrecision; text-rendering:geometricPrecision; image-rendering:optimizeQuality; fill-rule:evenodd; clip-rule:evenodd"
viewBox="0 0 56000 56000"
 xmlns:xlink="http://www.w3.org/1999/xlink"
 xmlns:xodm="http://www.corel.com/coreldraw/odm/2003">
 <defs>
  <style type="text/css">
   <![CDATA[
    .fil12 {fill:#940D01}
    .fil20 {fill:#951303}
    .fil18 {fill:#96150B}
    .fil32 {fill:#9A1506}
    .fil6 {fill:#9A150A}
    .fil31 {fill:#9A150F}
    .fil9 {fill:#9C1303}
    .fil7 {fill:#9D160A}
    .fil30 {fill:#A3140A}
    .fil26 {fill:#C76834}
    .fil1 {fill:#DDDBDA}
    .fil24 {fill:#EFD8E0}
    .fil23 {fill:#F8948D}
    .fil29 {fill:#F8F6F7}
    .fil3 {fill:#F99E59}
    .fil21 {fill:#F9A75C}
    .fil16 {fill:#FAA156}
    .fil14 {fill:#FAA15A}
    .fil5 {fill:#FB9F58}
    .fil19 {fill:#FBA057}
    .fil10 {fill:#FBA058}
    .fil22 {fill:#FBAD90}
    .fil28 {fill:#FBB3AD}
    .fil27 {fill:#FBEAE7}
    .fil15 {fill:#FCC475}
    .fil13 {fill:#FDA159}
    .fil11 {fill:#FDC175}
    .fil17 {fill:#FDC679}
    .fil25 {fill:#FDD3CE}
    .fil8 {fill:#FDDA8F}
    .fil4 {fill:#FEDA8F}
    .fil2 {fill:#FFBA71}
    .fil0 {fill:white}
   ]]>
  </style>
 </defs>
 <g id="Слой_x0020_1">
  <metadata id="CorelCorpID_0Corel-Layer"/>
 </g>
 <g id="Слой_x0020_1_0">
  <metadata id="CorelCorpID_1Corel-Layer"/>
 </g>
 <g id="Слой_x0020_1_0_18">
  <metadata id="CorelCorpID_2Corel-Layer"/>
 </g>
 <g id="Слой_x0020_1_0_3">
  <metadata id="CorelCorpID_3Corel-Layer"/>
  <path class="fil0" d="M52090 2290c610,-90 1310,220 1840,990 360,530 690,1340 530,1920 460,1030 -730,3490 -1410,4360 -2490,3160 -5630,2080 -7770,4940 -660,870 -1510,3470 -1220,4500 670,-1170 240,-3450 3160,-5190 1650,-980 3260,-740 5020,-2130 1730,-1370 2900,-3240 2950,-5450 80,-3160 -2040,-4380 -3020,-4190 -1000,190 -1540,830 -2050,1420 -330,-230 -1940,-2680 -3960,-1240 -2010,1440 -1360,3700 -1510,4040 360,740 440,1260 1000,1970 500,650 1380,1350 2140,1530 -400,-620 -1380,-1040 -1980,-2190 -850,-1630 -530,-4180 1220,-4910 860,-360 1800,260 2540,1120 370,420 560,1010 560,1440 220,170 120,170 260,-80l0 -50c-120,-280 -40,-1300 140,-1710 240,-540 960,-1000 1560,-1090z"/>
  <path class="fil0" d="M27110 10920l30 1270 410 -670c-140,-1440 2270,-2780 3390,-930 870,1430 350,3020 -620,4220l-1190 990c590,-40 1730,-910 2110,-1390 460,-580 700,-1220 810,-1910 440,-2660 -1540,-3220 -1940,-3590 -490,70 -990,30 -1460,290 -590,340 -780,740 -1230,1070 -390,-600 -320,-620 -880,-1130 -2940,-1330 -4540,3050 -2850,6260 1500,2840 3600,2890 5290,3610l1350 730c30,20 200,170 200,170 340,180 -10,30 310,60 -960,-2020 -3610,-2220 -5280,-3710 -1930,-1720 -2480,-5130 -1420,-5990 -10,-200 -160,70 80,-300 30,-60 220,-230 260,-270 1310,-1160 2930,100 2630,1220z"/>
  <path class="fil0" d="M38500 19000c10,-1860 870,-2640 670,-5390 -160,-2120 -980,-2960 -1170,-4610 350,230 70,-130 590,510 2140,2680 1850,9120 -90,9490z"/>
  <path class="fil1" d="M51210 17660l-150 320c-10,-20 -120,120 -20,-170 90,-250 -20,-30 170,-150z"/>
  <g id="_3028619025600">
   <path class="fil2" d="M5380 29750c-420,430 -80,2570 20,3230 430,3880 2280,7520 4830,10450 6350,7270 18490,10670 28000,9840 2100,-190 2400,190 6520,-1010 8550,-2940 8930,-3160 9500,-3690 1530,-1430 950,-7090 470,-8840 -1890,-4500 -1660,-6400 -7860,-11130 -2310,-1730 -8390,-7310 -22810,-6280 -3250,530 -11400,-240 -18670,7430z"/>
   <path class="fil3" d="M1300 42030c80,2020 370,10720 14660,13350 3820,600 9280,830 13190,690 2930,220 16920,-1210 18720,-2490 2120,-710 3300,-1180 4250,-2010 2230,-2010 2740,-3770 2380,-3580 -3390,1820 -5290,2470 -6760,2990 -3130,1250 -6180,1990 -9510,2290 -9510,830 -21650,-2570 -28000,-9840 -2550,-2930 -5360,-9150 -4850,-12830 -430,530 -3310,2960 -3750,6290 -550,2720 -390,3610 -330,5140z"/>
   <path class="fil4" d="M28100 29820c-1790,-720 -3300,-1680 -5250,-2300 -930,-340 -2850,1730 -3560,2310l-4750 4450c190,760 3260,2530 4040,2980 1720,1000 3770,2000 5610,2770 870,-1330 1660,-2300 2600,-3540 570,-760 2430,-2540 3190,-3100l1710 -1330c-200,-500 -3270,-2120 -3590,-2240z"/>
   <path class="fil4" d="M26860 41100c1210,360 2530,790 3730,1090 1150,300 2250,550 3420,770 2550,480 5140,680 7740,600 150,-770 -2910,-4730 -3060,-5110 -540,-700 -3010,-3390 -3440,-3540 -570,-60 -6420,4250 -7610,5260 -250,210 -980,600 -780,930z"/>
   <path class="fil5" d="M24920 25640l70 -110c300,-350 2240,-1410 2770,-1690 490,-260 1000,-520 1500,-750 470,-220 1080,-700 1570,-390 930,600 1810,1160 2720,1780 900,610 1690,1350 2530,1950l2230 1960 -150 140c250,30 270,-110 130,820 -300,220 -1870,830 -2360,1060 -3230,1530 -1380,1700 -4340,-230 -2870,-1860 -3990,-2190 -6800,-3680 -40,-260 -60,-710 130,-860zm1620 14320c60,-100 1200,-1370 1480,-1650 1690,-1690 3630,-3320 5620,-4620 2360,-1540 6610,-3780 9340,-4290 690,-240 3250,-840 3880,-800l-910 -730 -320 -200c-930,-200 -2860,530 -3810,570l-490 -540c-80,60 -760,-360 -850,-500 -580,-190 -3280,-2840 -3570,-3400l-430 -390c-420,-330 -5500,-990 -6330,-1020 210,160 130,110 460,100 -1620,-20 -1080,-300 -2520,490 -340,180 -1880,1140 -2070,1150 -130,180 -2680,1830 -3110,2140 -2100,1500 -3800,3000 -5640,4780 -520,500 -2220,2270 -2510,2820l100 0 4430 -4040c560,-450 1090,-920 1660,-1380 270,-210 540,-430 820,-650 440,-350 490,-550 1080,-280 920,290 1890,710 2780,1100 790,340 1960,1030 2690,1280 210,320 3170,1660 3370,2160 90,170 40,730 -80,900 -70,90 -510,390 -630,490 -430,310 -850,680 -1270,1010 -400,250 -1590,1410 -1930,1770 -290,310 -630,660 -910,990 -210,250 -620,790 -840,1000 -1190,1320 -3210,4750 -3680,6480 240,-140 890,-790 1190,-1050 490,-420 630,-630 980,-1150 340,-500 1850,-2240 2020,-2540z"/>
   <path class="fil4" d="M48560 40320l-40 670 -420 -790c-550,-450 -2550,-3470 -3170,-4300 -630,-820 -2630,-3500 -3310,-4020 -290,-130 -4280,1590 -4350,1980 360,530 1310,1410 1790,1990 570,690 1070,1460 1560,2230 940,1520 1780,3620 2140,5380 220,80 90,40 360,20 160,-10 300,-20 460,-40 330,-40 630,-60 970,-80l-30 -220c60,-520 100,-1330 840,-1220 420,50 1030,490 1290,800 360,270 640,130 1110,0 2210,-600 3960,-1280 5940,-2410 220,-120 710,-580 780,-340l-10 -370c40,-290 -220,-1370 -340,-1650l-230 -770 -940 -2770c-100,-230 -200,-550 -340,-750l-1290 -1790c-160,-250 0,-110 -370,-460 -380,-370 -220,-500 -1290,-1390l-510 70 -410 90c-500,-20 -680,50 -1190,80 -510,100 -1040,170 -1560,270 -260,40 -530,110 -780,170 -240,60 -670,60 -720,290 770,1130 1430,2250 1990,3530 290,640 550,1270 790,1930 130,350 1180,3970 1280,3870z"/>
   <path class="fil4" d="M13200 31710c300,-270 1280,-2030 2310,-2890 260,-210 400,-460 680,-690 260,-210 490,-440 760,-660 440,-360 1250,-840 1600,-1180l-10 -80 -5030 -970c-260,0 -1170,330 -1370,500 90,260 -180,1080 -200,1490 -40,640 -30,1260 60,1880 60,510 600,2740 990,2860l210 -260z"/>
   <path class="fil6" d="M38160 28530l-370 120c-90,70 -1820,850 -2100,980 -2840,1370 -1020,1610 -4040,-340 -2630,-1700 -3960,-2250 -6730,-3650 -190,150 -170,600 -130,860 2810,1490 3930,1820 6800,3680 2960,1930 1110,1760 4340,230 490,-230 2060,-840 2360,-1060 140,-930 120,-790 -130,-820z"/>
   <path class="fil7" d="M53930 37380l310 1100c120,280 270,830 230,1120l50 200c390,520 650,4530 550,5310 -60,880 -210,2090 -570,2880l-500 1160c-840,1190 -1250,1820 -2530,2600 -910,550 -2600,1270 -3630,1530 -100,100 30,70 -170,40 130,180 -50,30 120,110 20,10 200,50 210,60l180 -10c-120,90 -90,-10 10,110 -60,40 -290,80 -400,180 -130,110 -60,-80 -90,130l510 -80c520,0 200,-80 530,-120l180 -90 140 -30c0,-90 -20,-60 100,-60l460 -180 130 -60c70,-40 290,-150 350,-170l120 -70 150 -50 90 -60 150 -60 90 -50 120 -70 110 -70c130,-100 350,-260 510,-280 0,-90 -20,-60 80,-60l150 -60c0,-100 -20,-70 90,-70l280 -170c0,-90 -20,-70 80,-70l270 -160c0,-100 -20,-70 80,-70l60 -50 60 -60 270 -180c0,-90 -10,-60 90,-60l50 -60 -20 -80c-190,-40 -140,-50 -260,-160l1080 -1330c350,-490 1120,-2060 1170,-2700 130,-30 190,160 160,0 -40,-270 -20,-300 80,-420 180,230 180,200 200,530 20,300 -60,290 140,370 60,-300 60,90 110,-300 30,-220 -40,-220 60,-410l70 -160 60 -550c0,-120 -40,-100 60,-100 0,-840 150,-2180 -80,-2900 -80,-270 -10,-450 -50,-720 -60,-410 -40,130 -110,-660 -20,-210 -240,-880 -240,-1280l-20 0c-20,380 30,80 -140,210l-50 -410c-210,70 -160,100 -100,340 20,-190 -110,-590 -140,-860 -250,150 -110,60 -250,270 230,-130 -210,-20 190,-210 -50,-280 -120,-470 -180,-720l-80 -240c-10,-20 -20,-30 -20,-50 -10,-10 -10,-20 -20,-40l-450 -1540 -270 -30 30 200zm-13720 17840l-1710 370c280,0 560,10 830,10 480,-10 240,-130 760,-130 230,0 630,30 830,0 430,-60 -120,-100 780,-110l1480 -240c210,0 200,10 370,-40 210,-70 870,-200 1170,-190l110 -120 -80 -100c250,-390 610,-260 1010,-450 270,-130 150,-110 550,-160 320,-30 380,-80 580,-120 -60,-680 110,-330 -300,-630l-270 -590c200,-90 730,-430 850,-390 410,150 320,650 520,940l50 -100c10,-740 -380,-1350 -1150,-860 -970,630 30,1030 140,1320 -830,420 -5300,1280 -6520,1590zm6680 -1280c270,10 550,-110 720,-230 210,-150 -60,-10 80,-40 10,0 30,0 40,0l270 -180c-10,-10 -190,-50 -210,-60 -170,-80 10,70 -120,-110l20 -50c-200,-290 -110,-790 -520,-940 -120,-40 -650,300 -850,390l270 590c410,300 240,-50 300,630zm0 0c-200,40 -260,90 -580,120 -400,50 -280,30 -550,160 -400,190 -760,60 -1010,450l80 100c730,0 940,-240 1340,-240l140 -70c160,-80 270,-40 480,-110l1150 -380c20,-10 120,-50 140,-60 180,-100 -30,110 130,-90l-510 80c30,-210 -40,-20 90,-130 110,-100 340,-140 400,-180 -100,-120 -130,-20 -10,-110l-180 10 -270 180c-10,0 -30,0 -40,0 -140,30 130,-110 -80,40 -170,120 -450,240 -720,230zm6090 -2690c-10,-570 540,-380 1370,-1690l130 -160c170,-220 160,-160 230,-440l250 -60c170,30 80,10 160,-130 110,-170 40,-130 140,-280l50 -90c0,-280 220,-570 240,-860 -200,-80 -120,-70 -140,-370 -20,-330 -20,-300 -200,-530 -100,120 -120,150 -80,420 30,160 -30,-30 -160,0 -50,640 -820,2210 -1170,2700l-1080 1330c120,110 70,120 260,160zm0 0l80 20 50 -60 70 -50c150,-150 200,-280 410,-300l70 -60 50 -60 60 -60 60 -60 60 -60 60 -60 60 -50 60 -70 60 -50 60 -60 60 -60c20,-230 140,-260 300,-420l50 -60c30,-200 60,-170 180,-290l60 -70c40,-320 10,-10 120,-280l0 -190 -250 60c-70,280 -60,220 -230,440l-130 160c-830,1310 -1380,1120 -1370,1690zm920 -14070l270 30 450 1540c10,20 10,30 20,40 0,20 10,30 20,50l80 240c60,250 130,440 180,720 -400,190 40,80 -190,210 140,-210 0,-120 250,-270 30,270 160,670 140,860 -60,-240 -110,-270 100,-340l50 410c170,-130 120,170 140,-210l-50 -140c-70,-140 -280,-1000 -280,-1210 -90,0 -60,20 -60,-90 -40,-70 -420,-1230 -420,-1330 -90,0 -60,20 -60,-90l-50 -270c-100,0 -70,20 -70,-90 -90,-150 -170,-300 -170,-500 -90,0 -60,10 -60,-90 -80,-130 -290,-540 -300,-710l-80 -120 -40 -150c-90,0 -60,20 -60,-90l-50 -140c-100,0 -60,10 -60,-90l-60 -160 -60 -80 -60 -150 -60 -90 -60 -160 -50 -70c-220,-220 -130,-290 -310,-360l0 90 960 2810z"/>
   <path class="fil8" d="M42290 27530c850,-350 2880,-350 3430,-590 -40,-180 -250,-270 -390,-380 -10,0 -180,-130 -210,-150l-2990 -1630c-440,-210 -970,-360 -1380,-560l-2580 -830c-140,230 1330,1620 1750,2010 360,590 1550,1570 1900,2130l470 0z"/>
   <path class="fil4" d="M24920 25640c1620,1300 4100,1950 6730,3650 3020,1950 1200,1710 4040,340 750,-360 1510,-560 2170,-1000 60,-40 400,-190 450,-240l-2060 -1810c-850,-600 -1800,-1490 -2700,-2100 -910,-620 -1790,-1180 -2720,-1780 -490,-310 -1100,170 -1570,390 -500,230 -1010,490 -1500,750 -530,280 -2760,1560 -2840,1800z"/>
   <path class="fil9" d="M48100 40200l420 790 50 -60 -590 -2450c-210,-370 -510,-1530 -700,-2030 -240,-660 -500,-1290 -790,-1930 -560,-1280 -1220,-2400 -1990,-3530l-110 -60c-160,950 430,1540 870,2330 930,1660 2620,5260 2840,6940z"/>
   <path class="fil10" d="M35460 46920c110,-450 320,-620 230,-1190 -100,-540 -400,-690 -480,-960 -400,-180 -750,-550 -1140,0 -470,630 -420,1790 260,2270 530,380 740,120 1130,-120z"/>
   <path class="fil11" d="M37340 40380c240,1630 1970,1030 1860,0 -100,-1000 -2130,-1710 -1860,0z"/>
   <path class="fil11" d="M52040 35700l200 -80c220,-440 570,-730 90,-1320 -840,-1000 -2020,-460 -1480,900 250,660 560,600 1190,500z"/>
   <path class="fil8" d="M21360 22530c-270,120 -740,290 -1020,400 -450,170 -810,250 -1250,450 -260,110 1660,600 1910,690 710,260 500,280 1150,-100 730,-410 1440,-780 2170,-1160 360,-190 1340,-580 1550,-840 -760,0 -2460,130 -3170,240 -470,70 -950,150 -1340,320z"/>
   <path class="fil10" d="M8770 33300c190,-300 280,-290 230,-720 -40,-420 -240,-480 -280,-660 -330,-130 -500,-330 -930,-210 -330,90 -410,400 -370,720 90,700 700,1030 1350,870z"/>
   <path class="fil10" d="M17710 40930l260 -200c190,-390 450,-740 230,-1190 -470,-680 -2110,630 -1420,1360 240,260 640,90 930,30z"/>
   <path class="fil12" d="M26030 38220c220,-210 630,-750 840,-1000 280,-330 620,-680 910,-990 340,-360 1530,-1520 1930,-1770 420,-320 840,-690 1270,-1010 120,-100 560,-400 630,-490 120,-170 170,-730 80,-900l-1800 1400c-760,570 -2530,2270 -3100,3030 -430,570 -930,1110 -1370,1710 -430,590 -820,1210 -1230,1830l-250 530c-380,290 -1940,3960 -1930,4470l340 -330c470,-1730 2490,-5160 3680,-6480z"/>
   <path class="fil11" d="M33620 26950l210 -180c10,160 -70,140 200,110 360,-50 100,-70 310,-200 40,60 170,390 170,400l20 330c-10,150 -10,280 -250,280 -290,10 -200,-60 -120,-160l-420 -60c70,-80 70,-250 50,-320l-170 -200zm-340 280c110,800 1810,1510 1750,0 -50,-1470 -1860,-770 -1750,0zm510 -80c20,70 20,240 -50,320l420 60c-80,100 -170,170 120,160 240,0 240,-130 250,-280l-20 -330c0,-10 -130,-340 -170,-400 -210,130 50,150 -310,200 -270,30 -190,50 -200,-110l-210 180 170 200z"/>
   <path class="fil13" d="M49820 47060c-210,20 -390,10 -500,-170 -80,-140 -10,70 -30,-110l-60 -260c110,250 -20,130 -140,100 -140,-220 -20,-70 -80,-250 -40,-120 -10,-30 -60,-130 0,-10 -50,-80 -70,-120 220,-10 -90,70 160,20 130,-20 0,0 80,-40 330,-150 370,-30 580,-200l40 150c0,10 10,20 10,30 10,10 20,20 20,30 180,350 90,340 50,950zm-680 -1260c-1070,400 170,2200 710,1860 440,-290 970,-2490 -710,-1860zm680 1260c40,-610 130,-600 -50,-950 0,-10 -10,-20 -20,-30 0,-10 -10,-20 -10,-30l-40 -150c-210,170 -250,50 -580,200 -80,40 50,20 -80,40 -250,50 60,-30 -160,-20 20,40 70,110 70,120 50,100 20,10 60,130 60,180 -60,30 80,250 120,30 250,150 140,-100l60 260c20,180 -50,-30 30,110 110,180 290,190 500,170z"/>
   <path class="fil14" d="M38860 46300c170,760 1730,770 1470,-280 -200,-770 -1690,-740 -1470,280z"/>
   <path class="fil10" d="M53600 47200c20,-830 -40,-1020 -970,-1060 -310,330 -600,530 -140,1090 400,500 740,230 1110,-30z"/>
   <path class="fil11" d="M52120 37480c-550,-300 -250,-170 -880,-260 -240,280 -330,130 -310,670 10,660 530,850 1050,400 320,-270 220,-440 140,-810z"/>
   <path class="fil11" d="M22620 37230c-360,350 10,1590 820,1000 660,-480 -380,-1430 -820,-1000z"/>
   <path class="fil11" d="M20140 34020c-420,540 -60,1520 690,1120 590,-310 220,-1220 -690,-1120z"/>
   <path class="fil11" d="M46880 32210c50,300 1150,1080 1330,170 180,-940 -1410,-720 -1330,-170z"/>
   <path class="fil10" d="M53470 44210c0,0 -200,1020 480,1040 490,20 700,-590 610,-980 -510,-400 -710,-70 -1090,-60z"/>
   <path class="fil14" d="M51740 43840c-740,290 -520,1410 210,1120 700,-290 580,-1430 -210,-1120z"/>
   <path class="fil15" d="M42080 35180c-800,360 -480,1420 210,1120 620,-280 610,-1470 -210,-1120z"/>
   <path class="fil11" d="M24560 33130c-200,270 -110,550 100,780 360,380 410,60 680,70 140,-280 330,-450 240,-810 -230,-380 -710,-350 -1020,-40z"/>
   <path class="fil11" d="M22800 32660c-730,290 -550,1460 210,1110 580,-260 550,-1410 -210,-1110z"/>
   <path class="fil12" d="M11720 34540c-230,260 -970,2690 -1000,3150 250,-80 290,-540 370,-800 90,-280 200,-600 310,-870 120,-290 670,-1410 680,-1600 560,-570 1040,-2410 4600,-5740 480,-450 1560,-1140 1900,-1520 60,-260 150,-710 -30,-870 -350,340 -1160,820 -1600,1180 -270,220 -500,450 -760,660 -280,230 -420,480 -680,690 -1030,860 -2160,2790 -2470,3070l-50 80c-280,780 -1040,1670 -1270,2570z"/>
   <path class="fil15" d="M23930 34320c-570,300 -40,1270 560,880 420,-270 90,-1220 -560,-880z"/>
   <path class="fil15" d="M35010 38650c-650,310 -110,1240 420,980 520,-260 170,-1260 -420,-980z"/>
   <path class="fil13" d="M16450 42460c30,-290 60,-330 -40,-630 -640,-670 -1300,290 -540,810 390,30 290,-20 580,-180z"/>
   <path class="fil12" d="M42610 43990c0,0 380,2380 620,2620 20,-850 -280,-2290 -470,-3150 -10,-10 -70,-30 -80,-30 -30,0 -80,-20 -100,140 -20,240 50,170 30,420zm-3690 -7130c400,240 1820,2670 2120,3230 310,590 610,1260 850,1880 130,350 600,1880 720,2020 20,-250 -50,-180 -30,-420 20,-160 70,-140 100,-140 10,0 70,20 80,30 -360,-1760 -1200,-3860 -2140,-5380 -490,-770 -990,-1540 -1560,-2230 -480,-580 -1430,-1460 -1790,-1990l-140 -10c-90,1090 50,910 690,1640 250,280 990,1050 1100,1370z"/>
   <path class="fil16" d="M45090 42540c0,0 190,-220 0,720 -10,50 110,-90 -20,80l620 20c-230,-240 -130,-40 -40,-250 280,80 240,230 540,60 10,-440 -150,-330 -440,-500 -260,-150 -250,-390 -660,-130zm0 720c190,-940 0,-720 0,-720 410,-260 400,-20 660,130 290,170 450,60 440,500 -300,170 -260,20 -540,-60 -90,210 -190,10 40,250l-620 -20c130,-170 10,-30 20,-80zm-570 -120c140,170 180,380 440,490 250,110 570,80 840,30 590,-120 1120,-270 850,-940 -260,-310 -870,-750 -1290,-800 -740,-110 -780,700 -840,1220z"/>
   <path class="fil17" d="M54240 38480l-310 -1100 -270 -10c-250,250 -420,440 -200,840 60,100 180,200 290,240 260,80 300,50 350,-100l140 130z"/>
   <path class="fil15" d="M30540 26140c-500,230 -350,1000 230,760 420,-180 400,-1060 -230,-760z"/>
   <path class="fil15" d="M47150 40730c-720,-290 -980,760 -130,760 230,-240 360,-460 130,-760z"/>
   <path class="fil18" d="M3540 38290c290,130 540,110 720,-170 -30,-340 -230,-500 -580,-460 -190,220 -240,350 -140,630z"/>
   <path class="fil15" d="M43850 40830c110,150 280,100 430,140 150,-300 320,-400 140,-770 -530,-170 -640,180 -570,630z"/>
   <path class="fil15" d="M51500 32720l-40 -80c-310,-70 -680,-190 -580,320 70,330 330,420 630,290 90,-270 50,-260 -10,-530z"/>
   <path class="fil19" d="M19290 43590c170,120 470,30 480,-230 -60,-250 -60,-380 -270,-450l-320 -80c-90,350 -30,500 110,760zm0 0c-140,-260 -200,-410 -110,-760l320 80c210,70 210,200 270,450 180,-190 80,-330 20,-590l-80 -90c-1020,-370 -1000,720 -420,910z"/>
   <path class="fil20" d="M4970 39020c40,520 160,580 600,320 100,-590 -210,-650 -600,-320z"/>
   <path class="fil15" d="M31840 25460c-250,210 130,760 430,460 230,-250 -100,-750 -430,-460z"/>
   <path class="fil21" d="M28900 47410c-30,-320 -40,-130 60,-410 510,-150 570,190 390,560 430,-160 170,-620 -120,-710 -390,-120 -650,250 -330,560zm0 0c190,160 190,150 450,150 180,-370 120,-710 -390,-560 -100,280 -90,90 -60,410z"/>
   <polygon class="fil22" points="38140,23360 38100,23260 37960,23270 "/>
   <path class="fil23" d="M54600 37690c0,-110 40,-90 -60,-90 0,110 -30,90 60,90z"/>
   <path class="fil24" d="M53770 35670c0,-110 40,-90 -60,-90 0,110 -30,90 60,90z"/>
   <path class="fil25" d="M54490 37330c0,-110 30,-90 -70,-90 0,110 -30,90 70,90z"/>
   <path class="fil24" d="M53660 35440c0,-110 30,-90 -60,-90 0,100 -40,90 60,90z"/>
   <polygon class="fil26" points="48520,40990 48630,41090 48570,40930 "/>
   <path class="fil27" d="M54250 36740c0,-110 30,-90 -60,-90 0,100 -30,90 60,90z"/>
   <path class="fil28" d="M53890 35940c0,-210 30,-70 -80,-120l80 120z"/>
   <polygon class="fil25" points="53300,34710 53250,34640 "/>
   <polygon class="fil29" points="53420,34960 53360,34870 "/>
   <polygon class="fil27" points="53540,35190 53480,35110 "/>
   <g>
    <path class="fil30" d="M5820 28770c-670,670 -1260,1330 -1900,2020 -780,820 -1410,2060 -2010,3030 -430,850 -770,1790 -1080,2690 -230,690 -500,2400 -570,3130 10,1080 70,1720 110,2810 0,250 200,920 230,1140 40,280 310,1590 440,1820 340,740 460,1580 850,2330 300,570 670,1440 1020,1930 130,130 1130,1340 1130,1370 360,360 780,650 1130,1000 320,310 1250,770 1680,1070 470,220 950,410 1420,630l2000 660c310,70 630,170 900,230 530,110 1250,310 1760,370 470,60 960,180 1360,230 460,60 900,140 1360,180l310 -30 -610 -210 -1670 -440c-2680,-450 -6590,-2080 -8460,-4100 -2920,-3160 -3660,-9840 -3780,-9960 0,0 -200,-730 90,-740l140 140c630,180 1100,-190 880,-760 -70,-290 -180,-450 -500,-400 -300,50 -310,210 -480,350 -40,-440 100,-1070 240,-1550 220,360 470,330 870,-50 40,-370 -180,-490 -520,-520l-220 40c120,-400 230,-1170 330,-1120 60,30 60,60 110,110 240,120 460,200 810,20 440,-260 460,-1540 -530,-1120 260,-1380 1930,-3350 2770,-4530 1650,-1840 4210,-4020 6710,-4800 200,-170 1110,-500 1370,-500 380,-310 3710,-1260 4270,-1280 340,-10 1700,490 2100,630 340,120 680,240 1010,360 500,180 550,350 1020,20 1050,-720 2240,-1530 3340,-2170 970,-560 1120,-460 2240,-500 910,-40 1760,10 2660,90 830,30 5910,690 6330,1020 350,-30 940,140 1290,240 510,180 2120,2240 2560,2770l100 -210c320,320 490,490 780,870 120,170 210,280 420,340 30,10 600,130 460,-80l-260 10c-290,-460 -1370,-1690 -1760,-2050 -410,-390 -1660,-1520 -1900,-1910l-30 -30 -180 -90 -3180 -720c-400,-60 20,-50 -370,-100 -140,-20 -250,0 -400,-20 -310,-70 70,-70 -360,-110 -130,-10 -290,10 -410,0 -410,-60 30,-50 -370,-110 -210,-40 -700,-10 -940,-10l-110 -130c-240,20 -480,10 -720,20 -480,0 -390,-50 -670,-110l-4560 -10c-210,260 -1190,650 -1550,840 -730,380 -1440,750 -2170,1160 -650,380 -440,360 -1150,100 -370,-130 -890,-230 -1170,-460 -210,10 -560,-100 -740,-230l130 -120c300,20 770,-220 1090,-320 310,-110 940,-430 1240,-430l130 -90 -80 -100c-290,40 0,120 -500,120 -680,0 -340,30 -560,90 -210,60 -420,0 -620,40 -300,60 40,30 -260,90 -570,130 -350,-230 -460,190 -230,-90 -350,-80 -550,-20 -340,120 -230,40 -570,90 -530,70 -3310,900 -3880,1090 -270,90 -660,200 -920,320l-890 360c-280,90 -650,350 -880,350l-130 80 -110 40 -120 70 -150 50 -90 60 -150 60c0,90 20,60 -90,60l-140 60 -90 60 -150 60c0,90 20,50 -90,50 -200,190 -80,40 -80,180l-320 80c-240,100 -130,130 -350,160 0,90 20,60 -80,60l-150 60c0,90 20,60 -90,60 -110,100 -100,150 -270,180l-3040 2300zm34510 -2350l1000 1280 490 540c950,-40 2880,-770 3810,-570 -30,-570 -300,-530 -320,-630 0,-20 -20,-30 -30,-40 350,-170 210,-100 580,270l270 210c240,110 60,20 250,210l70 60c110,120 80,0 150,200 -310,170 -260,0 -650,-80l910 730 80 90c230,50 810,570 1020,740 460,370 560,690 1200,660l510 -70 -390 -420 -60 -60 -60 -60 -70 -50 -50 -60 -60 -60 -60 -60 -60 -60 -60 -60c-80,0 -60,30 -60,-60l-60 -50c-90,0 -60,20 -60,-70l-60 -50c-90,0 -60,20 -60,-70 -400,-50 20,-100 -290,-60l-260 -100c-160,130 -70,100 -250,30 -240,-100 -100,-20 -380,-40 120,-170 110,0 -210,-600 -10,-10 -40,-60 -50,-80 -40,-50 -60,-60 -90,-80l-360 -370c20,-140 150,10 -60,-180l-60 -60 -60 -50c-90,0 -70,20 -70,-60l-160 -60c-100,0 -80,20 -80,-60l-40 -60c-100,0 -70,30 -70,-60l-170 -60c-100,0 -80,30 -80,-60l-40 -50c-100,0 -70,30 -70,-70l-180 0c-560,240 -2530,290 -3380,640 140,210 -430,90 -460,80 -210,-60 -300,-170 -420,-340 -290,-380 -460,-550 -780,-870l-100 210zm7880 2350l0 -120 -60 -50 -60 -60 -60 -60 -60 -60 -60 -60 -60 -60c-80,0 -60,20 -60,-60 -190,-20 -170,-60 -290,-180l-70 -60 -50 -50 -60 -60 -60 -60c-100,0 -80,30 -80,-60 -170,-30 -160,-70 -270,-180l-60 -60 -240 0 360 370c30,20 50,30 90,80 10,20 40,70 50,80 320,600 330,430 210,600 280,20 140,-60 380,40 180,70 90,100 250,-30l260 100zm-2580 -1100l320 200c390,80 340,250 650,80 -70,-200 -40,-80 -150,-200l-70 -60c-190,-190 -10,-100 -250,-210l-270 -210c-370,-370 -230,-440 -580,-270 10,10 30,20 30,40 20,100 290,60 320,630z"/>
   </g>
   <path class="fil31" d="M23630 54020c340,500 610,1440 1480,910 510,-320 1070,-1380 360,-1820 -200,-320 -920,-220 -1250,-70 -600,260 -470,520 -590,980z"/>
   <path class="fil10" d="M27340 47230c-370,-90 -1670,170 -540,880 950,600 1140,-750 540,-880z"/>
   <path class="fil6" d="M22510 55050c1510,-310 -200,-1850 -640,-1050 -140,110 -80,340 -70,530 120,470 240,590 710,520z"/>
   <path class="fil10" d="M26360 50020l170 -80c60,-200 180,-400 50,-600 -130,-180 -460,-190 -650,-100 -320,160 -420,850 430,780z"/>
   <path class="fil20" d="M22570 51990c-390,190 -340,690 0,700 350,20 490,-310 430,-620l-130 -150c-140,-10 -230,-50 -300,70z"/>
   <path class="fil21" d="M28320 50370c-80,-310 70,-420 390,-410l-80 570 -210 -40c150,210 230,120 440,40 180,-250 160,-470 -50,-710 -340,-30 -380,-40 -640,160 -20,250 -40,250 150,390zm0 0l100 120 210 40 80 -570c-320,-10 -470,100 -390,410z"/>
   <path class="fil13" d="M27970 49260l70 70c440,120 610,-200 400,-490 -90,-110 -270,-140 -380,-80 -180,100 -110,340 -90,500z"/>
   <path class="fil32" d="M48580 51610c-250,350 -460,550 -120,1000 540,140 560,-150 840,-370 -40,-780 -60,-680 -720,-630z"/>
   <path class="fil32" d="M44780 51860l-30 400c380,270 710,70 720,-380l-10 -130c-350,-250 -350,-160 -680,110z"/>
   <path class="fil12" d="M44840 53280c-430,-30 -450,240 -230,560l330 -40c90,-240 90,-340 -100,-520z"/>
  </g>
 </g>
</svg>
