<?xml version="1.0" encoding="UTF-8"?>
<!DOCTYPE svg PUBLIC "-//W3C//DTD SVG 1.1//EN" "http://www.w3.org/Graphics/SVG/1.1/DTD/svg11.dtd">
<!-- Creator: CorelDRAW -->
<svg xmlns="http://www.w3.org/2000/svg" xml:space="preserve" width="56px" height="56px" version="1.1" style="shape-rendering:geometricPrecision; text-rendering:geometricPrecision; image-rendering:optimizeQuality; fill-rule:evenodd; clip-rule:evenodd"
viewBox="0 0 56000 56000"
 xmlns:xlink="http://www.w3.org/1999/xlink"
 xmlns:xodm="http://www.corel.com/coreldraw/odm/2003">
 <defs>
  <style type="text/css">
   <![CDATA[
    .fil18 {fill:#955D05}
    .fil24 {fill:#976213}
    .fil23 {fill:#986313}
    .fil22 {fill:#996212}
    .fil14 {fill:#B68E52}
    .fil17 {fill:#B9761A}
    .fil11 {fill:#B99665}
    .fil5 {fill:#C7A884}
    .fil6 {fill:#C89856}
    .fil2 {fill:#C9AD8D}
    .fil20 {fill:#CAAB8A}
    .fil8 {fill:#CBA668}
    .fil7 {fill:#CD9C66}
    .fil21 {fill:#CDA35F}
    .fil16 {fill:#D3AC74}
    .fil1 {fill:#D5B893}
    .fil3 {fill:#D6C6B0}
    .fil15 {fill:#D9B788}
    .fil9 {fill:#E3B88A}
    .fil10 {fill:#E3C89F}
    .fil4 {fill:#E6C699}
    .fil12 {fill:#E8CAA7}
    .fil0 {fill:#EDC595}
    .fil13 {fill:#EDD2AF}
    .fil19 {fill:#F3DAB9}
   ]]>
  </style>
 </defs>
 <g id="Слой_x0020_1">
  <metadata id="CorelCorpID_0Corel-Layer"/>
 </g>
 <g id="Слой_x0020_1_0">
  <metadata id="CorelCorpID_1Corel-Layer"/>
 </g>
 <g id="Слой_x0020_1_0_79">
  <metadata id="CorelCorpID_2Corel-Layer"/>
 </g>
 <g id="Слой_x0020_1_0_3">
  <metadata id="CorelCorpID_3Corel-Layer"/>
 </g>
 <g id="Слой_x0020_1_0_3_80">
  <metadata id="CorelCorpID_4Corel-Layer"/>
 </g>
 <g id="Слой_x0020_1_0_3_81">
  <metadata id="CorelCorpID_5Corel-Layer"/>
 </g>
 <g id="Слой_x0020_1_0_3_82">
  <metadata id="CorelCorpID_6Corel-Layer"/>
 </g>
 <g id="Слой_x0020_1_0_3_83">
  <metadata id="CorelCorpID_7Corel-Layer"/>
 </g>
 <g id="Слой_x0020_1_0_3_84">
  <metadata id="CorelCorpID_8Corel-Layer"/>
 </g>
 <g id="Слой_x0020_1_0_3_85">
  <metadata id="CorelCorpID_9Corel-Layer"/>
 </g>
 <g id="Слой_x0020_1_0_3_86">
  <metadata id="CorelCorpID_10Corel-Layer"/>
 </g>
 <g id="Слой_x0020_1_0_3_87">
  <metadata id="CorelCorpID_11Corel-Layer"/>
 </g>
 <g id="Слой_x0020_1_0_3_88">
  <metadata id="CorelCorpID_12Corel-Layer"/>
 </g>
 <g id="Слой_x0020_1_0_3_89">
  <metadata id="CorelCorpID_13Corel-Layer"/>
  <g id="_3028157431408">
   <polygon class="fil0" points="4830,43690 4980,43510 "/>
   <polygon class="fil0" points="3180,45040 3320,44880 "/>
   <polygon class="fil0" points="3030,45170 3180,45040 "/>
   <polygon class="fil0" points="1350,47120 1530,46980 "/>
   <polygon class="fil0" points="910,47890 1060,47710 "/>
   <polygon class="fil1" points="48330,41860 48520,42000 "/>
   <polygon class="fil1" points="50580,43220 50760,43370 "/>
   <polygon class="fil1" points="51960,44260 52100,44420 "/>
   <polygon class="fil1" points="54650,47300 54820,47430 "/>
   <polygon class="fil1" points="17670,38570 18070,38380 "/>
   <polygon class="fil1" points="40000,38870 40280,38960 "/>
   <polygon class="fil2" points="47120,41260 47310,41390 "/>
   <polygon class="fil2" points="47730,41560 47920,41690 "/>
   <polygon class="fil2" points="43330,39770 43570,39880 "/>
   <polygon class="fil2" points="2090,54970 2330,55100 "/>
   <polygon class="fil3" points="46480,40990 46690,41110 "/>
   <polygon class="fil3" points="53920,46220 54060,46390 "/>
   <polygon class="fil3" points="42430,39460 42680,39570 "/>
   <polygon class="fil3" points="620,53730 760,53920 "/>
   <polygon class="fil3" points="44220,40080 44450,40190 "/>
   <polygon class="fil4" points="45420,40530 45650,40650 "/>
   <polygon class="fil4" points="35240,37930 35850,38090 "/>
   <polygon class="fil4" points="19150,38260 19580,38080 "/>
   <polygon class="fil4" points="470,48830 600,48610 "/>
   <polygon class="fil4" points="55880,49860 55710,49560 "/>
   <polygon class="fil5" points="44990,40370 45220,40480 "/>
   <polygon class="fil5" points="45780,40650 45970,40780 "/>
   <polygon class="fil5" points="53750,46080 53920,46220 "/>
   <polygon class="fil5" points="55890,52470 56000,52180 "/>
   <polygon class="fil5" points="53150,55270 53440,55100 "/>
   <polygon class="fil6" points="44580,40200 44720,40210 44720,40330 "/>
   <polygon class="fil6" points="55740,52910 55860,52660 "/>
   <polygon class="fil7" points="14630,39280 14630,39160 14810,39160 "/>
   <polygon class="fil7" points="1960,46360 2110,46230 "/>
   <path class="fil8" d="M51200 43670c210,10 170,-30 70,160l-70 -160z"/>
   <polygon class="fil8" points="55430,48760 55560,48980 "/>
   <path class="fil9" d="M5720 43070l80 -170c90,190 130,140 -80,170z"/>
   <polygon class="fil9" points="10360,40640 10610,40530 "/>
   <polygon class="fil9" points="7510,42000 7690,41850 "/>
   <polygon class="fil9" points="7220,42160 7390,42010 "/>
   <polygon class="fil9" points="6180,42770 6330,42610 "/>
   <polygon class="fil9" points="5270,43380 5420,43210 "/>
   <polygon class="fil9" points="4070,44290 4220,44120 "/>
   <polygon class="fil9" points="620,48500 760,48320 "/>
   <polygon class="fil9" points="770,48210 910,48020 "/>
   <polygon class="fil9" points="13960,39420 14220,39320 "/>
   <polygon class="fil9" points="43780,39920 44000,40040 "/>
   <path class="fil10" d="M55560 53310l140 -180c10,230 80,180 -140,180z"/>
   <path class="fil10" d="M55400 53600l160 -170c0,220 60,170 -160,170z"/>
   <polygon class="fil10" points="32460,37660 33170,37790 "/>
   <polygon class="fil10" points="1800,46520 1960,46360 "/>
   <polygon class="fil10" points="16290,38850 16600,38700 "/>
   <polygon class="fil10" points="12020,40030 12270,39930 "/>
   <path class="fil11" d="M53600 55120c0,-220 -50,-150 200,-140l-200 140z"/>
   <polygon class="fil11" points="49400,42460 49560,42590 "/>
   <polygon class="fil11" points="52100,44420 52260,44570 "/>
   <polygon class="fil11" points="55290,48450 55430,48610 "/>
   <polygon class="fil11" points="760,53920 920,54070 "/>
   <polygon class="fil12" points="2440,55090 2680,55130 2680,55280 "/>
   <path class="fil12" d="M9640 40960c0,-220 -50,-150 200,-140l-200 140z"/>
   <path class="fil12" d="M1070 47600c-10,-220 -60,-170 160,-170l-160 170z"/>
   <polygon class="fil12" points="9330,41110 9520,40970 "/>
   <polygon class="fil12" points="21250,37960 21880,37790 "/>
   <polygon class="fil12" points="51040,43520 51200,43670 "/>
   <polygon class="fil12" points="37940,38380 38370,38560 "/>
   <polygon class="fil12" points="20,50360 170,50000 "/>
   <polygon class="fil12" points="40660,38980 41050,39170 "/>
   <polygon class="fil12" points="12480,39890 12730,39780 "/>
   <path class="fil13" d="M11580 40200c0,-230 -50,-150 220,-130l-220 130z"/>
   <path class="fil13" d="M6630 42480c0,-230 -60,-180 170,-160l-170 160z"/>
   <path class="fil13" d="M6920 42310c0,-210 -40,-150 190,-140l-190 140z"/>
   <path class="fil13" d="M54820 54370c0,-220 -60,-160 160,-160l-160 160z"/>
   <polygon class="fil13" points="14420,39290 14630,39160 14630,39280 "/>
   <polygon class="fil13" points="44720,40330 44720,40210 44890,40360 "/>
   <polygon class="fil13" points="11140,40350 11380,40240 "/>
   <polygon class="fil13" points="49200,42330 49400,42460 "/>
   <polygon class="fil13" points="34010,37780 34740,37970 "/>
   <polygon class="fil13" points="4220,44120 4380,43970 "/>
   <polygon class="fil13" points="3320,44880 3470,44700 "/>
   <polygon class="fil13" points="150,49710 330,49410 "/>
   <polygon class="fil14" points="2680,55280 2680,55130 2930,55260 "/>
   <polygon class="fil14" points="50760,43370 50930,43500 "/>
   <polygon class="fil14" points="52260,44570 52420,44720 "/>
   <polygon class="fil14" points="54990,47850 55140,48000 "/>
   <polygon class="fil14" points="1200,54360 1350,54520 "/>
   <path class="fil15" d="M1820 54800l170 -60 0 220c-220,0 -170,60 -170,-160z"/>
   <polygon class="fil15" points="46830,41110 47020,41250 "/>
   <polygon class="fil15" points="9000,41240 9210,41110 "/>
   <polygon class="fil15" points="48620,42020 48790,42170 "/>
   <polygon class="fil15" points="49690,42610 49850,42770 "/>
   <polygon class="fil15" points="50140,42910 50300,43080 "/>
   <polygon class="fil15" points="20270,38070 20800,37940 "/>
   <polygon class="fil15" points="37150,38260 37460,38340 "/>
   <polygon class="fil15" points="18480,38380 18830,38240 "/>
   <polygon class="fil15" points="16990,38690 17340,38540 "/>
   <polygon class="fil15" points="39240,38680 39640,38840 "/>
   <polygon class="fil15" points="15070,39140 15360,39000 "/>
   <polygon class="fil15" points="41890,39290 42140,39460 "/>
   <polygon class="fil15" points="42880,39620 43130,39710 "/>
   <polygon class="fil15" points="1350,54520 1510,54680 "/>
   <polygon class="fil15" points="170,52690 0,52400 "/>
   <polygon class="fil16" points="10800,40470 11000,40360 "/>
   <polygon class="fil16" points="8710,41390 8900,41260 "/>
   <polygon class="fil16" points="47440,41410 47610,41550 "/>
   <polygon class="fil16" points="8090,41680 8270,41540 "/>
   <polygon class="fil16" points="48040,41700 48220,41840 "/>
   <polygon class="fil16" points="320,49290 430,49030 "/>
   <polygon class="fil16" points="15750,38960 16040,38860 "/>
   <polygon class="fil16" points="56000,50830 55890,50370 "/>
   <polygon class="fil16" points="41320,39130 41580,39280 "/>
   <polygon class="fil16" points="13510,39570 13740,39460 "/>
   <polygon class="fil16" points="13030,39710 13280,39610 "/>
   <polygon class="fil16" points="54220,54830 54360,54660 "/>
   <path class="fil17" d="M31300 37700l1160 -40 710 130 840 -10 730 190 500 -40 610 160 1300 170 310 80 480 40 430 180 870 120 400 160 360 30 280 90 380 20 390 190 270 -40 260 150 310 10 250 170 290 0 250 110 200 50 250 90 10 30c70,620 280,490 940,830 320,160 600,360 930,450 660,170 2240,1340 2660,1930 490,240 1390,1410 1580,2030l1260 2670c1080,1160 460,3960 -780,5090 -1500,1360 -4110,1480 -6060,1480 -4560,0 -9280,0 -13850,0 -9110,0 -18320,-240 -27400,0l-1810 -640 -150 -270 -290 -620 -170 -290 20 -2040 150 -360 -20 -290 180 -300 -10 -120 110 -260 40 -200 130 -220 20 -110 140 -180 10 -110 140 -190 0 -130 150 -180 10 -110 160 -170 120 -310 180 -140 270 -460 160 -160 150 -130 730 -920 190 -140 150 -130 140 -160 150 -180 600 -410 150 -170 160 -150 450 -280 150 -180 290 -130 150 -170 300 -140c210,-30 170,20 80,-170l240 80 140 -210 150 -160 300 -130 170 -160 120 -10 190 -140 110 0 170 -150 120 -20 180 -150 400 -170 180 -130 440 -150 190 -130 100 -20 210 -130 120 0 190 -150 120 0 200 -140 520 -180 250 -110 190 -60 200 -110 140 -10 240 -110 200 -40 220 -130 220 -40 250 -100 210 -40 250 -110 300 -70 250 -100 230 -40 230 -110 220 -40 260 -110 200 -20 210 -10 180 -120 260 -20 290 -140 390 -40 290 -100 250 -20 310 -150 390 0 350 -150 330 20 400 -190 410 0 350 -130 320 20 430 -180 690 -10 530 -130 450 20 630 -170 1120 0 930 40 0 -200 1020 20 350 40 1400 -190 2210 -20c690,-30 1860,-120 2390,220l0 -10z"/>
   <path class="fil18" d="M1990 54740l-170 60 -310 -120 -160 -160 -150 -160 -50 -180c110,-200 -60,-310 200,-20 510,130 90,-80 470,220 560,450 240,230 170,360l0 0z"/>
   <path class="fil19" d="M2840 45310c20,-210 -30,-150 190,-140l-190 140z"/>
   <polygon class="fil20" points="54350,46830 54530,46990 "/>
   <polygon class="fil21" points="55600,49190 55720,49400 "/>
   <path class="fil22" d="M12840 49090l180 10 20 -780 190 20c750,-2970 5800,-7240 8670,-7930 -310,750 -2300,2910 -3140,4980 -1000,2430 -880,4780 -1470,6590 -850,0 -4360,150 -4910,-100l460 -2790 0 0z"/>
   <path class="fil22" d="M15120 41090c-1990,1010 -3460,2730 -4820,4440 -2520,3170 -2160,4400 -3010,6310 -850,270 -3920,150 -4950,80 260,-2130 1780,-5650 3880,-6520 120,-350 450,-580 820,-630l560 -630c1130,-450 2390,-1660 6170,-2990 410,-140 700,-290 1100,-430 1130,-420 910,-20 940,90l-690 280z"/>
   <path class="fil23" d="M28230 40610c-2400,2380 -930,9060 -1400,11340l-4810 40c-1240,-3980 5470,-12780 6240,-11330l-30 -50 0 0z"/>
   <path class="fil24" d="M2570 53730c9080,-240 18440,-20 27550,-20 4570,0 9140,0 13700,0 1950,0 4370,70 5880,-1300 3890,-3540 -3100,-10500 -6240,-12110 -660,-340 -250,60 -320,-560l190 30 240 110 210 40 220 120 220 40 230 110 130 10 140 130 170 30 100 10 230 110 200 50 230 120 130 0 190 130 510 210 210 120 140 0 190 140 100 10 190 130 130 20 170 140 120 10 190 130 120 10 180 140 110 20 190 140 100 20 170 150 410 160 200 130 160 130 130 20 160 160 290 140 160 170 280 140 180 150 170 130 110 20 160 150 70 160 380 360 310 70 140 160 160 150 160 150 1330 1360 170 140 140 170 290 440 180 160 120 310 170 130 170 420 150 150 150 450 140 160 0 150 130 220 40 210 120 210 -10 160 170 300 10 510 110 460 0 1350 -110 290 -30 190 -120 250 -40 220 -140 180 0 120 -160 170 -420 610c-220,0 -160,-60 -160,160l-460 290 -140 170 -420 150c-250,-10 -200,-80 -200,140l-160 -20 -290 170 -380 10c-1430,400 -10240,130 -12410,130 -4170,0 -8330,0 -12500,0 -2900,0 -23830,280 -24770,-180 -590,-160 -2450,-970 -2480,-1650l1960 150 0 0z"/>
  </g>
 </g>
</svg>
