<?xml version="1.0" encoding="UTF-8"?>
<!DOCTYPE svg PUBLIC "-//W3C//DTD SVG 1.1//EN" "http://www.w3.org/Graphics/SVG/1.1/DTD/svg11.dtd">
<!-- Creator: CorelDRAW -->
<svg xmlns="http://www.w3.org/2000/svg" xml:space="preserve" width="56px" height="56px" version="1.1" style="shape-rendering:geometricPrecision; text-rendering:geometricPrecision; image-rendering:optimizeQuality; fill-rule:evenodd; clip-rule:evenodd"
viewBox="0 0 56000 56000"
 xmlns:xlink="http://www.w3.org/1999/xlink"
 xmlns:xodm="http://www.corel.com/coreldraw/odm/2003">
 <defs>
  <style type="text/css">
   <![CDATA[
    .fil20 {fill:#955D05}
    .fil26 {fill:#976213}
    .fil25 {fill:#986313}
    .fil24 {fill:#996212}
    .fil16 {fill:#B68E52}
    .fil19 {fill:#B9761A}
    .fil13 {fill:#B99665}
    .fil7 {fill:#C7A884}
    .fil8 {fill:#C89856}
    .fil4 {fill:#C9AD8D}
    .fil22 {fill:#CAAB8A}
    .fil10 {fill:#CBA668}
    .fil9 {fill:#CD9C66}
    .fil23 {fill:#CDA35F}
    .fil18 {fill:#D3AC74}
    .fil3 {fill:#D5B893}
    .fil5 {fill:#D6C6B0}
    .fil17 {fill:#D9B788}
    .fil1 {fill:#DDDBDA}
    .fil11 {fill:#E3B88A}
    .fil12 {fill:#E3C89F}
    .fil6 {fill:#E6C699}
    .fil14 {fill:#E8CAA7}
    .fil2 {fill:#EDC595}
    .fil15 {fill:#EDD2AF}
    .fil21 {fill:#F3DAB9}
    .fil0 {fill:white}
   ]]>
  </style>
 </defs>
 <g id="Слой_x0020_1">
  <metadata id="CorelCorpID_0Corel-Layer"/>
 </g>
 <g id="Слой_x0020_1_0">
  <metadata id="CorelCorpID_1Corel-Layer"/>
 </g>
 <g id="Слой_x0020_1_0_22">
  <metadata id="CorelCorpID_2Corel-Layer"/>
 </g>
 <g id="Слой_x0020_1_0_3">
  <metadata id="CorelCorpID_3Corel-Layer"/>
  <path class="fil0" d="M46390 7600c710,-110 1530,260 2140,1150 420,610 790,1560 610,2230 540,1190 -840,4050 -1630,5060 -2900,3670 -6540,2420 -9030,5730 -760,1020 -1750,4040 -1410,5230 770,-1360 280,-4010 3670,-6030 1920,-1130 3780,-850 5830,-2470 2000,-1580 3360,-3760 3420,-6330 100,-3660 -2370,-5080 -3500,-4860 -1170,220 -1800,960 -2380,1650 -390,-270 -2260,-3110 -4600,-1440 -2330,1670 -1590,4300 -1760,4690 420,860 510,1460 1160,2290 590,750 1610,1560 2490,1770 -470,-710 -1600,-1200 -2300,-2540 -990,-1890 -620,-4850 1410,-5700 1010,-410 2100,300 2960,1300 420,490 640,1170 640,1680 260,190 150,190 310,-100l0 -60c-140,-330 -50,-1510 160,-1990 280,-620 1120,-1150 1810,-1260z"/>
  <path class="fil0" d="M19510 13610l50 2020 640 -1070c-220,-2270 3600,-4400 5380,-1470 1370,2270 550,4800 -990,6680l-1880 1590c930,-70 2730,-1460 3340,-2220 730,-920 1120,-1920 1290,-3010 680,-4230 -2450,-5110 -3090,-5690 -760,110 -1560,40 -2300,460 -940,530 -1230,1170 -1960,1690 -600,-950 -500,-980 -1380,-1780 -4660,-2120 -7200,4820 -4520,9900 2380,4500 5700,4580 8370,5730l2150 1150c40,30 320,260 320,260 530,290 -20,60 490,100 -1520,-3200 -5720,-3510 -8370,-5870 -3050,-2720 -3930,-8120 -2240,-9490 -20,-320 -260,120 120,-480 60,-90 340,-360 420,-430 2070,-1840 4630,170 4160,1930z"/>
  <path class="fil0" d="M30050 25930c30,-4280 2000,-6070 1540,-12390 -360,-4890 -2250,-6820 -2680,-10610 810,530 170,-310 1360,1180 4920,6150 4260,20960 -220,21820z"/>
  <path class="fil1" d="M51210 17660l-150 320c-10,-20 -120,120 -20,-170 90,-250 -20,-30 170,-150z"/>
  <g id="_3028155524656">
   <polygon class="fil2" points="51170,44190 51020,44010 "/>
   <polygon class="fil2" points="52820,45540 52680,45380 "/>
   <polygon class="fil2" points="52970,45670 52820,45540 "/>
   <polygon class="fil2" points="54650,47620 54470,47480 "/>
   <polygon class="fil2" points="55090,48390 54940,48210 "/>
   <polygon class="fil3" points="7670,42360 7480,42500 "/>
   <polygon class="fil3" points="5420,43720 5240,43870 "/>
   <polygon class="fil3" points="4040,44760 3900,44920 "/>
   <polygon class="fil3" points="1350,47800 1180,47930 "/>
   <polygon class="fil3" points="38330,39070 37930,38880 "/>
   <polygon class="fil3" points="16000,39370 15720,39460 "/>
   <polygon class="fil4" points="8880,41760 8690,41890 "/>
   <polygon class="fil4" points="8270,42060 8080,42190 "/>
   <polygon class="fil4" points="12670,40270 12430,40380 "/>
   <polygon class="fil4" points="53910,55470 53670,55600 "/>
   <polygon class="fil5" points="9520,41490 9310,41610 "/>
   <polygon class="fil5" points="2080,46720 1940,46890 "/>
   <polygon class="fil5" points="13570,39960 13320,40070 "/>
   <polygon class="fil5" points="55380,54230 55240,54420 "/>
   <polygon class="fil5" points="11780,40580 11550,40690 "/>
   <polygon class="fil6" points="10580,41030 10350,41150 "/>
   <polygon class="fil6" points="20760,38430 20150,38590 "/>
   <polygon class="fil6" points="36850,38760 36420,38580 "/>
   <polygon class="fil6" points="55530,49330 55400,49110 "/>
   <polygon class="fil6" points="120,50360 290,50060 "/>
   <polygon class="fil7" points="11010,40870 10780,40980 "/>
   <polygon class="fil7" points="10220,41150 10030,41280 "/>
   <polygon class="fil7" points="2250,46580 2080,46720 "/>
   <polygon class="fil7" points="110,52970 0,52680 "/>
   <polygon class="fil7" points="2850,55770 2560,55600 "/>
   <polygon class="fil8" points="11420,40700 11280,40710 11280,40830 "/>
   <polygon class="fil8" points="260,53410 140,53160 "/>
   <polygon class="fil9" points="41370,39780 41370,39660 41190,39660 "/>
   <polygon class="fil9" points="54040,46860 53890,46730 "/>
   <path class="fil10" d="M4800 44170c-210,10 -170,-30 -70,160l70 -160z"/>
   <polygon class="fil10" points="570,49260 440,49480 "/>
   <path class="fil11" d="M50280 43570l-80 -170c-90,190 -130,140 80,170z"/>
   <polygon class="fil11" points="45640,41140 45390,41030 "/>
   <polygon class="fil11" points="48490,42500 48310,42350 "/>
   <polygon class="fil11" points="48780,42660 48610,42510 "/>
   <polygon class="fil11" points="49820,43270 49670,43110 "/>
   <polygon class="fil11" points="50730,43880 50580,43710 "/>
   <polygon class="fil11" points="51930,44790 51780,44620 "/>
   <polygon class="fil11" points="55380,49000 55240,48820 "/>
   <polygon class="fil11" points="55230,48710 55090,48520 "/>
   <polygon class="fil11" points="42040,39920 41780,39820 "/>
   <polygon class="fil11" points="12220,40420 12000,40540 "/>
   <path class="fil12" d="M440 53810l-140 -180c-10,230 -80,180 140,180z"/>
   <path class="fil12" d="M600 54100l-160 -170c0,220 -60,170 160,170z"/>
   <polygon class="fil12" points="23540,38160 22830,38290 "/>
   <polygon class="fil12" points="54200,47020 54040,46860 "/>
   <polygon class="fil12" points="39710,39350 39400,39200 "/>
   <polygon class="fil12" points="43980,40530 43730,40430 "/>
   <path class="fil13" d="M2400 55620c0,-220 50,-150 -200,-140l200 140z"/>
   <polygon class="fil13" points="6600,42960 6440,43090 "/>
   <polygon class="fil13" points="3900,44920 3740,45070 "/>
   <polygon class="fil13" points="710,48950 570,49110 "/>
   <polygon class="fil13" points="55240,54420 55080,54570 "/>
   <polygon class="fil14" points="53560,55590 53320,55630 53320,55780 "/>
   <path class="fil14" d="M46360 41460c0,-220 50,-150 -200,-140l200 140z"/>
   <path class="fil14" d="M54930 48100c10,-220 60,-170 -160,-170l160 170z"/>
   <polygon class="fil14" points="46670,41610 46480,41470 "/>
   <polygon class="fil14" points="34750,38460 34120,38290 "/>
   <polygon class="fil14" points="4960,44020 4800,44170 "/>
   <polygon class="fil14" points="18060,38880 17630,39060 "/>
   <polygon class="fil14" points="55980,50860 55830,50500 "/>
   <polygon class="fil14" points="15340,39480 14950,39670 "/>
   <polygon class="fil14" points="43520,40390 43270,40280 "/>
   <path class="fil15" d="M44420 40700c0,-230 50,-150 -220,-130l220 130z"/>
   <path class="fil15" d="M49370 42980c0,-230 60,-180 -170,-160l170 160z"/>
   <path class="fil15" d="M49080 42810c0,-210 40,-150 -190,-140l190 140z"/>
   <path class="fil15" d="M1180 54870c0,-220 60,-160 -160,-160l160 160z"/>
   <polygon class="fil15" points="41580,39790 41370,39660 41370,39780 "/>
   <polygon class="fil15" points="11280,40830 11280,40710 11110,40860 "/>
   <polygon class="fil15" points="44860,40850 44620,40740 "/>
   <polygon class="fil15" points="6800,42830 6600,42960 "/>
   <polygon class="fil15" points="21990,38280 21260,38470 "/>
   <polygon class="fil15" points="51780,44620 51620,44470 "/>
   <polygon class="fil15" points="52680,45380 52530,45200 "/>
   <polygon class="fil15" points="55850,50210 55670,49910 "/>
   <polygon class="fil16" points="53320,55780 53320,55630 53070,55760 "/>
   <polygon class="fil16" points="5240,43870 5070,44000 "/>
   <polygon class="fil16" points="3740,45070 3580,45220 "/>
   <polygon class="fil16" points="1010,48350 860,48500 "/>
   <polygon class="fil16" points="54800,54860 54650,55020 "/>
   <path class="fil17" d="M54180 55300l-170 -60 0 220c220,0 170,60 170,-160z"/>
   <polygon class="fil17" points="9170,41610 8980,41750 "/>
   <polygon class="fil17" points="47000,41740 46790,41610 "/>
   <polygon class="fil17" points="7380,42520 7210,42670 "/>
   <polygon class="fil17" points="6310,43110 6150,43270 "/>
   <polygon class="fil17" points="5860,43410 5700,43580 "/>
   <polygon class="fil17" points="35730,38570 35200,38440 "/>
   <polygon class="fil17" points="18850,38760 18540,38840 "/>
   <polygon class="fil17" points="37520,38880 37170,38740 "/>
   <polygon class="fil17" points="39010,39190 38660,39040 "/>
   <polygon class="fil17" points="16760,39180 16360,39340 "/>
   <polygon class="fil17" points="40930,39640 40640,39500 "/>
   <polygon class="fil17" points="14110,39790 13860,39960 "/>
   <polygon class="fil17" points="13120,40120 12870,40210 "/>
   <polygon class="fil17" points="54650,55020 54490,55180 "/>
   <polygon class="fil17" points="55830,53190 56000,52900 "/>
   <polygon class="fil18" points="45200,40970 45000,40860 "/>
   <polygon class="fil18" points="47290,41890 47100,41760 "/>
   <polygon class="fil18" points="8560,41910 8390,42050 "/>
   <polygon class="fil18" points="47910,42180 47730,42040 "/>
   <polygon class="fil18" points="7960,42200 7780,42340 "/>
   <polygon class="fil18" points="55680,49790 55570,49530 "/>
   <polygon class="fil18" points="40250,39460 39960,39360 "/>
   <polygon class="fil18" points="0,51330 110,50870 "/>
   <polygon class="fil18" points="14680,39630 14420,39780 "/>
   <polygon class="fil18" points="42490,40070 42260,39960 "/>
   <polygon class="fil18" points="42970,40210 42720,40110 "/>
   <polygon class="fil18" points="1780,55330 1640,55160 "/>
   <path class="fil19" d="M24700 38200l-1160 -40 -710 130 -840 -10 -730 190 -500 -40 -610 160 -1300 170 -310 80 -480 40 -430 180 -870 120 -400 160 -360 30 -280 90 -380 20 -390 190 -270 -40 -260 150 -310 10 -250 170 -290 0 -250 110 -200 50 -250 90 -10 30c-70,620 -280,490 -940,830 -320,160 -600,360 -930,450 -660,170 -2240,1340 -2660,1930 -490,240 -1390,1410 -1580,2030l-1260 2670c-1080,1160 -460,3960 780,5090 1500,1360 4110,1480 6060,1480 4560,0 9280,0 13850,0 9110,0 18320,-240 27400,0l1810 -640 150 -270 290 -620 170 -290 -20 -2040 -150 -360 20 -290 -180 -300 10 -120 -110 -260 -40 -200 -130 -220 -20 -110 -140 -180 -10 -110 -140 -190 0 -130 -150 -180 -10 -110 -160 -170 -120 -310 -180 -140 -270 -460 -160 -160 -150 -130 -730 -920 -190 -140 -150 -130 -140 -160 -150 -180 -600 -410 -150 -170 -160 -150 -450 -280 -150 -180 -290 -130 -150 -170 -300 -140c-210,-30 -170,20 -80,-170l-240 80 -140 -210 -150 -160 -300 -130 -170 -160 -120 -10 -190 -140 -110 -10 -170 -150 -120 -10 -180 -150 -400 -170 -180 -140 -440 -150 -190 -130 -100 -20 -210 -130 -120 0 -190 -140 -120 -10 -200 -140 -520 -180 -250 -110 -190 -60 -200 -110 -140 -10 -240 -110 -200 -40 -220 -130 -220 -40 -250 -100 -210 -40 -250 -110 -300 -70 -250 -100 -230 -40 -230 -110 -220 -40 -260 -100 -200 -30 -210 -10 -180 -120 -260 -20 -290 -140 -390 -40 -290 -100 -250 -10 -310 -150 -390 -10 -350 -150 -330 30 -400 -190 -410 0 -350 -140 -320 20 -430 -180 -690 -10 -530 -130 -450 20 -630 -170 -1120 0 -930 40 0 -200 -1020 20 -350 40 -1400 -190 -2210 -20c-690,-30 -1860,-120 -2390,220z"/>
   <path class="fil20" d="M54010 55240l170 60 310 -120 160 -160 150 -160 50 -180c-110,-200 60,-310 -200,-20 -510,130 -90,-80 -470,220 -560,450 -240,230 -170,360z"/>
   <path class="fil21" d="M53160 45810c-20,-210 30,-150 -190,-140l190 140z"/>
   <polygon class="fil22" points="1650,47330 1470,47490 "/>
   <polygon class="fil23" points="400,49690 280,49900 "/>
   <path class="fil24" d="M43160 49590l-180 10 -20 -780 -190 20c-750,-2970 -5800,-7240 -8670,-7930 310,750 2300,2910 3140,4980 1000,2430 880,4780 1470,6590 850,0 4360,150 4910,-100l-460 -2790z"/>
   <path class="fil24" d="M40880 41590c1990,1010 3460,2730 4820,4440 2520,3170 2160,4400 3010,6310 850,270 3920,150 4950,80 -260,-2130 -1780,-5650 -3880,-6520 -120,-350 -450,-580 -820,-630l-560 -630c-1130,-450 -2390,-1660 -6170,-2990 -410,-140 -700,-290 -1100,-430 -1130,-420 -910,-20 -940,90l690 280z"/>
   <path class="fil25" d="M27770 41110c2400,2380 930,9060 1400,11340l4810 40c1240,-3980 -5470,-12780 -6240,-11330l30 -50z"/>
   <path class="fil26" d="M53430 54230c-9080,-240 -18440,-20 -27550,-20 -4570,0 -9140,0 -13700,0 -1950,0 -4370,70 -5880,-1300 -3890,-3540 3100,-10500 6240,-12110 660,-340 250,60 320,-560l-190 30 -240 110 -210 40 -220 120 -220 40 -230 110 -130 10 -140 130 -170 30 -100 10 -230 110 -200 50 -230 120 -130 0 -190 130 -510 210 -210 120 -140 0 -190 140 -100 10 -190 130 -130 20 -170 140 -120 10 -190 130 -120 10 -180 140 -110 20 -190 140 -100 20 -170 150 -410 160 -200 130 -160 130 -130 20 -160 160 -290 140 -160 170 -280 140 -180 150 -170 130 -110 20 -160 150 -70 160 -380 360 -310 70 -140 160 -160 150 -160 150 -1330 1360 -170 140 -140 170 -290 440 -180 160 -120 310 -170 130 -170 420 -150 150 -150 450 -140 160 0 150 -130 220 -40 210 -120 210 10 160 -170 300 -10 510 -110 460 0 1350 110 290 30 190 120 250 40 220 140 180 0 120 160 170 420 610c220,0 160,-60 160,160l460 290 140 170 420 150c250,-10 200,-80 200,140l160 -20 290 170 380 10c1430,400 10240,130 12410,130 4170,0 8330,0 12500,0 2900,0 23830,280 24770,-180 590,-160 2450,-970 2480,-1650l-1960 150z"/>
  </g>
 </g>
</svg>
