<?xml version="1.0" encoding="UTF-8"?>
<!DOCTYPE svg PUBLIC "-//W3C//DTD SVG 1.1//EN" "http://www.w3.org/Graphics/SVG/1.1/DTD/svg11.dtd">
<!-- Creator: CorelDRAW -->
<svg xmlns="http://www.w3.org/2000/svg" xml:space="preserve" width="56px" height="56px" version="1.1" style="shape-rendering:geometricPrecision; text-rendering:geometricPrecision; image-rendering:optimizeQuality; fill-rule:evenodd; clip-rule:evenodd"
viewBox="0 0 56000 56000"
 xmlns:xlink="http://www.w3.org/1999/xlink"
 xmlns:xodm="http://www.corel.com/coreldraw/odm/2003">
 <defs>
  <style type="text/css">
   <![CDATA[
    .fil58 {fill:none}
    .fil118 {fill:#940D01}
    .fil126 {fill:#951303}
    .fil81 {fill:#955D05}
    .fil124 {fill:#96150B}
    .fil75 {fill:#976213}
    .fil72 {fill:#986313}
    .fil69 {fill:#996212}
    .fil138 {fill:#9A1506}
    .fil112 {fill:#9A150A}
    .fil137 {fill:#9A150F}
    .fil71 {fill:#9A6108}
    .fil115 {fill:#9C1303}
    .fil113 {fill:#9D160A}
    .fil79 {fill:#9D620D}
    .fil136 {fill:#A3140A}
    .fil80 {fill:#A56B15}
    .fil62 {fill:#AB711D}
    .fil78 {fill:#B1741D}
    .fil68 {fill:#B5781C}
    .fil70 {fill:#B6771C}
    .fil90 {fill:#B68E52}
    .fil67 {fill:#B7781C}
    .fil74 {fill:#B8781C}
    .fil76 {fill:#B97616}
    .fil73 {fill:#B9761A}
    .fil93 {fill:#B99665}
    .fil0 {fill:#BD8333}
    .fil132 {fill:#C76834}
    .fil2 {fill:#C78C3A}
    .fil100 {fill:#C7A884}
    .fil99 {fill:#C89856}
    .fil77 {fill:#C8AD8D}
    .fil1 {fill:#C9892F}
    .fil103 {fill:#C9AD8D}
    .fil106 {fill:#CAAB8A}
    .fil97 {fill:#CBA668}
    .fil98 {fill:#CD9C66}
    .fil107 {fill:#CDA35F}
    .fil82 {fill:#D3AC74}
    .fil104 {fill:#D5B893}
    .fil102 {fill:#D6C6B0}
    .fil89 {fill:#D9B788}
    .fil87 {fill:#DAD9D9}
    .fil88 {fill:#DDDBDA}
    .fil60 {fill:#DEA555}
    .fil83 {fill:#E0DFE0}
    .fil8 {fill:#E3A042}
    .fil9 {fill:#E3A043}
    .fil10 {fill:#E3A144}
    .fil11 {fill:#E3A145}
    .fil12 {fill:#E3A146}
    .fil13 {fill:#E3A147}
    .fil14 {fill:#E3A247}
    .fil15 {fill:#E3A248}
    .fil16 {fill:#E3A249}
    .fil17 {fill:#E3A34A}
    .fil18 {fill:#E3A34B}
    .fil19 {fill:#E3A34C}
    .fil20 {fill:#E3A44C}
    .fil21 {fill:#E3A44D}
    .fil22 {fill:#E3A44E}
    .fil23 {fill:#E3A54E}
    .fil24 {fill:#E3A54F}
    .fil25 {fill:#E3A64F}
    .fil96 {fill:#E3B88A}
    .fil94 {fill:#E3C89F}
    .fil26 {fill:#E4A64F}
    .fil27 {fill:#E4A650}
    .fil28 {fill:#E4A750}
    .fil5 {fill:#E4AB5C}
    .fil29 {fill:#E5A750}
    .fil30 {fill:#E6A850}
    .fil31 {fill:#E6A950}
    .fil4 {fill:#E6A953}
    .fil101 {fill:#E6C699}
    .fil32 {fill:#E7A950}
    .fil33 {fill:#E7A951}
    .fil34 {fill:#E7AA51}
    .fil35 {fill:#E8AA51}
    .fil36 {fill:#E8AA52}
    .fil37 {fill:#E8AB52}
    .fil92 {fill:#E8CAA7}
    .fil38 {fill:#E9AB53}
    .fil39 {fill:#E9AC53}
    .fil40 {fill:#E9AC54}
    .fil41 {fill:#EAAC54}
    .fil42 {fill:#EAAD55}
    .fil43 {fill:#EBAD55}
    .fil44 {fill:#EBAD56}
    .fil45 {fill:#EBAE56}
    .fil46 {fill:#ECAE57}
    .fil47 {fill:#ECAF57}
    .fil48 {fill:#ECAF58}
    .fil49 {fill:#EDAF58}
    .fil50 {fill:#EDB058}
    .fil51 {fill:#EDB059}
    .fil105 {fill:#EDC595}
    .fil91 {fill:#EDD2AF}
    .fil52 {fill:#EEB059}
    .fil53 {fill:#EEB15A}
    .fil54 {fill:#EEB15B}
    .fil61 {fill:#EEB565}
    .fil55 {fill:#EFB15B}
    .fil56 {fill:#EFB25B}
    .fil57 {fill:#EFB25C}
    .fil130 {fill:#EFD8E0}
    .fil95 {fill:#F3DAB9}
    .fil129 {fill:#F8948D}
    .fil135 {fill:#F8F6F7}
    .fil109 {fill:#F99E59}
    .fil127 {fill:#F9A75C}
    .fil122 {fill:#FAA156}
    .fil120 {fill:#FAA15A}
    .fil111 {fill:#FB9F58}
    .fil125 {fill:#FBA057}
    .fil116 {fill:#FBA058}
    .fil128 {fill:#FBAD90}
    .fil134 {fill:#FBB3AD}
    .fil133 {fill:#FBEAE7}
    .fil121 {fill:#FCC475}
    .fil86 {fill:#FCFCFE}
    .fil119 {fill:#FDA159}
    .fil117 {fill:#FDC175}
    .fil123 {fill:#FDC679}
    .fil131 {fill:#FDD3CE}
    .fil114 {fill:#FDDA8F}
    .fil84 {fill:#FDFDFD}
    .fil110 {fill:#FEDA8F}
    .fil85 {fill:#FEFEFE}
    .fil108 {fill:#FFBA71}
    .fil59 {fill:url(#id1)}
    .fil64 {fill:url(#id2)}
    .fil3 {fill:url(#id3)}
    .fil66 {fill:url(#id4)}
    .fil7 {fill:url(#id5)}
    .fil6 {fill:url(#id6)}
    .fil65 {fill:url(#id7)}
    .fil63 {fill:url(#id8)}
   ]]>
  </style>
     <clipPath id="id0">
      <path d="M164660 -27850c-1230,90 -1850,130 -2460,190l200 9240 -2530 90 -120 -9160 -11160 990 580 32560c3300,-280 6320,10 10180,-760 4440,-650 8520,-760 12920,-1180l12650 -630 -540 -33200 -11860 1120 20 9270 -2200 60 -190 -9130c-400,-40 -5320,430 -5490,540z"/>
     </clipPath>
  <linearGradient id="id1" gradientUnits="userSpaceOnUse" x1="161780" y1="-34590" x2="170650" y2="-34590">
   <stop offset="0" style="stop-opacity:1; stop-color:#DB9A40"/>
   <stop offset="1" style="stop-opacity:1; stop-color:#EDB05A"/>
  </linearGradient>
  <linearGradient id="id2" gradientUnits="userSpaceOnUse" x1="168220" y1="13360" x2="167320" y2="4150">
   <stop offset="0" style="stop-opacity:1; stop-color:#C68D3D"/>
   <stop offset="1" style="stop-opacity:1; stop-color:#F0B25B"/>
  </linearGradient>
  <linearGradient id="id3" gradientUnits="userSpaceOnUse" x1="177200" y1="-32330" x2="146420" y2="-30170">
   <stop offset="0" style="stop-opacity:1; stop-color:#D68F2B"/>
   <stop offset="0.301961" style="stop-opacity:1; stop-color:#CD8A2B"/>
   <stop offset="0.490196" style="stop-opacity:1; stop-color:#C4842A"/>
   <stop offset="1" style="stop-opacity:1; stop-color:#C7801E"/>
  </linearGradient>
  <linearGradient id="id4" gradientUnits="userSpaceOnUse" x1="170510" y1="-19240" x2="172140" y2="-49210">
   <stop offset="0" style="stop-opacity:1; stop-color:#DB9739"/>
   <stop offset="1" style="stop-opacity:1; stop-color:#FDCE88"/>
  </linearGradient>
  <linearGradient id="id5" gradientUnits="userSpaceOnUse" x1="147340" y1="8510" x2="143480" y2="2110">
   <stop offset="0" style="stop-opacity:1; stop-color:#BF8B43"/>
   <stop offset="0.321569" style="stop-opacity:1; stop-color:#C78A35"/>
   <stop offset="1" style="stop-opacity:1; stop-color:#CF8927"/>
  </linearGradient>
  <linearGradient id="id6" gradientUnits="userSpaceOnUse" x1="145320" y1="1680" x2="144870" y2="-29540">
   <stop offset="0" style="stop-opacity:1; stop-color:#D49133"/>
   <stop offset="1" style="stop-opacity:1; stop-color:#E8A343"/>
  </linearGradient>
  <linearGradient id="id7" gradientUnits="userSpaceOnUse" x1="159250" y1="-33020" x2="160260" y2="-18300">
   <stop offset="0" style="stop-opacity:1; stop-color:#EBAE59"/>
   <stop offset="1" style="stop-opacity:1; stop-color:#DB9739"/>
  </linearGradient>
  <linearGradient id="id8" gradientUnits="userSpaceOnUse" x1="145710" y1="9780" x2="150850" y2="14950">
   <stop offset="0" style="stop-opacity:1; stop-color:#B67D2D"/>
   <stop offset="0.411765" style="stop-opacity:1; stop-color:#C78931"/>
   <stop offset="1" style="stop-opacity:1; stop-color:#D99536"/>
  </linearGradient>
 </defs>
 <g id="Слой_x0020_1">
  <metadata id="CorelCorpID_0Corel-Layer"/>
  <g id="_3026306620368">
   <path class="fil0" d="M166790 -31880l2220 -390 -290 -6050 -1800 -1650c-1830,-130 -3390,0 -5350,390 -910,160 -1680,300 -3330,730 -420,310 -840,450 -1760,1490l2250 100c0,-20 3380,-60 4150,-100 1260,-170 2200,-220 3780,-520l130 6000z"/>
   <path class="fil1" d="M166790 -31880l2220 -390c-90,-1960 -190,-3910 -280,-5870 -900,260 -1030,-130 -2070,260l130 6000z"/>
   <path class="fil2" d="M156480 -37360l-130 6260 2350 -130 30 -6030c-680,-100 -1330,-100 -2250,-100z"/>
   <path class="fil3" d="M172440 -28410l1390 -210 130 -1960 4830 -1820 630 -1000 -6990 470 10 4520zm-10370 -3310l-50 4380 8230 -680 -70 -4580 -8110 880zm-2060 230c-7310,390 -8610,650 -16330,1130l9980 1260 -310 2310 6790 -260 -130 -4440z"/>
   <path class="fil4" d="M184010 -29270l370 -440 -4960 -450 -5540 -610c-280,160 -310,1630 -180,2410 360,80 2760,-560 3130,-390 3010,210 3610,-450 7180,-520z"/>
   <path class="fil5" d="M153870 -29210c-110,50 -5870,1720 -5600,3200 110,640 690,600 2080,520 640,-40 3550,220 3650,-520 140,-950 -260,-1440 -130,-3200z"/>
   <path class="fil6" d="M143520 2880l6310 -1360 -780 -22960 -460 -5060 5280 -2710c-3230,-320 -6490,-1030 -10190,-1150l-160 33240z"/>
   <path class="fil7" d="M142410 11870c310,-60 5960,-3930 7160,-5270l-390 -5480 -5520 880c-380,2670 -670,2620 -1250,9870z"/>
   <g>
    <g style="clip-path:url(#id0)">
     <polygon class="fil8" points="148590,-29710 149310,-29710 149310,6070 148590,6070 "/>
     <polygon id="_1" class="fil8" points="149240,-29710 149460,-29710 149460,6070 149240,6070 "/>
     <polygon id="_2" class="fil8" points="149390,-29710 149610,-29710 149610,6070 149390,6070 "/>
     <polygon id="_3" class="fil8" points="149540,-29710 149760,-29710 149760,6070 149540,6070 "/>
     <polygon id="_4" class="fil8" points="149690,-29710 149910,-29710 149910,6070 149690,6070 "/>
     <polygon id="_5" class="fil8" points="149840,-29710 150070,-29710 150070,6070 149840,6070 "/>
     <polygon id="_6" class="fil8" points="149990,-29710 150220,-29710 150220,6070 149990,6070 "/>
     <polygon id="_7" class="fil8" points="150140,-29710 150370,-29710 150370,6070 150140,6070 "/>
     <polygon id="_8" class="fil8" points="150290,-29710 150520,-29710 150520,6070 150290,6070 "/>
     <polygon id="_9" class="fil8" points="150440,-29710 150670,-29710 150670,6070 150440,6070 "/>
     <polygon id="_10" class="fil8" points="150590,-29710 150820,-29710 150820,6070 150590,6070 "/>
     <polygon id="_11" class="fil8" points="150740,-29710 150970,-29710 150970,6070 150740,6070 "/>
     <polygon id="_12" class="fil9" points="150890,-29710 151120,-29710 151120,6070 150890,6070 "/>
     <polygon id="_13" class="fil9" points="151040,-29710 151270,-29710 151270,6070 151040,6070 "/>
     <polygon id="_14" class="fil9" points="151190,-29710 151420,-29710 151420,6070 151190,6070 "/>
     <polygon id="_15" class="fil9" points="151350,-29710 151570,-29710 151570,6070 151350,6070 "/>
     <polygon id="_16" class="fil9" points="151500,-29710 151720,-29710 151720,6070 151500,6070 "/>
     <polygon id="_17" class="fil9" points="151650,-29710 151870,-29710 151870,6070 151650,6070 "/>
     <polygon id="_18" class="fil9" points="151800,-29710 152020,-29710 152020,6070 151800,6070 "/>
     <polygon id="_19" class="fil9" points="151950,-29710 152170,-29710 152170,6070 151950,6070 "/>
     <polygon id="_20" class="fil9" points="152100,-29710 152330,-29710 152330,6070 152100,6070 "/>
     <polygon id="_21" class="fil10" points="152250,-29710 152480,-29710 152480,6070 152250,6070 "/>
     <polygon id="_22" class="fil10" points="152400,-29710 152630,-29710 152630,6070 152400,6070 "/>
     <polygon id="_23" class="fil10" points="152550,-29710 152780,-29710 152780,6070 152550,6070 "/>
     <polygon id="_24" class="fil10" points="152700,-29710 152930,-29710 152930,6070 152700,6070 "/>
     <polygon id="_25" class="fil10" points="152850,-29710 153080,-29710 153080,6070 152850,6070 "/>
     <polygon id="_26" class="fil10" points="153000,-29710 153230,-29710 153230,6070 153000,6070 "/>
     <polygon id="_27" class="fil11" points="153150,-29710 153380,-29710 153380,6070 153150,6070 "/>
     <polygon id="_28" class="fil11" points="153300,-29710 153530,-29710 153530,6070 153300,6070 "/>
     <polygon id="_29" class="fil11" points="153450,-29710 153680,-29710 153680,6070 153450,6070 "/>
     <polygon id="_30" class="fil11" points="153610,-29710 153830,-29710 153830,6070 153610,6070 "/>
     <polygon id="_31" class="fil11" points="153760,-29710 153980,-29710 153980,6070 153760,6070 "/>
     <polygon id="_32" class="fil11" points="153910,-29710 154130,-29710 154130,6070 153910,6070 "/>
     <polygon id="_33" class="fil12" points="154060,-29710 154280,-29710 154280,6070 154060,6070 "/>
     <polygon id="_34" class="fil12" points="154210,-29710 154430,-29710 154430,6070 154210,6070 "/>
     <polygon id="_35" class="fil12" points="154360,-29710 154580,-29710 154580,6070 154360,6070 "/>
     <polygon id="_36" class="fil12" points="154510,-29710 154730,-29710 154730,6070 154510,6070 "/>
     <polygon id="_37" class="fil12" points="154660,-29710 154890,-29710 154890,6070 154660,6070 "/>
     <polygon id="_38" class="fil13" points="154810,-29710 155040,-29710 155040,6070 154810,6070 "/>
     <polygon id="_39" class="fil14" points="154960,-29710 155190,-29710 155190,6070 154960,6070 "/>
     <polygon id="_40" class="fil14" points="155110,-29710 155340,-29710 155340,6070 155110,6070 "/>
     <polygon id="_41" class="fil14" points="155260,-29710 155490,-29710 155490,6070 155260,6070 "/>
     <polygon id="_42" class="fil14" points="155410,-29710 155640,-29710 155640,6070 155410,6070 "/>
     <polygon id="_43" class="fil15" points="155560,-29710 155790,-29710 155790,6070 155560,6070 "/>
     <polygon id="_44" class="fil15" points="155710,-29710 155940,-29710 155940,6070 155710,6070 "/>
     <polygon id="_45" class="fil15" points="155870,-29710 156090,-29710 156090,6070 155870,6070 "/>
     <polygon id="_46" class="fil15" points="156020,-29710 156240,-29710 156240,6070 156020,6070 "/>
     <polygon id="_47" class="fil15" points="156170,-29710 156390,-29710 156390,6070 156170,6070 "/>
     <polygon id="_48" class="fil16" points="156320,-29710 156540,-29710 156540,6070 156320,6070 "/>
     <polygon id="_49" class="fil16" points="156470,-29710 156690,-29710 156690,6070 156470,6070 "/>
     <polygon id="_50" class="fil16" points="156620,-29710 156840,-29710 156840,6070 156620,6070 "/>
     <polygon id="_51" class="fil16" points="156770,-29710 157000,-29710 157000,6070 156770,6070 "/>
     <polygon id="_52" class="fil16" points="156920,-29710 157150,-29710 157150,6070 156920,6070 "/>
     <polygon id="_53" class="fil17" points="157070,-29710 157300,-29710 157300,6070 157070,6070 "/>
     <polygon id="_54" class="fil17" points="157220,-29710 157450,-29710 157450,6070 157220,6070 "/>
     <polygon id="_55" class="fil17" points="157370,-29710 157600,-29710 157600,6070 157370,6070 "/>
     <polygon id="_56" class="fil17" points="157520,-29710 157750,-29710 157750,6070 157520,6070 "/>
     <polygon id="_57" class="fil17" points="157670,-29710 157900,-29710 157900,6070 157670,6070 "/>
     <polygon id="_58" class="fil18" points="157820,-29710 158050,-29710 158050,6070 157820,6070 "/>
     <polygon id="_59" class="fil18" points="157970,-29710 158200,-29710 158200,6070 157970,6070 "/>
     <polygon id="_60" class="fil18" points="158120,-29710 158350,-29710 158350,6070 158120,6070 "/>
     <polygon id="_61" class="fil18" points="158280,-29710 158500,-29710 158500,6070 158280,6070 "/>
     <polygon id="_62" class="fil18" points="158430,-29710 158650,-29710 158650,6070 158430,6070 "/>
     <polygon id="_63" class="fil19" points="158580,-29710 158800,-29710 158800,6070 158580,6070 "/>
     <polygon id="_64" class="fil19" points="158730,-29710 158950,-29710 158950,6070 158730,6070 "/>
     <polygon id="_65" class="fil19" points="158880,-29710 159100,-29710 159100,6070 158880,6070 "/>
     <polygon id="_66" class="fil19" points="159030,-29710 159250,-29710 159250,6070 159030,6070 "/>
     <polygon id="_67" class="fil20" points="159180,-29710 159400,-29710 159400,6070 159180,6070 "/>
     <polygon id="_68" class="fil20" points="159330,-29710 159560,-29710 159560,6070 159330,6070 "/>
     <polygon id="_69" class="fil21" points="159480,-29710 159710,-29710 159710,6070 159480,6070 "/>
     <polygon id="_70" class="fil21" points="159630,-29710 159860,-29710 159860,6070 159630,6070 "/>
     <polygon id="_71" class="fil21" points="159780,-29710 160010,-29710 160010,6070 159780,6070 "/>
     <polygon id="_72" class="fil21" points="159930,-29710 160160,-29710 160160,6070 159930,6070 "/>
     <polygon id="_73" class="fil21" points="160080,-29710 160310,-29710 160310,6070 160080,6070 "/>
     <polygon id="_74" class="fil21" points="160230,-29710 160460,-29710 160460,6070 160230,6070 "/>
     <polygon id="_75" class="fil21" points="160380,-29710 160610,-29710 160610,6070 160380,6070 "/>
     <polygon id="_76" class="fil22" points="160540,-29710 160760,-29710 160760,6070 160540,6070 "/>
     <polygon id="_77" class="fil22" points="160690,-29710 160910,-29710 160910,6070 160690,6070 "/>
     <polygon id="_78" class="fil22" points="160840,-29710 161060,-29710 161060,6070 160840,6070 "/>
     <polygon id="_79" class="fil22" points="160990,-29710 161210,-29710 161210,6070 160990,6070 "/>
     <polygon id="_80" class="fil22" points="161140,-29710 161360,-29710 161360,6070 161140,6070 "/>
     <polygon id="_81" class="fil22" points="161290,-29710 161510,-29710 161510,6070 161290,6070 "/>
     <polygon id="_82" class="fil23" points="161440,-29710 161660,-29710 161660,6070 161440,6070 "/>
     <polygon id="_83" class="fil23" points="161590,-29710 161820,-29710 161820,6070 161590,6070 "/>
     <polygon id="_84" class="fil24" points="161740,-29710 161970,-29710 161970,6070 161740,6070 "/>
     <polygon id="_85" class="fil24" points="161890,-29710 162120,-29710 162120,6070 161890,6070 "/>
     <polygon id="_86" class="fil24" points="162040,-29710 162270,-29710 162270,6070 162040,6070 "/>
     <polygon id="_87" class="fil24" points="162190,-29710 162420,-29710 162420,6070 162190,6070 "/>
     <polygon id="_88" class="fil24" points="162340,-29710 162570,-29710 162570,6070 162340,6070 "/>
     <polygon id="_89" class="fil24" points="162490,-29710 162720,-29710 162720,6070 162490,6070 "/>
     <polygon id="_90" class="fil24" points="162640,-29710 162870,-29710 162870,6070 162640,6070 "/>
     <polygon id="_91" class="fil24" points="162790,-29710 163020,-29710 163020,6070 162790,6070 "/>
     <polygon id="_92" class="fil24" points="162940,-29710 163170,-29710 163170,6070 162940,6070 "/>
     <polygon id="_93" class="fil24" points="163100,-29710 163320,-29710 163320,6070 163100,6070 "/>
     <polygon id="_94" class="fil24" points="163250,-29710 163470,-29710 163470,6070 163250,6070 "/>
     <polygon id="_95" class="fil24" points="163400,-29710 163620,-29710 163620,6070 163400,6070 "/>
     <polygon id="_96" class="fil24" points="163550,-29710 163770,-29710 163770,6070 163550,6070 "/>
     <polygon id="_97" class="fil24" points="163700,-29710 163930,-29710 163930,6070 163700,6070 "/>
     <polygon id="_98" class="fil24" points="163850,-29710 164080,-29710 164080,6070 163850,6070 "/>
     <polygon id="_99" class="fil24" points="164000,-29710 164230,-29710 164230,6070 164000,6070 "/>
     <polygon id="_100" class="fil24" points="164150,-29710 164380,-29710 164380,6070 164150,6070 "/>
     <polygon id="_101" class="fil24" points="164300,-29710 164530,-29710 164530,6070 164300,6070 "/>
     <polygon id="_102" class="fil24" points="164450,-29710 164680,-29710 164680,6070 164450,6070 "/>
     <polygon id="_103" class="fil24" points="164600,-29710 164830,-29710 164830,6070 164600,6070 "/>
     <polygon id="_104" class="fil25" points="164750,-29710 164980,-29710 164980,6070 164750,6070 "/>
     <polygon id="_105" class="fil25" points="164900,-29710 165130,-29710 165130,6070 164900,6070 "/>
     <polygon id="_106" class="fil25" points="165050,-29710 165280,-29710 165280,6070 165050,6070 "/>
     <polygon id="_107" class="fil25" points="165210,-29710 165430,-29710 165430,6070 165210,6070 "/>
     <polygon id="_108" class="fil25" points="165360,-29710 165580,-29710 165580,6070 165360,6070 "/>
     <polygon id="_109" class="fil25" points="165510,-29710 165730,-29710 165730,6070 165510,6070 "/>
     <polygon id="_110" class="fil25" points="165660,-29710 165880,-29710 165880,6070 165660,6070 "/>
     <polygon id="_111" class="fil25" points="165810,-29710 166030,-29710 166030,6070 165810,6070 "/>
     <polygon id="_112" class="fil25" points="165960,-29710 166180,-29710 166180,6070 165960,6070 "/>
     <polygon id="_113" class="fil25" points="166110,-29710 166330,-29710 166330,6070 166110,6070 "/>
     <polygon id="_114" class="fil25" points="166260,-29710 166490,-29710 166490,6070 166260,6070 "/>
     <polygon id="_115" class="fil25" points="166410,-29710 166640,-29710 166640,6070 166410,6070 "/>
     <polygon id="_116" class="fil25" points="166560,-29710 166790,-29710 166790,6070 166560,6070 "/>
     <polygon id="_117" class="fil25" points="166710,-29710 166940,-29710 166940,6070 166710,6070 "/>
     <polygon id="_118" class="fil25" points="166860,-29710 167090,-29710 167090,6070 166860,6070 "/>
     <polygon id="_119" class="fil25" points="167010,-29710 167240,-29710 167240,6070 167010,6070 "/>
     <polygon id="_120" class="fil25" points="167160,-29710 167390,-29710 167390,6070 167160,6070 "/>
     <polygon id="_121" class="fil25" points="167310,-29710 167540,-29710 167540,6070 167310,6070 "/>
     <polygon id="_122" class="fil25" points="167460,-29710 167690,-29710 167690,6070 167460,6070 "/>
     <polygon id="_123" class="fil25" points="167610,-29710 167840,-29710 167840,6070 167610,6070 "/>
     <polygon id="_124" class="fil25" points="167770,-29710 167990,-29710 167990,6070 167770,6070 "/>
     <polygon id="_125" class="fil26" points="167920,-29710 168140,-29710 168140,6070 167920,6070 "/>
     <polygon id="_126" class="fil26" points="168070,-29710 168290,-29710 168290,6070 168070,6070 "/>
     <polygon id="_127" class="fil26" points="168220,-29710 168440,-29710 168440,6070 168220,6070 "/>
     <polygon id="_128" class="fil26" points="168370,-29710 168590,-29710 168590,6070 168370,6070 "/>
     <polygon id="_129" class="fil26" points="168520,-29710 168750,-29710 168750,6070 168520,6070 "/>
     <polygon id="_130" class="fil26" points="168670,-29710 168900,-29710 168900,6070 168670,6070 "/>
     <polygon id="_131" class="fil27" points="168820,-29710 169050,-29710 169050,6070 168820,6070 "/>
     <polygon id="_132" class="fil27" points="168970,-29710 169200,-29710 169200,6070 168970,6070 "/>
     <polygon id="_133" class="fil27" points="169120,-29710 169350,-29710 169350,6070 169120,6070 "/>
     <polygon id="_134" class="fil27" points="169270,-29710 169500,-29710 169500,6070 169270,6070 "/>
     <polygon id="_135" class="fil27" points="169420,-29710 169650,-29710 169650,6070 169420,6070 "/>
     <polygon id="_136" class="fil27" points="169570,-29710 169800,-29710 169800,6070 169570,6070 "/>
     <polygon id="_137" class="fil27" points="169720,-29710 169950,-29710 169950,6070 169720,6070 "/>
     <polygon id="_138" class="fil27" points="169870,-29710 170100,-29710 170100,6070 169870,6070 "/>
     <polygon id="_139" class="fil27" points="170030,-29710 170250,-29710 170250,6070 170030,6070 "/>
     <polygon id="_140" class="fil27" points="170180,-29710 170400,-29710 170400,6070 170180,6070 "/>
     <polygon id="_141" class="fil27" points="170330,-29710 170550,-29710 170550,6070 170330,6070 "/>
     <polygon id="_142" class="fil27" points="170480,-29710 170700,-29710 170700,6070 170480,6070 "/>
     <polygon id="_143" class="fil27" points="170630,-29710 170850,-29710 170850,6070 170630,6070 "/>
     <polygon id="_144" class="fil28" points="170780,-29710 171000,-29710 171000,6070 170780,6070 "/>
     <polygon id="_145" class="fil28" points="170930,-29710 171160,-29710 171160,6070 170930,6070 "/>
     <polygon id="_146" class="fil28" points="171080,-29710 171310,-29710 171310,6070 171080,6070 "/>
     <polygon id="_147" class="fil28" points="171230,-29710 171460,-29710 171460,6070 171230,6070 "/>
     <polygon id="_148" class="fil29" points="171380,-29710 171610,-29710 171610,6070 171380,6070 "/>
     <polygon id="_149" class="fil29" points="171530,-29710 171760,-29710 171760,6070 171530,6070 "/>
     <polygon id="_150" class="fil29" points="171680,-29710 171910,-29710 171910,6070 171680,6070 "/>
     <polygon id="_151" class="fil29" points="171830,-29710 172060,-29710 172060,6070 171830,6070 "/>
     <polygon id="_152" class="fil29" points="171980,-29710 172210,-29710 172210,6070 171980,6070 "/>
     <polygon id="_153" class="fil29" points="172140,-29710 172360,-29710 172360,6070 172140,6070 "/>
     <polygon id="_154" class="fil29" points="172290,-29710 172510,-29710 172510,6070 172290,6070 "/>
     <polygon id="_155" class="fil29" points="172440,-29710 172660,-29710 172660,6070 172440,6070 "/>
     <polygon id="_156" class="fil29" points="172590,-29710 172810,-29710 172810,6070 172590,6070 "/>
     <polygon id="_157" class="fil29" points="172740,-29710 172960,-29710 172960,6070 172740,6070 "/>
     <polygon id="_158" class="fil29" points="172890,-29710 173110,-29710 173110,6070 172890,6070 "/>
     <polygon id="_159" class="fil29" points="173040,-29710 173260,-29710 173260,6070 173040,6070 "/>
     <polygon id="_160" class="fil29" points="173190,-29710 173420,-29710 173420,6070 173190,6070 "/>
     <polygon id="_161" class="fil29" points="173340,-29710 173570,-29710 173570,6070 173340,6070 "/>
     <polygon id="_162" class="fil29" points="173490,-29710 173720,-29710 173720,6070 173490,6070 "/>
     <polygon id="_163" class="fil30" points="173640,-29710 173870,-29710 173870,6070 173640,6070 "/>
     <polygon id="_164" class="fil30" points="173790,-29710 174020,-29710 174020,6070 173790,6070 "/>
     <polygon id="_165" class="fil30" points="173940,-29710 174170,-29710 174170,6070 173940,6070 "/>
     <polygon id="_166" class="fil30" points="174090,-29710 174320,-29710 174320,6070 174090,6070 "/>
     <polygon id="_167" class="fil30" points="174240,-29710 174470,-29710 174470,6070 174240,6070 "/>
     <polygon id="_168" class="fil30" points="174390,-29710 174620,-29710 174620,6070 174390,6070 "/>
     <polygon id="_169" class="fil30" points="174540,-29710 174770,-29710 174770,6070 174540,6070 "/>
     <polygon id="_170" class="fil30" points="174700,-29710 174920,-29710 174920,6070 174700,6070 "/>
     <polygon id="_171" class="fil30" points="174850,-29710 175070,-29710 175070,6070 174850,6070 "/>
     <polygon id="_172" class="fil30" points="175000,-29710 175220,-29710 175220,6070 175000,6070 "/>
     <polygon id="_173" class="fil30" points="175150,-29710 175370,-29710 175370,6070 175150,6070 "/>
     <polygon id="_174" class="fil31" points="175300,-29710 175520,-29710 175520,6070 175300,6070 "/>
     <polygon id="_175" class="fil32" points="175450,-29710 175680,-29710 175680,6070 175450,6070 "/>
     <polygon id="_176" class="fil33" points="175600,-29710 175830,-29710 175830,6070 175600,6070 "/>
     <polygon id="_177" class="fil33" points="175750,-29710 175980,-29710 175980,6070 175750,6070 "/>
     <polygon id="_178" class="fil33" points="175900,-29710 176130,-29710 176130,6070 175900,6070 "/>
     <polygon id="_179" class="fil33" points="176050,-29710 176280,-29710 176280,6070 176050,6070 "/>
     <polygon id="_180" class="fil33" points="176200,-29710 176430,-29710 176430,6070 176200,6070 "/>
     <polygon id="_181" class="fil33" points="176350,-29710 176580,-29710 176580,6070 176350,6070 "/>
     <polygon id="_182" class="fil34" points="176500,-29710 176730,-29710 176730,6070 176500,6070 "/>
     <polygon id="_183" class="fil35" points="176650,-29710 176880,-29710 176880,6070 176650,6070 "/>
     <polygon id="_184" class="fil35" points="176800,-29710 177030,-29710 177030,6070 176800,6070 "/>
     <polygon id="_185" class="fil36" points="176960,-29710 177180,-29710 177180,6070 176960,6070 "/>
     <polygon id="_186" class="fil36" points="177110,-29710 177330,-29710 177330,6070 177110,6070 "/>
     <polygon id="_187" class="fil36" points="177260,-29710 177480,-29710 177480,6070 177260,6070 "/>
     <polygon id="_188" class="fil36" points="177410,-29710 177630,-29710 177630,6070 177410,6070 "/>
     <polygon id="_189" class="fil37" points="177560,-29710 177780,-29710 177780,6070 177560,6070 "/>
     <polygon id="_190" class="fil37" points="177710,-29710 177930,-29710 177930,6070 177710,6070 "/>
     <polygon id="_191" class="fil38" points="177860,-29710 178090,-29710 178090,6070 177860,6070 "/>
     <polygon id="_192" class="fil38" points="178010,-29710 178240,-29710 178240,6070 178010,6070 "/>
     <polygon id="_193" class="fil38" points="178160,-29710 178390,-29710 178390,6070 178160,6070 "/>
     <polygon id="_194" class="fil38" points="178310,-29710 178540,-29710 178540,6070 178310,6070 "/>
     <polygon id="_195" class="fil39" points="178460,-29710 178690,-29710 178690,6070 178460,6070 "/>
     <polygon id="_196" class="fil40" points="178610,-29710 178840,-29710 178840,6070 178610,6070 "/>
     <polygon id="_197" class="fil41" points="178760,-29710 178990,-29710 178990,6070 178760,6070 "/>
     <polygon id="_198" class="fil41" points="178910,-29710 179140,-29710 179140,6070 178910,6070 "/>
     <polygon id="_199" class="fil41" points="179060,-29710 179290,-29710 179290,6070 179060,6070 "/>
     <polygon id="_200" class="fil41" points="179210,-29710 179440,-29710 179440,6070 179210,6070 "/>
     <polygon id="_201" class="fil42" points="179370,-29710 179590,-29710 179590,6070 179370,6070 "/>
     <polygon id="_202" class="fil42" points="179520,-29710 179740,-29710 179740,6070 179520,6070 "/>
     <polygon id="_203" class="fil42" points="179670,-29710 179890,-29710 179890,6070 179670,6070 "/>
     <polygon id="_204" class="fil43" points="179820,-29710 180040,-29710 180040,6070 179820,6070 "/>
     <polygon id="_205" class="fil43" points="179970,-29710 180190,-29710 180190,6070 179970,6070 "/>
     <polygon id="_206" class="fil44" points="180120,-29710 180350,-29710 180350,6070 180120,6070 "/>
     <polygon id="_207" class="fil45" points="180270,-29710 180500,-29710 180500,6070 180270,6070 "/>
     <polygon id="_208" class="fil45" points="180420,-29710 180650,-29710 180650,6070 180420,6070 "/>
     <polygon id="_209" class="fil45" points="180570,-29710 180800,-29710 180800,6070 180570,6070 "/>
     <polygon id="_210" class="fil46" points="180720,-29710 180950,-29710 180950,6070 180720,6070 "/>
     <polygon id="_211" class="fil46" points="180870,-29710 181100,-29710 181100,6070 180870,6070 "/>
     <polygon id="_212" class="fil46" points="181020,-29710 181250,-29710 181250,6070 181020,6070 "/>
     <polygon id="_213" class="fil47" points="181170,-29710 181400,-29710 181400,6070 181170,6070 "/>
     <polygon id="_214" class="fil47" points="181320,-29710 181550,-29710 181550,6070 181320,6070 "/>
     <polygon id="_215" class="fil48" points="181470,-29710 181700,-29710 181700,6070 181470,6070 "/>
     <polygon id="_216" class="fil48" points="181630,-29710 181850,-29710 181850,6070 181630,6070 "/>
     <polygon id="_217" class="fil49" points="181780,-29710 182000,-29710 182000,6070 181780,6070 "/>
     <polygon id="_218" class="fil49" points="181930,-29710 182150,-29710 182150,6070 181930,6070 "/>
     <polygon id="_219" class="fil50" points="182080,-29710 182300,-29710 182300,6070 182080,6070 "/>
     <polygon id="_220" class="fil51" points="182230,-29710 182450,-29710 182450,6070 182230,6070 "/>
     <polygon id="_221" class="fil51" points="182380,-29710 182600,-29710 182600,6070 182380,6070 "/>
     <polygon id="_222" class="fil51" points="182530,-29710 182750,-29710 182750,6070 182530,6070 "/>
     <polygon id="_223" class="fil51" points="182680,-29710 182910,-29710 182910,6070 182680,6070 "/>
     <polygon id="_224" class="fil52" points="182830,-29710 183060,-29710 183060,6070 182830,6070 "/>
     <polygon id="_225" class="fil53" points="182980,-29710 183210,-29710 183210,6070 182980,6070 "/>
     <polygon id="_226" class="fil53" points="183130,-29710 183360,-29710 183360,6070 183130,6070 "/>
     <polygon id="_227" class="fil53" points="183280,-29710 183510,-29710 183510,6070 183280,6070 "/>
     <polygon id="_228" class="fil53" points="183430,-29710 183660,-29710 183660,6070 183430,6070 "/>
     <polygon id="_229" class="fil53" points="183580,-29710 183810,-29710 183810,6070 183580,6070 "/>
     <polygon id="_230" class="fil54" points="183730,-29710 183960,-29710 183960,6070 183730,6070 "/>
     <polygon id="_231" class="fil54" points="183890,-29710 184110,-29710 184110,6070 183890,6070 "/>
     <polygon id="_232" class="fil55" points="184040,-29710 184260,-29710 184260,6070 184040,6070 "/>
     <polygon id="_233" class="fil56" points="184190,-29710 184410,-29710 184410,6070 184190,6070 "/>
     <polygon id="_234" class="fil56" points="184340,-29710 184560,-29710 184560,6070 184340,6070 "/>
     <polygon id="_235" class="fil56" points="184490,-29710 184710,-29710 184710,6070 184490,6070 "/>
     <polygon id="_236" class="fil57" points="184640,-29710 184860,-29710 184860,6070 184640,6070 "/>
     <polygon id="_237" class="fil57" points="184790,-29710 185020,-29710 185020,6070 184790,6070 "/>
     <polygon id="_238" class="fil57" points="184940,-29710 184920,-29710 184920,6070 184940,6070 "/>
    </g>
   </g>
   <polyline class="fil58" points="148750,-10640 148700,-10680 148370,7350 148210,7290 149550,12810 149480,12830 149480,11970 "/>
   <path class="fil59" d="M161960 -35270c-390,910 -50,1360 80,2010 1700,-650 8020,-590 8530,-1100 180,-60 40,-1570 -390,-1570 -2870,0 -5740,660 -8220,660z"/>
   <polygon class="fil60" points="178790,-33060 173780,-30770 175530,-30190 179440,-30060 179420,-33490 "/>
   <path class="fil61" d="M143020 6100l0 0c60,-90 -70,-60 70,-60 -150,60 0,-90 -70,60z"/>
   <polygon class="fil62" points="156160,14910 174000,13280 "/>
   <path class="fil63" d="M150560 15340l-340 -3130c110,-70 -920,-5800 -780,-5870 -2370,1870 -4740,3730 -7110,5600l8230 3400z"/>
   <path class="fil64" d="M156220 5160l-7080 600c100,1530 490,3500 620,4450l700 5130c5200,-190 8550,-930 13750,-1170 1530,-70 7190,-890 9790,-890 2610,0 9070,-730 12420,-730 -330,-4100 -1400,-8000 -1570,-9610l-12600 740c-5420,200 -10730,980 -16030,1480z"/>
   <path class="fil65" d="M159620 -33060c-270,1830 -140,13050 250,14730 660,150 2180,260 2750,20 210,-2760 -140,-6160 -200,-9070 -70,-2620 -140,-5190 -210,-7870 -770,240 -2460,2180 -2590,2190z"/>
   <path class="fil66" d="M170180 -35930c-220,940 -200,11150 -130,16830 720,180 2340,90 2740,-130 -130,-5040 260,-10170 -130,-15130 -780,-650 -1570,-1170 -2480,-1570z"/>
  </g>
 </g>
 <g id="Слой_x0020_1_12">
  <metadata id="CorelCorpID_1Corel-Layer"/>
 </g>
 <g id="Слой_x0020_1_0">
  <metadata id="CorelCorpID_2Corel-Layer"/>
 </g>
 <g id="Слой_x0020_1_0_13">
  <metadata id="CorelCorpID_3Corel-Layer"/>
 </g>
 <g id="Слой_x0020_1_0_3">
  <metadata id="CorelCorpID_4Corel-Layer"/>
  <image id="cedd3ca0baf64efb172bc686715aa9b8-bread-skull-icon.webp" x="675020" y="-6000" width="512010" height="512010" xlink:href="bread-steam-1_Images\bread-steam-1_ImgID1.png"/>
  <image id="images.png" x="600020" y="-94000" width="225000" height="225000" xlink:href="bread-steam-1_Images\bread-steam-1_ImgID2.png"/>
  <path class="fil67" d="M317610 -58800l-3850 -140 -2370 440 -2770 -30 -2440 630 -1650 -130 -2010 550 -4320 550 -1030 270 -1600 130 -1430 610 -2890 390 -1330 530 -1200 90 -920 300 -1290 60 -1290 630 -880 -110 -860 490 -1030 30 -850 550 -960 20 -810 350 -660 170 -830 300 -50 100 -430 1400 -5770 2860c-790,1600 -5560,4990 -7270,6570 -1620,1490 -5420,5530 -6820,6580 -1470,2790 -4020,5300 -4190,8870 470,2880 -1220,5680 -140,9650 590,-1610 210,-670 -230,-620 1400,2440 -130,5610 4370,4580 -60,-1340 1400,660 -580,-2100 0,-10 -1460,-1340 -330,100l70 -3120c-4710,-500 -60,-1790 -1940,-670 920,2060 1070,530 1870,570 -1040,-5990 1890,-7170 670,-8490 1640,980 990,1300 2000,1010 -2030,-60 -1250,-20 -2710,1160l150 1570c490,2100 -240,150 -240,1220 10,3460 1810,-950 2090,3490 200,3190 1740,2550 710,3770l2790 2240 64080 -90 1300 2750c6030,1040 5950,280 6910,-1180 -1910,-1050 -1050,-390 -3410,-810 -2190,-3230 180,-6480 150,-10410l460 1670c-710,-2960 0,-14790 -1180,-17790 -1380,-3530 -1190,-6740 -1460,-5870 -460,1560 -520,-150 -1070,-1280 -930,-1910 -1000,-990 -1460,-3590l1140 -1130 -90 150 -2180 -1030c260,-750 -1120,-1320 1940,-1850 2670,-470 -490,550 1220,0 100,-30 1340,-460 1450,-470l1240 -110c-540,2020 -360,-90 -80,2170 2930,700 4480,2210 6400,4630l1990 2040c2000,1720 -840,110 2930,3960 1430,1450 3760,6130 4660,8220l2860 11270c1020,-1510 -560,570 -590,600 1480,2160 2650,2250 380,4400 240,4270 -610,3070 1470,6000 1530,-880 -130,1030 1470,-1140 320,-430 430,-990 640,-1440l-750 -1880c-160,1940 1120,-1310 620,-4420 -450,540 -560,2090 -420,3110 310,2350 20,1740 2120,2350 890,-1110 430,820 840,-1860 20,-130 -50,-4840 -720,-5600 -1080,-1200 -420,-90 -570,0 350,-1250 200,-2550 160,-2730 -220,-880 150,-450 -600,-1270 -1080,-1190 -400,-100 -560,0 590,-2120 250,-2930 -470,-3970 -1610,-2340 150,1100 -440,-490 -250,-690 830,-250 -740,-2690 -1240,-1930 770,2050 -260,-560l-2550 -5230c-1630,-2670 340,1210 -400,-530 -1570,-3690 -250,-800 -1840,-2670 -1260,-1490 920,410 -740,-1910 -350,-480 -1400,-1310 -1430,-1400 -20,-40 -90,-990 -820,-1880l-3310 -3250c-1280,-1280 -2060,-2610 -3670,-2740 2780,1550 630,-2310 330,-3620l-18020 120c-1680,1460 -5090,1500 -7400,1180 1050,-2330 3340,-1590 5830,-270 2730,-2820 11900,-2170 15480,-1960 1750,-1820 130,-330 2200,-1680 -8900,-1180 -12450,-350 -16240,-1010 1550,-530 18370,-270 18370,-270l-4640 -620 -7340 -60 -7940 720z"/>
  <path class="fil68" d="M327730 -48960c460,-1090 30,-1380 2050,240 5820,4650 7900,6600 12440,13570 2810,4320 8430,19160 6030,23500 -3150,880 -12040,280 -15880,250 -340,-2540 2910,-30320 -4550,-37710l-1140 1130c460,2600 530,1680 1460,3590 550,1130 610,2840 1070,1280 270,-870 80,2340 1460,5870 1180,3000 470,14830 1180,17790l-460 -1670c30,3930 -2340,7180 -150,10410 2360,420 1500,-240 3410,810 -960,1460 -880,2220 -6910,1180l-1300 -2750 -64080 90 -2790 -2240c1030,-1220 -510,-580 -710,-3770 -280,-4440 -2080,-30 -2090,-3490 0,-1070 730,880 240,-1220l-150 -1570c1460,-1180 680,-1220 2710,-1160 -1010,290 -360,-30 -2000,-1010 1220,1320 -1710,2500 -670,8490 -800,-40 -950,1490 -1870,-570 1880,-1120 -2770,170 1940,670l-70 3120c-1130,-1440 330,-110 330,-100 1980,2760 520,760 580,2100 -4500,1030 -2970,-2140 -4370,-4580 440,-50 820,-990 230,620 -1080,-3970 610,-6770 140,-9650 -3610,3880 -1510,13100 2630,16870 5170,4700 13080,3240 19590,3240 15160,10 30330,10 45500,0 15160,0 30330,30 45500,0 15120,-30 30950,-410 46000,70 2600,300 4220,190 6500,-490l500 -910 -1620 810c1550,-7490 2920,-4120 1180,-7920 -900,-1960 -60,-1770 -1980,-5510 -290,-570 -290,410 -590,-1560 50,1850 460,4060 590,6350 -4270,3060 270,3060 -3680,3500 -20,100 -300,1330 -320,1400l-13570 900c-1530,140 -910,280 -2270,1400 -1710,720 -1780,-470 -6030,-1090 -10,-1830 -1010,-1420 790,-2280 -1690,-370 -1550,-460 -4030,-500 -380,-10 -2000,-190 -2090,-170 -1360,250 710,-1110 -440,440l-440 940c-1980,-1970 -540,-760 -3500,-1560l280 1420c-2580,-90 -2040,-420 -4780,30 -5380,890 -320,-1260 -9000,-60 -2300,320 -1650,-290 -3960,-160 2290,1210 1340,790 1470,1830l-6620 120 -1910 -3090 -3980 10c-210,450 -320,1010 -640,1440 -1600,2170 60,260 -1470,1140 -2080,-2930 -1230,-1730 -1470,-6000 2270,-2150 1100,-2240 -380,-4400 30,-30 1610,-2110 590,-600l-2860 -11270c-900,-2090 -3230,-6770 -4660,-8220 -3770,-3850 -930,-2240 -2930,-3960l-1990 -2040c-1920,-2420 -3470,-3930 -6400,-4630 -280,-2260 -460,-150 80,-2170l-1240 110c-110,10 -1350,440 -1450,470 -1710,550 1450,-470 -1220,0 -3060,530 -1680,1100 -1940,1850l2180 1030z"/>
  <path class="fil69" d="M251280 -38440l-1250 1210c1210,800 410,870 -3600,5200 -920,990 -3250,4640 -4640,4030 -420,3830 -3990,6250 -4410,12010 -350,4830 -190,10220 4640,12210l-2630 -5390 1360 -610c340,-2490 670,-2310 970,-3620l-1940 -870c-100,-2210 -650,-1360 140,-3750 1250,850 1580,720 1120,1430 3520,-1840 -610,-3610 3530,-3240 -450,40 430,1780 -810,-820 -60,-120 -260,-520 -370,-740l-860 -1570c2510,280 760,-260 2660,740 1710,900 1810,-450 1670,6790 -80,1980 270,-1390 2170,1640 -250,-970 -250,-1390 2780,-960 -20,2570 1420,1580 -1550,2420 1090,1240 810,970 1090,2480 -2790,710 -4030,380 -7030,180 20,20 430,-740 470,830 60,2100 200,600 -490,1160l2380 -30 370 1800 11650 -90c1540,2030 130,1400 1870,1600 -3020,650 -5280,-450 -8470,-260 -2810,170 -5040,210 -7000,1200 1050,1590 50,830 2400,960l145530 -240c4800,0 17000,920 20500,-1290 -110,-1070 1060,200 -500,-1530 -15050,-480 -30880,-100 -46000,-70 -15170,30 -30340,0 -45500,0 -15170,10 -30340,10 -45500,0 -6510,0 -14420,1460 -19590,-3240 -4140,-3770 -6240,-12990 -2630,-16870 170,-3570 2720,-6080 4190,-8870 630,-2060 3610,-5940 5250,-6740l-1310 -730c-990,570 -2010,1110 -3060,1440 -5540,1780 -6720,5000 -7600,2200z"/>
  <path class="fil70" d="M353530 -11710l3980 -10 1910 3090 6620 -120c-130,-1040 820,-620 -1470,-1830 2310,-130 1660,480 3960,160 8680,-1200 3620,950 9000,60 2740,-450 2200,-120 4780,-30l-280 -1420 -1860 -7430c-70,-130 -350,-640 -450,-780l-790 -940c540,3550 1780,5320 1190,9110 -2890,1080 -12600,770 -15990,280 -650,-1970 -260,-3720 -680,-5960 -340,-1770 -670,-3630 -1080,-5410 -1530,-6780 -3750,-13010 -7350,-19030 -1730,-2900 -5230,-5510 -6170,-7830 9700,2360 26260,16560 28770,26340l640 -70c560,-1730 -1450,-3730 -3260,-7600 -1090,-2330 -5870,-6940 -6540,-7800 -1330,-1710 -1220,-1650 -260,-3440 860,1610 -1070,-50 -1280,-470 -740,-1540 170,-720 200,-750l-3330 490c-930,-3060 -1440,-2690 -4010,-3950 -1290,-630 -1350,-680 -2580,-1490 -820,-540 -1530,-700 -2670,-1420 160,-490 -980,-3770 4220,-1890 2560,930 1440,1070 4120,1030 120,1590 -130,1510 -150,2040 -40,1590 -130,-340 890,1320l3800 140c-320,580 70,2440 -1970,990 120,50 310,0 350,160 50,150 270,130 330,170 50,30 220,150 290,190l1050 630c190,90 1530,390 2070,1760l690 -970c5360,330 -150,1930 6270,1930 -1940,-1380 0,-150 -1390,-1500 -1370,-1340 -510,-1050 -2620,-920l-1130 -2650 -2280 -930 -4000 -1820c950,-1350 690,-550 390,-2280 -3090,0 -1700,160 -2730,-1300 -1900,500 -3980,730 -6210,320 -2190,-420 -900,-500 -2370,-710l-9570 -1270c-4680,180 -2740,-3980 -2140,-1900 -2100,-80 -1750,200 -2930,-380l-850 -710c210,20 480,-130 640,100l2780 50 0 -680 -3360 70 -1190 130c0,0 -16820,-260 -18370,270 3790,660 7340,-170 16240,1010 -2070,1350 -450,-140 -2200,1680 -3580,-210 -12750,-860 -15480,1960 -2490,-1320 -4780,-2060 -5830,270 2310,320 5720,280 7400,-1180l18020 -120c300,1310 2450,5170 -330,3620 1610,130 2390,1460 3670,2740l3310 3250c730,890 800,1840 820,1880 30,90 1080,920 1430,1400 1660,2320 -520,420 740,1910 1590,1870 270,-1020 1840,2670 740,1740 -1230,-2140 400,530l2550 5230c1030,2610 -980,-1370 260,560 1570,2440 490,2000 740,2690 590,1590 -1170,-1850 440,490 720,1040 1060,1850 470,3970 160,-100 -520,-1190 560,0 750,820 380,390 600,1270 40,180 190,1480 -160,2730 150,-90 -510,-1200 570,0 670,760 740,5470 720,5600 -410,2680 50,750 -840,1860 -2100,-610 -1810,0 -2120,-2350 -140,-1020 -30,-2570 420,-3110 500,3110 -780,6360 -620,4420l750 1880z"/>
  <path class="fil71" d="M249000 -37020l-460 560 -540 490 -520 490 -4430 4510 -550 470 -490 560 -940 1470 -590 530 -430 1020 -560 430 -550 1390 -490 500 -510 1490 -470 550 -10 500 -400 720 -140 690 -400 720 20 520 -560 990 -20 1710 -380 1520 0 4500 360 960 110 630 400 840 110 700 470 630 30 380 510 570 1410 2020c720,0 540,-180 540,530l1500 970 460 550 1400 520c840,-50 680,-290 680,440l510 -50 980 570 1270 30 164990 -180 530 110 820 -420 800 -150 380 40 800 -440 310 -20 0 -740c-220,-450 -1270,310 590,-1180 1240,-1000 -160,-300 1530,-730 870,-990 310,-620 670,50l790 -350 520 -530 460 -600 20 -510c-2280,680 -3900,790 -6500,490 1560,1730 390,460 500,1530 -3500,2210 -15700,1290 -20500,1290l-145530 240c-2350,-130 -1350,630 -2400,-960l-3080 -320c-4830,-1990 -4990,-7380 -4640,-12210 420,-5760 3990,-8180 4410,-12010 1390,610 3720,-3040 4640,-4030 4010,-4330 4810,-4400 3600,-5200 -900,-50 -350,-310 -1030,210z"/>
  <path class="fil72" d="M327820 -49110c7460,7390 4210,35170 4550,37710 3840,30 12730,630 15880,-250 2400,-4340 -3220,-19180 -6030,-23500 -4540,-6970 -6620,-8920 -12440,-13570 -2020,-1620 -1590,-1330 -2050,-240l90 -150z"/>
  <path class="fil67" d="M382030 -11810c2960,800 1520,-410 3500,1560l440 -940c1150,-1550 -920,-190 440,-440 90,-20 1710,160 2090,170 2480,40 2340,130 4030,500 -1800,860 -800,450 -790,2280 4250,620 4320,1810 6030,1090 1360,-1120 740,-1260 2270,-1400l13570 -900c20,-70 300,-1300 320,-1400 3950,-440 -590,-440 3680,-3500 -130,-2290 -540,-4500 -590,-6350 -840,-1410 -670,-1950 -1530,-3290 -700,-1090 -1000,-1070 -1670,-2280l-1610 -30c-60,-2120 320,-700 -670,-2130l-790 -920c-1780,-1440 -2520,-1180 -3490,-850 -570,-1660 -890,-1770 -2280,-2430l-80 -1790 -7310 -5500 -2060 360 800 2590 1850 2110c1260,140 2340,930 2720,2070 3260,1350 6560,6000 8520,8880 3020,4420 3750,7600 4380,12800 -820,1060 1530,1200 -4270,1090 -3860,-70 -10130,380 -13170,-450l-970 -4240c-1230,460 -1490,-30 -890,1250l20 -3730c-1150,-1160 -2130,-3820 -2810,-5380 -2230,-5120 -220,-3540 -3420,-6730 -2850,-2830 -8000,-9990 -10660,-12170l-1180 210 -1530 540c630,2380 220,840 190,3110 2610,1380 3720,3830 4310,4910 900,1630 990,-50 3030,3990 1010,1990 1600,2280 1920,4450 300,1980 490,-380 1000,3000 250,1660 1400,1090 1070,4020 -200,1820 690,950 -1450,1260 -740,-1330 -400,-1270 -590,-3000 -1190,2660 630,1970 -1800,5480 -930,1350 -1060,340 -570,2130z"/>
  <path class="fil69" d="M378930 -20960l-600 30c-550,2990 680,3560 -2830,5020 90,80 250,70 280,240l810 1350c-1500,-940 -780,-910 -2570,910 -2530,-30 -3610,410 -5700,-760l5920 -50c-690,-740 1050,-980 -2710,-1090 -820,-20 -1820,50 -2690,40 -30,-1810 -310,-3730 430,-5190 -1020,-840 -580,-1040 -1830,-660l580 -4360c-770,-820 -330,-1020 -1580,-640l670 -2380c-1290,-1180 540,-660 -1790,-740 1630,-470 250,-370 890,-2740l-1910 -320 960 -1170c-870,-770 -520,-790 -1320,-650l880 -1140 4490 4520c40,100 110,230 150,330 2110,4730 940,600 2340,4010l670 1360c60,110 130,230 180,340l320 700c50,120 110,250 170,350l2140 4070c50,90 150,260 230,370l1470 190c720,-1610 140,-2480 -100,-4020l740 -420c-2510,-9780 -19070,-23980 -28770,-26340 940,2320 4440,4930 6170,7830 3600,6020 5820,12250 7350,19030 410,1780 740,3640 1080,5410 420,2240 30,3990 680,5960 3390,490 13100,800 15990,-280 590,-3790 -650,-5560 -1190,-9110z"/>
  <path class="fil69" d="M371350 -47530c6640,3390 11700,9200 15990,14750 2960,3820 6790,9960 8380,14750 2170,6520 -2610,7810 18080,6480 -630,-5200 -1360,-8380 -4380,-12800 -1960,-2880 -5260,-7530 -8520,-8880l-30 1690c4220,1060 9490,10260 11050,14530 760,2060 700,1780 220,3880 -1830,-440 -1080,90 -2420,-1510 150,-710 -60,-60 -60,-60 -1620,20 -1510,350 -2610,1510 -2280,-120 -5380,430 -7110,-720 2340,-1220 5040,360 7130,-970l-4960 -790c-740,-1650 -660,-520 -60,-1910l-1840 -610 710 -2420 -1710 -580 710 -2420 -1770 -560 970 -1680 -1970 -280 970 -1720 -980 -910c-4010,-1160 1060,-1500 -2990,-2380l-2000 -960 2730 -1730c-1790,-680 -2810,-1640 -4210,-3110 620,-410 -1180,-2010 3390,400 1560,820 2470,1290 4120,1240l-1850 -2110c-2260,-900 -4340,-2550 -6540,-3830 -3690,-2140 -9910,-4690 -13960,-6090l-5540 -2010c-1670,60 -700,-890 -1220,880l2280 930z"/>
  <path class="fil73" d="M365460 -52560l14430 4540c1330,320 1980,1560 4560,2010l320 1290c2670,130 4540,300 5270,2710l2420 470c720,1160 1350,2460 3070,1540l2060 -360 7310 5500 80 1790c1390,660 1710,770 2280,2430 970,-330 1710,-590 3490,850l790 920c990,1430 610,10 670,2130l1610 30c-1320,-2570 240,-2310 -1940,-4160 -2290,-1950 -500,520 -5500,-3950 -1530,-1380 -970,-560 -2150,-1410 -1480,-1080 -1670,-1980 -3550,-3190 0,-20 200,-780 260,-930 380,-920 -760,690 580,-910l-470 -680 -490 -560 -1000 -420 -590 -540 -400 -10 -610 -480 -360 -30 -570 -510 -400 -20 -590 -500 -1350 -550 -590 -470 -1470 -500 -620 -450 -340 -60 -680 -430 -410 -10 -630 -450 -380 -50 -660 -440 -1760 -610 -810 -380 -630 -180 -680 -380 -460 -40 -790 -360 -650 -130 -760 -410 -710 -140 -840 -350 -700 -100 -820 -390 -1010 -230 -830 -340 -750 -110 -780 -370 -710 -140 -860 -330 -680 -110 -700 -10 -610 -420 -840 -50 -990 -490 -1290 -100 -950 -330 -820 -40 -1030 -520 -1320 -30 -1150 -480 -1090 90 -1320 -620 -1390 -10 -1150 -470 -1080 60 -1410 -590 -2290 -40 -1770 -420 -1490 50 -2100 -540 -3720 -10 -3090 130 -2780 -50c-160,-230 -430,-80 -640,-100l850 710c1180,580 830,300 2930,380 -600,-2080 -2540,2080 2140,1900l9570 1270c1470,210 180,290 2370,710 2230,410 4310,180 6210,-320 1030,1460 -360,1300 2730,1300z"/>
  <path class="fil74" d="M378260 -23530l70 2600 600 -30 790 940c100,140 380,650 450,780l1860 7430c-490,-1790 -360,-780 570,-2130 2430,-3510 610,-2820 1800,-5480 190,1730 -150,1670 590,3000 2140,-310 1250,560 1450,-1260 330,-2930 -820,-2360 -1070,-4020 -510,-3380 -700,-1020 -1000,-3000 -320,-2170 -910,-2460 -1920,-4450 -2040,-4040 -2130,-2360 -3030,-3990 -590,-1080 -1700,-3530 -4310,-4910 30,-2270 440,-730 -190,-3110l1530 -540 40 -760c-6420,0 -910,-1600 -6270,-1930l-690 970c-540,-1370 -1880,-1670 -2070,-1760l-1050 -630c-70,-40 -240,-160 -290,-190 -60,-40 -280,-20 -330,-170 -40,-160 -230,-110 -350,-160 2040,1450 1650,-410 1970,-990l-3800 -140c-1020,-1660 -930,270 -890,-1320 20,-530 270,-450 150,-2040 -2680,40 -1560,-100 -4120,-1030 -5200,-1880 -4060,1400 -4220,1890 1140,720 1850,880 2670,1420 1230,810 1290,860 2580,1490 2570,1260 3080,890 4010,3950l3330 -490c-30,30 -940,-790 -200,750 210,420 2140,2080 1280,470 -960,1790 -1070,1730 260,3440 670,860 5450,5470 6540,7800 1810,3870 3820,5870 3260,7600z"/>
  <path class="fil75" d="M400900 -33230c-380,-1140 -1460,-1930 -2720,-2070 -1650,50 -2560,-420 -4120,-1240 -4570,-2410 -2770,-810 -3390,-400 1400,1470 2420,2430 4210,3110l-2730 1730 2000 960c4050,880 -1020,1220 2990,2380l980 910 -970 1720 1970 280 -970 1680 1770 560 -710 2420 1710 580 -710 2420 1840 610c-600,1390 -680,260 60,1910l4960 790c-2090,1330 -4790,-250 -7130,970 1730,1150 4830,600 7110,720 1100,-1160 990,-1490 2610,-1510 0,0 210,-650 60,60 1340,1600 590,1070 2420,1510 480,-2100 540,-1820 -220,-3880 -1560,-4270 -6830,-13470 -11050,-14530l30 -1690z"/>
  <path class="fil75" d="M242020 -3780l3080 320c1960,-990 4190,-1030 7000,-1200 3190,-190 5450,910 8470,260 -1740,-200 -330,430 -1870,-1600l-11650 90 -370 -1800 -2380 30c690,-560 550,940 490,-1160 -40,-1570 -450,-810 -470,-830 3000,200 4240,530 7030,-180 -280,-1510 0,-1240 -1090,-2480 2970,-840 1530,150 1550,-2420 -3030,-430 -3030,-10 -2780,960 -1900,-3030 -2250,340 -2170,-1640 140,-7240 40,-5890 -1670,-6790 -1900,-1000 -150,-460 -2660,-740l860 1570c110,220 310,620 370,740 1240,2600 360,860 810,820 -4140,-370 -10,1400 -3530,3240 460,-710 130,-580 -1120,-1430 -790,2390 -240,1540 -140,3750l1940 870c-300,1310 -630,1130 -970,3620l-1360 610 2630 5390z"/>
  <path class="fil75" d="M378330 -20930l-70 -2600 -640 70 -740 420c240,1540 820,2410 100,4020l-1470 -190c-80,-110 -180,-280 -230,-370l-2140 -4070c-60,-100 -120,-230 -170,-350l-320 -700c-50,-110 -120,-230 -180,-340l-670 -1360c-1400,-3410 -230,720 -2340,-4010 -40,-100 -110,-230 -150,-330l-4490 -4520 -880 1140c800,-140 450,-120 1320,650l-960 1170 1910 320c-640,2370 740,2270 -890,2740 2330,80 500,-440 1790,740l-670 2380c1250,-380 810,-180 1580,640l-580 4360c1250,-380 810,-180 1830,660 -740,1460 -460,3380 -430,5190 870,10 1870,-60 2690,-40 3760,110 2020,350 2710,1090l-5920 50c2090,1170 3170,730 5700,760 1790,-1820 1070,-1850 2570,-910l-810 -1350c-30,-170 -190,-160 -280,-240 3510,-1460 2280,-2030 2830,-5020z"/>
  <path class="fil76" d="M413820 -26710c670,1210 970,1190 1670,2280 860,1340 690,1880 1530,3290 300,1970 300,990 590,1560 1920,3740 1080,3550 1980,5510 1740,3800 370,430 -1180,7920l1620 -810 980 -2040 580 -960 -90 -6790 -480 -1190 50 -950 -580 -1020 20 -400 -380 -850 -140 -670 -420 -720 -40 -370 -490 -590 -30 -360 -450 -640 -10 -450 -490 -570 -40 -370 -530 -570 -400 -1030 -600 -480 -910 -1520 -510 -530 -510 -440 -2430 -3040 -610 -470 -520 -450 -460 -520 -490 -600 -2010 -1370 -490 -560 -530 -500 -1500 -920 -480 -610 -990 -430 -490 -570 -1000 -440c-680,-100 -560,70 -260,-580l-780 270c-1340,1600 -200,-10 -580,910 -60,150 -260,910 -260,930 1880,1210 2070,2110 3550,3190 1180,850 620,30 2150,1410 5000,4470 3210,2000 5500,3950 2180,1850 620,1590 1940,4160z"/>
  <path class="fil77" d="M411310 -580l-164990 180c2700,1140 73260,430 82710,430 13830,0 27670,0 41500,0 4450,0 39900,830 40780,-610z"/>
  <path class="fil78" d="M376490 -42460l-40 760 1180 -210c2660,2180 7810,9340 10660,12170 3200,3190 1190,1610 3420,6730 680,1560 1660,4220 2810,5380l-20 3730c-600,-1280 -340,-790 890,-1250l970 4240c3040,830 9310,380 13170,450 5800,110 3450,-30 4270,-1090 -20690,1330 -15910,40 -18080,-6480 -1590,-4790 -5420,-10930 -8380,-14750 -4290,-5550 -9350,-11360 -15990,-14750l1130 2650c2110,-130 1250,-420 2620,920 1390,1350 -550,120 1390,1500z"/>
  <path class="fil79" d="M276880 -51540l-700 130 -750 380 -730 130 -770 390 -410 30 -480 430 -550 90 -340 20 -770 380 -660 160 -770 400 -430 20 -630 420 -1670 680 -710 400 -470 0 -640 460 -310 60 -650 440 -420 30 -590 470 -370 50 -630 440 -420 40 -590 470 -380 40 -600 470 -370 50 -560 500 -1360 550 -650 430 -540 440 -430 60 -520 540 -970 440 -520 580 -940 460 -590 480 -560 440 -370 60 -530 520 -250 520c880,2800 2060,-420 7600,-2200 1050,-330 2070,-870 3060,-1440l1310 730c1380,-1950 6640,-5850 8840,-6410l5770 -2860 430 -1400 -630 90 -780 390z"/>
  <path class="fil78" d="M369070 -48460c520,-1770 -450,-820 1220,-880l5540 2010c4050,1400 10270,3950 13960,6090 2200,1280 4280,2930 6540,3830l-800 -2590c-1720,920 -2350,-380 -3070,-1540l-2420 -470c-730,-2410 -2600,-2580 -5270,-2710l-320 -1290c-2580,-450 -3230,-1690 -4560,-2010l-14430 -4540c300,1730 560,930 -390,2280l4000 1820z"/>
  <path class="fil80" d="M263250 -41350c-1640,800 -4620,4680 -5250,6740 1400,-1050 5200,-5090 6820,-6580 1710,-1580 6480,-4970 7270,-6570 -2200,560 -7460,4460 -8840,6410z"/>
  <path class="fil81" d="M414950 -2200l590 210 1010 -410 520 -530 500 -550 170 -580c-360,-670 200,-1040 -670,-50 -1690,430 -290,-270 -1530,730 -1860,1490 -810,730 -590,1180z"/>
  <path class="fil82" d="M325550 -59520c-2300,-120 -6190,-390 -7940,720l7940 -720z"/>
  <path class="fil82" d="M337530 -58840l1190 -130c-1660,-720 -3860,-610 -5830,-490l4640 620z"/>
  <polygon class="fil82" points="345170,-58490 342080,-59040 342080,-58360 "/>
  <g id="_3028547582720">
   <path class="fil83" d="M49670 1920c-440,-440 -1190,-600 -2070,-300 -600,220 -1350,680 -1560,1230 -990,560 -1490,3250 -1450,4350 130,4020 3290,5020 3320,8590 10,1090 -840,3690 -1690,4350 160,-1340 1860,-2920 530,-6060 -740,-1770 -2180,-2520 -2770,-4690 -580,-2130 -410,-4330 860,-6140 1800,-2590 4240,-2310 4910,-1580 700,750 760,1580 810,2360 400,10 3150,-1000 3920,1350 770,2350 -1090,3790 -1170,4150 -730,380 -1100,750 -1980,1000 -790,220 -1910,260 -2630,-50 690,-250 1730,-10 2900,-580 1650,-810 2900,-3050 1920,-4680 -480,-800 -1600,-860 -2710,-610 -540,130 -1040,480 -1300,840 -270,0 -200,60 -160,-230l30 -40c260,-160 800,-1020 900,-1460 120,-580 -180,-1370 -610,-1800z"/>
   <path class="fil84" d="M53310 9530l-530 550c-760,640 -630,160 -930,520 -300,370 20,210 20,210 -400,-110 -640,-80 -1010,190 190,60 150,180 60,-140l-630 100c30,100 30,80 20,120 -80,250 0,0 -110,0l-330 30c-830,10 -240,-20 -980,-260l-430 380c60,-30 190,330 70,-70 -110,-360 -260,-320 -630,-320l10 -460c470,150 70,130 630,-10l30 -4360c740,-280 50,-530 780,-790 -40,290 -110,230 160,230 -380,720 -450,3990 10,4650 1010,180 150,-130 820,-110 650,30 80,-170 620,-70l10 -640c-370,430 100,480 170,550l1280 -690c-1150,-800 -220,-2320 -590,-4620 -370,110 -630,180 -1020,90 520,-560 2230,-190 2710,610 980,1630 -270,3870 -1920,4680 -1170,570 -2210,330 -2900,580 720,310 1840,270 2630,50 880,-250 1250,-620 1980,-1000z"/>
   <path class="fil85" d="M49510 5450c260,-360 790,-830 1300,-840 390,90 650,20 1020,-90 370,2300 -560,3820 590,4620l-1280 690c-70,-70 -540,-120 -170,-550l-10 640c-540,-100 30,100 -620,70 -670,-20 190,290 -820,110 -460,-660 -390,-3930 -10,-4650z"/>
   <path class="fil84" d="M38890 15460l-460 90c-20,10 -50,30 -70,40 -290,180 -70,10 -110,210 10,-70 430,-30 -470,-230 0,590 0,1170 0,1760 0,770 -30,900 -130,1580l580 500c190,170 50,50 300,190l-130 130c-1470,-450 -2790,-1490 -2850,-3170 -100,-2160 2660,-2380 3340,-1100z"/>
   <path class="fil83" d="M38920 14710l670 1090 -700 -340c-680,-1280 -3440,-1060 -3340,1100 60,1680 1380,2720 2850,3170l1540 170c-510,300 -1940,200 -2530,10 -700,-230 -1260,-620 -1730,-1130 -1840,-1990 -500,-3540 -370,-4080 450,-200 840,-520 1380,-560 680,-50 1050,180 1620,210 -20,-710 -80,-700 100,-1420 1710,-2750 5470,10 5840,3630 320,3190 -1400,4390 -2400,5930l-730 1360c-10,30 -70,250 -80,250 -170,330 40,20 -220,220 -320,-2210 1780,-3840 2350,-6010 650,-2500 -780,-5650 -2140,-5780 -100,-170 180,-20 -230,-210 -60,-20 -310,-70 -370,-80 -1730,-240 -2370,1710 -1510,2470z"/>
   <path class="fil84" d="M49780 1800l-50 270c530,280 670,1070 550,1650 -100,440 -640,1300 -900,1460l-590 -200 0 -2680 -460 -610c-90,480 60,-700 -1370,580 -180,160 -200,90 -460,350 -280,290 -30,270 -460,230 210,-550 960,-1010 1560,-1230 1550,-530 1590,330 2180,180z"/>
   <path class="fil84" d="M41030 12530l-660 -110c-30,230 -150,360 20,200 -400,-70 -260,-80 -700,-100 10,260 30,1590 160,1740l10 -740 -670 -120c-90,370 -50,170 -80,520l-190 790c-700,-610 -200,-1220 -260,-1890 620,120 300,-780 1770,-580 60,10 310,60 370,80 410,190 130,40 230,210z"/>
   <path class="fil86" d="M38410 12930c-180,720 -120,710 -100,1420 -570,-30 -940,-260 -1620,-210 -540,40 -930,360 -1380,560l190 -350c140,-340 50,-130 -20,-190 690,180 -40,160 1010,-310l-150 -210c-490,-580 80,330 -120,-120 -10,-20 0,-240 -10,-270 -270,230 -60,30 10,310 100,-90 460,220 160,-310l40 310c120,-90 480,220 180,-310l140 230c260,350 -110,200 430,460 220,-350 190,50 140,-470 -220,350 0,160 170,310l100 -720c-340,250 270,-70 100,-220 540,200 320,260 720,20l10 70z"/>
   <path class="fil87" d="M51210 17660c10,-760 360,-1080 270,-2200 -60,-870 -390,-1220 -470,-1890 140,90 30,-60 240,210 870,1090 760,3720 -40,3880z"/>
   <path class="fil88" d="M51210 17660l-150 320c-10,-20 -120,120 -20,-170 90,-250 -20,-30 170,-150z"/>
  </g>
  <path class="fil89" d="M415540 -1990l-590 -210 0 740c760,-20 590,190 590,-530z"/>
  <polygon class="fil90" points="412660,-390 412660,-890 411840,-470 "/>
  <path class="fil91" d="M383130 -50500c0,-760 140,-500 -760,-410l760 410z"/>
  <polygon class="fil92" points="413460,-1040 412660,-890 412660,-390 "/>
  <path class="fil93" d="M243560 -950c0,-730 160,-490 -680,-440l680 440z"/>
  <path class="fil91" d="M399560 -42920c0,-770 190,-580 -590,-540l590 540z"/>
  <path class="fil92" d="M389570 -47980c0,-720 150,-500 -660,-440l660 440z"/>
  <path class="fil94" d="M237030 -6930l-470 -630c-20,780 -230,630 470,630z"/>
  <path class="fil92" d="M418020 -25900c20,-750 200,-570 -530,-570l530 570z"/>
  <path class="fil91" d="M398570 -43470c0,-710 160,-500 -610,-480l610 480z"/>
  <path class="fil94" d="M237570 -5980l-510 -570c-20,740 -200,570 510,570z"/>
  <path class="fil95" d="M412130 -33510c-60,-700 120,-520 -610,-470l610 470z"/>
  <path class="fil91" d="M239520 -3430c0,-710 180,-530 -540,-530l540 530z"/>
  <polygon class="fil91" points="373680,-53520 372980,-53950 372980,-53530 "/>
  <path class="fil96" d="M402560 -40950l-260 -580c-300,650 -420,480 260,580z"/>
  <path class="fil97" d="M251530 -38960c-700,30 -570,-120 -250,520l250 -520z"/>
  <polygon class="fil98" points="372980,-53530 372980,-53950 372370,-53950 "/>
  <polygon class="fil91" points="273040,-50050 273040,-50450 272490,-49960 "/>
  <polygon class="fil99" points="273520,-50480 273040,-50450 273040,-50050 "/>
  <polygon class="fil91" points="384570,-50010 383780,-50370 "/>
  <polygon class="fil100" points="272150,-49940 271380,-49560 "/>
  <polygon class="fil82" points="385710,-49590 385030,-49970 "/>
  <polygon class="fil101" points="270720,-49400 269950,-49000 "/>
  <polygon class="fil96" points="387150,-49030 386340,-49410 "/>
  <polygon class="fil102" points="267220,-47880 266510,-47480 "/>
  <polygon class="fil92" points="390580,-47480 389950,-47930 "/>
  <polygon class="fil89" points="266040,-47480 265400,-47020 "/>
  <polygon class="fil89" points="391670,-47040 390990,-47470 "/>
  <polygon class="fil103" points="265090,-46960 264440,-46520 "/>
  <polygon class="fil82" points="392630,-46530 392010,-46980 "/>
  <polygon class="fil82" points="264020,-46490 263430,-46020 "/>
  <polygon class="fil103" points="263060,-45970 262430,-45530 "/>
  <polygon class="fil82" points="394690,-45560 394100,-46030 "/>
  <polygon class="fil82" points="262010,-45490 261420,-45020 "/>
  <polygon class="fil104" points="261040,-44980 260440,-44510 "/>
  <polygon class="fil96" points="396630,-44510 396040,-45010 "/>
  <polygon class="fil89" points="260070,-44460 259510,-43960 "/>
  <polygon class="fil96" points="397600,-43980 397030,-44490 "/>
  <polygon class="fil91" points="258150,-43410 257500,-42980 "/>
  <polygon class="fil100" points="269520,-48980 268890,-48560 "/>
  <polygon class="fil93" points="257500,-42980 256960,-42540 "/>
  <polygon class="fil89" points="256530,-42480 256010,-41940 "/>
  <polygon class="fil94" points="313760,-58940 311390,-58500 "/>
  <polygon class="fil91" points="308620,-58530 306180,-57900 "/>
  <polygon class="fil96" points="401050,-41940 400560,-42500 "/>
  <polygon class="fil89" points="255040,-41500 254520,-40920 "/>
  <polygon class="fil92" points="350990,-57940 348890,-58480 "/>
  <polygon class="fil104" points="253580,-40460 252990,-39980 "/>
  <polygon class="fil96" points="404050,-39940 403560,-40510 "/>
  <polygon class="fil90" points="252990,-39980 252430,-39540 "/>
  <polygon class="fil92" points="252060,-39480 251530,-38960 "/>
  <polygon class="fil105" points="405520,-38900 405040,-39510 "/>
  <polygon class="fil101" points="304530,-58030 302520,-57480 "/>
  <polygon class="fil91" points="407550,-37480 407020,-37980 "/>
  <polygon class="fil89" points="354250,-57570 352480,-57990 "/>
  <polygon class="fil96" points="408040,-36920 407550,-37480 "/>
  <polygon class="fil104" points="249000,-37020 248540,-36460 "/>
  <polygon class="fil93" points="248540,-36460 248000,-35970 "/>
  <polygon class="fil90" points="248000,-35970 247480,-35480 "/>
  <polygon class="fil91" points="410540,-34950 410050,-35550 "/>
  <polygon class="fil105" points="411000,-34430 410540,-34950 "/>
  <polygon class="fil105" points="411520,-33980 411000,-34430 "/>
  <polygon class="fil101" points="357950,-56940 356540,-57530 "/>
  <polygon class="fil89" points="298200,-56930 297170,-56660 "/>
  <polygon class="fil100" points="243050,-30970 242500,-30500 "/>
  <polygon class="fil102" points="242500,-30500 242010,-29940 "/>
  <polygon class="fil98" points="415070,-30030 414560,-30470 "/>
  <polygon class="fil94" points="415580,-29500 415070,-30030 "/>
  <polygon class="fil89" points="360180,-56530 359030,-57000 "/>
  <polygon class="fil106" points="241070,-28470 240480,-27940 "/>
  <polygon class="fil92" points="295570,-56530 294140,-55920 "/>
  <polygon class="fil105" points="417090,-27500 416490,-27980 "/>
  <polygon class="fil104" points="240050,-26920 239490,-26490 "/>
  <polygon class="fil104" points="362890,-55900 361570,-56520 "/>
  <polygon class="fil89" points="365130,-55510 363980,-55990 "/>
  <polygon class="fil105" points="418550,-24960 418060,-25530 "/>
  <polygon class="fil90" points="238940,-25100 238450,-24600 "/>
  <polygon class="fil89" points="291250,-55530 289920,-55000 "/>
  <polygon class="fil96" points="419530,-22920 419040,-23510 "/>
  <polygon class="fil93" points="237940,-23110 237470,-22560 "/>
  <polygon class="fil101" points="419990,-21830 419570,-22550 "/>
  <polygon class="fil97" points="237460,-22060 237060,-21340 "/>
  <polygon class="fil94" points="367480,-54960 366450,-55480 "/>
  <polygon class="fil82" points="420510,-20310 420130,-21160 "/>
  <polygon class="fil107" points="236920,-20650 236520,-19930 "/>
  <polygon class="fil104" points="288720,-54910 287800,-54610 "/>
  <polygon class="fil91" points="421070,-18890 420490,-19910 "/>
  <polygon class="fil101" points="235980,-18420 236540,-19410 "/>
  <polygon class="fil92" points="421500,-16750 421020,-17940 "/>
  <polygon class="fil82" points="369250,-54590 368300,-54920 "/>
  <polygon class="fil82" points="235580,-15190 235960,-16710 "/>
  <polygon class="fil92" points="286510,-54550 285220,-53920 "/>
  <polygon class="fil89" points="371530,-54000 370540,-54490 "/>
  <polygon class="fil82" points="284340,-54030 283480,-53540 "/>
  <polygon class="fil89" points="282450,-53510 281600,-52960 "/>
  <polygon class="fil100" points="235940,-9730 235580,-10690 "/>
  <polygon class="fil96" points="419010,-23870 418560,-24510 "/>
  <polygon class="fil99" points="236450,-8260 236050,-9100 "/>
  <polygon class="fil96" points="375220,-53080 374360,-53410 "/>
  <polygon class="fil102" points="280640,-52940 279830,-52590 "/>
  <polygon class="fil102" points="419510,-5540 419050,-4940 "/>
  <polygon class="fil82" points="376710,-52570 375930,-52940 "/>
  <polygon class="fil93" points="419050,-4940 418530,-4410 "/>
  <polygon class="fil89" points="279170,-52420 278340,-52120 "/>
  <polygon class="fil90" points="417570,-3480 417070,-2930 "/>
  <polygon class="fil82" points="378290,-52120 377460,-52460 "/>
  <polygon class="fil89" points="417070,-2930 416550,-2400 "/>
  <polygon class="fil82" points="241480,-1910 241020,-2460 "/>
  <polygon class="fil103" points="277660,-51930 276880,-51540 "/>
  <polygon class="fil92" points="380120,-51500 379300,-51890 "/>
  <polygon class="fil96" points="276180,-51410 275430,-51030 "/>
  <polygon class="fil103" points="414640,-1440 413840,-1000 "/>
  <polygon class="fil100" points="245050,-430 244070,-1000 "/>
  <polygon class="fil94" points="381660,-51050 380820,-51400 "/>
  <polygon class="fil102" points="274700,-50900 273930,-50510 "/>
  <polygon class="fil89" points="421010,-9000 421590,-9960 "/>
  <g id="_3025360764624">
   <path class="fil108" d="M5380 29750c-420,430 -80,2570 20,3230 430,3880 2280,7520 4830,10450 6350,7270 18490,10670 28000,9840 2100,-190 2400,190 6520,-1010 8550,-2940 8930,-3160 9500,-3690 1530,-1430 950,-7090 470,-8840 -1890,-4500 -1660,-6400 -7860,-11130 -2310,-1730 -8390,-7310 -22810,-6280 -3250,530 -11400,-240 -18670,7430z"/>
   <path class="fil109" d="M1300 42030c80,2020 370,10720 14660,13350 3820,600 9280,830 13190,690 2930,220 16920,-1210 18720,-2490 2120,-710 3300,-1180 4250,-2010 2230,-2010 2740,-3770 2380,-3580 -3390,1820 -5290,2470 -6760,2990 -3130,1250 -6180,1990 -9510,2290 -9510,830 -21650,-2570 -28000,-9840 -2550,-2930 -5360,-9150 -4850,-12830 -430,530 -3310,2960 -3750,6290 -550,2720 -390,3610 -330,5140z"/>
   <path class="fil110" d="M28100 29820c-1790,-720 -3300,-1680 -5250,-2300 -930,-340 -2850,1730 -3560,2310l-4750 4450c190,760 3260,2530 4040,2980 1720,1000 3770,2000 5610,2770 870,-1330 1660,-2300 2600,-3540 570,-760 2430,-2540 3190,-3100l1710 -1330c-200,-500 -3270,-2120 -3590,-2240z"/>
   <path class="fil110" d="M26860 41100c1210,360 2530,790 3730,1090 1150,300 2250,550 3420,770 2550,480 5140,680 7740,600 150,-770 -2910,-4730 -3060,-5110 -540,-700 -3010,-3390 -3440,-3540 -570,-60 -6420,4250 -7610,5260 -250,210 -980,600 -780,930z"/>
   <path class="fil111" d="M24920 25640l70 -110c300,-350 2240,-1410 2770,-1690 490,-260 1000,-520 1500,-750 470,-220 1080,-700 1570,-390 930,600 1810,1160 2720,1780 900,610 1690,1350 2530,1950l2230 1960 -150 140c250,30 270,-110 130,820 -300,220 -1870,830 -2360,1060 -3230,1530 -1380,1700 -4340,-230 -2870,-1860 -3990,-2190 -6800,-3680 -40,-260 -60,-710 130,-860zm1620 14320c60,-100 1200,-1370 1480,-1650 1690,-1690 3630,-3320 5620,-4620 2360,-1540 6610,-3780 9340,-4290 690,-240 3250,-840 3880,-800l-910 -730 -320 -200c-930,-200 -2860,530 -3810,570l-490 -540c-80,60 -760,-360 -850,-500 -580,-190 -3280,-2840 -3570,-3400l-430 -390c-420,-330 -5500,-990 -6330,-1020 210,160 130,110 460,100 -1620,-20 -1080,-300 -2520,490 -340,180 -1880,1140 -2070,1150 -130,180 -2680,1830 -3110,2140 -2100,1500 -3800,3000 -5640,4780 -520,500 -2220,2270 -2510,2820l100 0 4430 -4040c560,-450 1090,-920 1660,-1380 270,-210 540,-430 820,-650 440,-350 490,-550 1080,-280 920,290 1890,710 2780,1100 790,340 1960,1030 2690,1280 210,320 3170,1660 3370,2160 90,170 40,730 -80,900 -70,90 -510,390 -630,490 -430,310 -850,680 -1270,1010 -400,250 -1590,1410 -1930,1770 -290,310 -630,660 -910,990 -210,250 -620,790 -840,1000 -1190,1320 -3210,4750 -3680,6480 240,-140 890,-790 1190,-1050 490,-420 630,-630 980,-1150 340,-500 1850,-2240 2020,-2540z"/>
   <path class="fil110" d="M48560 40320l-40 670 -420 -790c-550,-450 -2550,-3470 -3170,-4300 -630,-820 -2630,-3500 -3310,-4020 -290,-130 -4280,1590 -4350,1980 360,530 1310,1410 1790,1990 570,690 1070,1460 1560,2230 940,1520 1780,3620 2140,5380 220,80 90,40 360,20 160,-10 300,-20 460,-40 330,-40 630,-60 970,-80l-30 -220c60,-520 100,-1330 840,-1220 420,50 1030,490 1290,800 360,270 640,130 1110,0 2210,-600 3960,-1280 5940,-2410 220,-120 710,-580 780,-340l-10 -370c40,-290 -220,-1370 -340,-1650l-230 -770 -940 -2770c-100,-230 -200,-550 -340,-750l-1290 -1790c-160,-250 0,-110 -370,-460 -380,-370 -220,-500 -1290,-1390l-510 70 -410 90c-500,-20 -680,50 -1190,80 -510,100 -1040,170 -1560,270 -260,40 -530,110 -780,170 -240,60 -670,60 -720,290 770,1130 1430,2250 1990,3530 290,640 550,1270 790,1930 130,350 1180,3970 1280,3870z"/>
   <path class="fil110" d="M13200 31710c300,-270 1280,-2030 2310,-2890 260,-210 400,-460 680,-690 260,-210 490,-440 760,-660 440,-360 1250,-840 1600,-1180l-10 -80 -5030 -970c-260,0 -1170,330 -1370,500 90,260 -180,1080 -200,1490 -40,640 -30,1260 60,1880 60,510 600,2740 990,2860l210 -260z"/>
   <path class="fil112" d="M38160 28530l-370 120c-90,70 -1820,850 -2100,980 -2840,1370 -1020,1610 -4040,-340 -2630,-1700 -3960,-2250 -6730,-3650 -190,150 -170,600 -130,860 2810,1490 3930,1820 6800,3680 2960,1930 1110,1760 4340,230 490,-230 2060,-840 2360,-1060 140,-930 120,-790 -130,-820z"/>
   <path class="fil113" d="M53930 37380l310 1100c120,280 270,830 230,1120l50 200c390,520 650,4530 550,5310 -60,880 -210,2090 -570,2880l-500 1160c-840,1190 -1250,1820 -2530,2600 -910,550 -2600,1270 -3630,1530 -100,100 30,70 -170,40 130,180 -50,30 120,110 20,10 200,50 210,60l180 -10c-120,90 -90,-10 10,110 -60,40 -290,80 -400,180 -130,110 -60,-80 -90,130l510 -80c520,0 200,-80 530,-120l180 -90 140 -30c0,-90 -20,-60 100,-60l460 -180 130 -60c70,-40 290,-150 350,-170l120 -70 150 -50 90 -60 150 -60 90 -50 120 -70 110 -70c130,-100 350,-260 510,-280 0,-90 -20,-60 80,-60l150 -60c0,-100 -20,-70 90,-70l280 -170c0,-90 -20,-70 80,-70l270 -160c0,-100 -20,-70 80,-70l60 -50 60 -60 270 -180c0,-90 -10,-60 90,-60l50 -60 -20 -80c-190,-40 -140,-50 -260,-160l1080 -1330c350,-490 1120,-2060 1170,-2700 130,-30 190,160 160,0 -40,-270 -20,-300 80,-420 180,230 180,200 200,530 20,300 -60,290 140,370 60,-300 60,90 110,-300 30,-220 -40,-220 60,-410l70 -160 60 -550c0,-120 -40,-100 60,-100 0,-840 150,-2180 -80,-2900 -80,-270 -10,-450 -50,-720 -60,-410 -40,130 -110,-660 -20,-210 -240,-880 -240,-1280l-20 0c-20,380 30,80 -140,210l-50 -410c-210,70 -160,100 -100,340 20,-190 -110,-590 -140,-860 -250,150 -110,60 -250,270 230,-130 -210,-20 190,-210 -50,-280 -120,-470 -180,-720l-80 -240c-10,-20 -20,-30 -20,-50 -10,-10 -10,-20 -20,-40l-450 -1540 -270 -30 30 200zm-13720 17840l-1710 370c280,0 560,10 830,10 480,-10 240,-130 760,-130 230,0 630,30 830,0 430,-60 -120,-100 780,-110l1480 -240c210,0 200,10 370,-40 210,-70 870,-200 1170,-190l110 -120 -80 -100c250,-390 610,-260 1010,-450 270,-130 150,-110 550,-160 320,-30 380,-80 580,-120 -60,-680 110,-330 -300,-630l-270 -590c200,-90 730,-430 850,-390 410,150 320,650 520,940l50 -100c10,-740 -380,-1350 -1150,-860 -970,630 30,1030 140,1320 -830,420 -5300,1280 -6520,1590zm6680 -1280c270,10 550,-110 720,-230 210,-150 -60,-10 80,-40 10,0 30,0 40,0l270 -180c-10,-10 -190,-50 -210,-60 -170,-80 10,70 -120,-110l20 -50c-200,-290 -110,-790 -520,-940 -120,-40 -650,300 -850,390l270 590c410,300 240,-50 300,630zm0 0c-200,40 -260,90 -580,120 -400,50 -280,30 -550,160 -400,190 -760,60 -1010,450l80 100c730,0 940,-240 1340,-240l140 -70c160,-80 270,-40 480,-110l1150 -380c20,-10 120,-50 140,-60 180,-100 -30,110 130,-90l-510 80c30,-210 -40,-20 90,-130 110,-100 340,-140 400,-180 -100,-120 -130,-20 -10,-110l-180 10 -270 180c-10,0 -30,0 -40,0 -140,30 130,-110 -80,40 -170,120 -450,240 -720,230zm6090 -2690c-10,-570 540,-380 1370,-1690l130 -160c170,-220 160,-160 230,-440l250 -60c170,30 80,10 160,-130 110,-170 40,-130 140,-280l50 -90c0,-280 220,-570 240,-860 -200,-80 -120,-70 -140,-370 -20,-330 -20,-300 -200,-530 -100,120 -120,150 -80,420 30,160 -30,-30 -160,0 -50,640 -820,2210 -1170,2700l-1080 1330c120,110 70,120 260,160zm0 0l80 20 50 -60 70 -50c150,-150 200,-280 410,-300l70 -60 50 -60 60 -60 60 -60 60 -60 60 -60 60 -50 60 -70 60 -50 60 -60 60 -60c20,-230 140,-260 300,-420l50 -60c30,-200 60,-170 180,-290l60 -70c40,-320 10,-10 120,-280l0 -190 -250 60c-70,280 -60,220 -230,440l-130 160c-830,1310 -1380,1120 -1370,1690zm920 -14070l270 30 450 1540c10,20 10,30 20,40 0,20 10,30 20,50l80 240c60,250 130,440 180,720 -400,190 40,80 -190,210 140,-210 0,-120 250,-270 30,270 160,670 140,860 -60,-240 -110,-270 100,-340l50 410c170,-130 120,170 140,-210l-50 -140c-70,-140 -280,-1000 -280,-1210 -90,0 -60,20 -60,-90 -40,-70 -420,-1230 -420,-1330 -90,0 -60,20 -60,-90l-50 -270c-100,0 -70,20 -70,-90 -90,-150 -170,-300 -170,-500 -90,0 -60,10 -60,-90 -80,-130 -290,-540 -300,-710l-80 -120 -40 -150c-90,0 -60,20 -60,-90l-50 -140c-100,0 -60,10 -60,-90l-60 -160 -60 -80 -60 -150 -60 -90 -60 -160 -50 -70c-220,-220 -130,-290 -310,-360l0 90 960 2810z"/>
   <path class="fil114" d="M42290 27530c850,-350 2880,-350 3430,-590 -40,-180 -250,-270 -390,-380 -10,0 -180,-130 -210,-150l-2990 -1630c-440,-210 -970,-360 -1380,-560l-2580 -830c-140,230 1330,1620 1750,2010 360,590 1550,1570 1900,2130l470 0z"/>
   <path class="fil110" d="M24920 25640c1620,1300 4100,1950 6730,3650 3020,1950 1200,1710 4040,340 750,-360 1510,-560 2170,-1000 60,-40 400,-190 450,-240l-2060 -1810c-850,-600 -1800,-1490 -2700,-2100 -910,-620 -1790,-1180 -2720,-1780 -490,-310 -1100,170 -1570,390 -500,230 -1010,490 -1500,750 -530,280 -2760,1560 -2840,1800z"/>
   <path class="fil115" d="M48100 40200l420 790 50 -60 -590 -2450c-210,-370 -510,-1530 -700,-2030 -240,-660 -500,-1290 -790,-1930 -560,-1280 -1220,-2400 -1990,-3530l-110 -60c-160,950 430,1540 870,2330 930,1660 2620,5260 2840,6940z"/>
   <path class="fil116" d="M35460 46920c110,-450 320,-620 230,-1190 -100,-540 -400,-690 -480,-960 -400,-180 -750,-550 -1140,0 -470,630 -420,1790 260,2270 530,380 740,120 1130,-120z"/>
   <path class="fil117" d="M37340 40380c240,1630 1970,1030 1860,0 -100,-1000 -2130,-1710 -1860,0z"/>
   <path class="fil117" d="M52040 35700l200 -80c220,-440 570,-730 90,-1320 -840,-1000 -2020,-460 -1480,900 250,660 560,600 1190,500z"/>
   <path class="fil114" d="M21360 22530c-270,120 -740,290 -1020,400 -450,170 -810,250 -1250,450 -260,110 1660,600 1910,690 710,260 500,280 1150,-100 730,-410 1440,-780 2170,-1160 360,-190 1340,-580 1550,-840 -760,0 -2460,130 -3170,240 -470,70 -950,150 -1340,320z"/>
   <path class="fil116" d="M8770 33300c190,-300 280,-290 230,-720 -40,-420 -240,-480 -280,-660 -330,-130 -500,-330 -930,-210 -330,90 -410,400 -370,720 90,700 700,1030 1350,870z"/>
   <path class="fil116" d="M17710 40930l260 -200c190,-390 450,-740 230,-1190 -470,-680 -2110,630 -1420,1360 240,260 640,90 930,30z"/>
   <path class="fil118" d="M26030 38220c220,-210 630,-750 840,-1000 280,-330 620,-680 910,-990 340,-360 1530,-1520 1930,-1770 420,-320 840,-690 1270,-1010 120,-100 560,-400 630,-490 120,-170 170,-730 80,-900l-1800 1400c-760,570 -2530,2270 -3100,3030 -430,570 -930,1110 -1370,1710 -430,590 -820,1210 -1230,1830l-250 530c-380,290 -1940,3960 -1930,4470l340 -330c470,-1730 2490,-5160 3680,-6480z"/>
   <path class="fil117" d="M33620 26950l210 -180c10,160 -70,140 200,110 360,-50 100,-70 310,-200 40,60 170,390 170,400l20 330c-10,150 -10,280 -250,280 -290,10 -200,-60 -120,-160l-420 -60c70,-80 70,-250 50,-320l-170 -200zm-340 280c110,800 1810,1510 1750,0 -50,-1470 -1860,-770 -1750,0zm510 -80c20,70 20,240 -50,320l420 60c-80,100 -170,170 120,160 240,0 240,-130 250,-280l-20 -330c0,-10 -130,-340 -170,-400 -210,130 50,150 -310,200 -270,30 -190,50 -200,-110l-210 180 170 200z"/>
   <path class="fil119" d="M49820 47060c-210,20 -390,10 -500,-170 -80,-140 -10,70 -30,-110l-60 -260c110,250 -20,130 -140,100 -140,-220 -20,-70 -80,-250 -40,-120 -10,-30 -60,-130 0,-10 -50,-80 -70,-120 220,-10 -90,70 160,20 130,-20 0,0 80,-40 330,-150 370,-30 580,-200l40 150c0,10 10,20 10,30 10,10 20,20 20,30 180,350 90,340 50,950zm-680 -1260c-1070,400 170,2200 710,1860 440,-290 970,-2490 -710,-1860zm680 1260c40,-610 130,-600 -50,-950 0,-10 -10,-20 -20,-30 0,-10 -10,-20 -10,-30l-40 -150c-210,170 -250,50 -580,200 -80,40 50,20 -80,40 -250,50 60,-30 -160,-20 20,40 70,110 70,120 50,100 20,10 60,130 60,180 -60,30 80,250 120,30 250,150 140,-100l60 260c20,180 -50,-30 30,110 110,180 290,190 500,170z"/>
   <path class="fil120" d="M38860 46300c170,760 1730,770 1470,-280 -200,-770 -1690,-740 -1470,280z"/>
   <path class="fil116" d="M53600 47200c20,-830 -40,-1020 -970,-1060 -310,330 -600,530 -140,1090 400,500 740,230 1110,-30z"/>
   <path class="fil117" d="M52120 37480c-550,-300 -250,-170 -880,-260 -240,280 -330,130 -310,670 10,660 530,850 1050,400 320,-270 220,-440 140,-810z"/>
   <path class="fil117" d="M22620 37230c-360,350 10,1590 820,1000 660,-480 -380,-1430 -820,-1000z"/>
   <path class="fil117" d="M20140 34020c-420,540 -60,1520 690,1120 590,-310 220,-1220 -690,-1120z"/>
   <path class="fil117" d="M46880 32210c50,300 1150,1080 1330,170 180,-940 -1410,-720 -1330,-170z"/>
   <path class="fil116" d="M53470 44210c0,0 -200,1020 480,1040 490,20 700,-590 610,-980 -510,-400 -710,-70 -1090,-60z"/>
   <path class="fil120" d="M51740 43840c-740,290 -520,1410 210,1120 700,-290 580,-1430 -210,-1120z"/>
   <path class="fil121" d="M42080 35180c-800,360 -480,1420 210,1120 620,-280 610,-1470 -210,-1120z"/>
   <path class="fil117" d="M24560 33130c-200,270 -110,550 100,780 360,380 410,60 680,70 140,-280 330,-450 240,-810 -230,-380 -710,-350 -1020,-40z"/>
   <path class="fil117" d="M22800 32660c-730,290 -550,1460 210,1110 580,-260 550,-1410 -210,-1110z"/>
   <path class="fil118" d="M11720 34540c-230,260 -970,2690 -1000,3150 250,-80 290,-540 370,-800 90,-280 200,-600 310,-870 120,-290 670,-1410 680,-1600 560,-570 1040,-2410 4600,-5740 480,-450 1560,-1140 1900,-1520 60,-260 150,-710 -30,-870 -350,340 -1160,820 -1600,1180 -270,220 -500,450 -760,660 -280,230 -420,480 -680,690 -1030,860 -2160,2790 -2470,3070l-50 80c-280,780 -1040,1670 -1270,2570z"/>
   <path class="fil121" d="M23930 34320c-570,300 -40,1270 560,880 420,-270 90,-1220 -560,-880z"/>
   <path class="fil121" d="M35010 38650c-650,310 -110,1240 420,980 520,-260 170,-1260 -420,-980z"/>
   <path class="fil119" d="M16450 42460c30,-290 60,-330 -40,-630 -640,-670 -1300,290 -540,810 390,30 290,-20 580,-180z"/>
   <path class="fil118" d="M42610 43990c0,0 380,2380 620,2620 20,-850 -280,-2290 -470,-3150 -10,-10 -70,-30 -80,-30 -30,0 -80,-20 -100,140 -20,240 50,170 30,420zm-3690 -7130c400,240 1820,2670 2120,3230 310,590 610,1260 850,1880 130,350 600,1880 720,2020 20,-250 -50,-180 -30,-420 20,-160 70,-140 100,-140 10,0 70,20 80,30 -360,-1760 -1200,-3860 -2140,-5380 -490,-770 -990,-1540 -1560,-2230 -480,-580 -1430,-1460 -1790,-1990l-140 -10c-90,1090 50,910 690,1640 250,280 990,1050 1100,1370z"/>
   <path class="fil122" d="M45090 42540c0,0 190,-220 0,720 -10,50 110,-90 -20,80l620 20c-230,-240 -130,-40 -40,-250 280,80 240,230 540,60 10,-440 -150,-330 -440,-500 -260,-150 -250,-390 -660,-130zm0 720c190,-940 0,-720 0,-720 410,-260 400,-20 660,130 290,170 450,60 440,500 -300,170 -260,20 -540,-60 -90,210 -190,10 40,250l-620 -20c130,-170 10,-30 20,-80zm-570 -120c140,170 180,380 440,490 250,110 570,80 840,30 590,-120 1120,-270 850,-940 -260,-310 -870,-750 -1290,-800 -740,-110 -780,700 -840,1220z"/>
   <path class="fil123" d="M54240 38480l-310 -1100 -270 -10c-250,250 -420,440 -200,840 60,100 180,200 290,240 260,80 300,50 350,-100l140 130z"/>
   <path class="fil121" d="M30540 26140c-500,230 -350,1000 230,760 420,-180 400,-1060 -230,-760z"/>
   <path class="fil121" d="M47150 40730c-720,-290 -980,760 -130,760 230,-240 360,-460 130,-760z"/>
   <path class="fil124" d="M3540 38290c290,130 540,110 720,-170 -30,-340 -230,-500 -580,-460 -190,220 -240,350 -140,630z"/>
   <path class="fil121" d="M43850 40830c110,150 280,100 430,140 150,-300 320,-400 140,-770 -530,-170 -640,180 -570,630z"/>
   <path class="fil121" d="M51500 32720l-40 -80c-310,-70 -680,-190 -580,320 70,330 330,420 630,290 90,-270 50,-260 -10,-530z"/>
   <path class="fil125" d="M19290 43590c170,120 470,30 480,-230 -60,-250 -60,-380 -270,-450l-320 -80c-90,350 -30,500 110,760zm0 0c-140,-260 -200,-410 -110,-760l320 80c210,70 210,200 270,450 180,-190 80,-330 20,-590l-80 -90c-1020,-370 -1000,720 -420,910z"/>
   <path class="fil126" d="M4970 39020c40,520 160,580 600,320 100,-590 -210,-650 -600,-320z"/>
   <path class="fil121" d="M31840 25460c-250,210 130,760 430,460 230,-250 -100,-750 -430,-460z"/>
   <path class="fil127" d="M28900 47410c-30,-320 -40,-130 60,-410 510,-150 570,190 390,560 430,-160 170,-620 -120,-710 -390,-120 -650,250 -330,560zm0 0c190,160 190,150 450,150 180,-370 120,-710 -390,-560 -100,280 -90,90 -60,410z"/>
   <polygon class="fil128" points="38140,23360 38100,23260 37960,23270 "/>
   <path class="fil129" d="M54600 37690c0,-110 40,-90 -60,-90 0,110 -30,90 60,90z"/>
   <path class="fil130" d="M53770 35670c0,-110 40,-90 -60,-90 0,110 -30,90 60,90z"/>
   <path class="fil131" d="M54490 37330c0,-110 30,-90 -70,-90 0,110 -30,90 70,90z"/>
   <path class="fil130" d="M53660 35440c0,-110 30,-90 -60,-90 0,100 -40,90 60,90z"/>
   <polygon class="fil132" points="48520,40990 48630,41090 48570,40930 "/>
   <path class="fil133" d="M54250 36740c0,-110 30,-90 -60,-90 0,100 -30,90 60,90z"/>
   <path class="fil134" d="M53890 35940c0,-210 30,-70 -80,-120l80 120z"/>
   <polygon class="fil131" points="53300,34710 53250,34640 "/>
   <polygon class="fil135" points="53420,34960 53360,34870 "/>
   <polygon class="fil133" points="53540,35190 53480,35110 "/>
   <g>
    <path class="fil136" d="M5820 28770c-670,670 -1260,1330 -1900,2020 -780,820 -1410,2060 -2010,3030 -430,850 -770,1790 -1080,2690 -230,690 -500,2400 -570,3130 10,1080 70,1720 110,2810 0,250 200,920 230,1140 40,280 310,1590 440,1820 340,740 460,1580 850,2330 300,570 670,1440 1020,1930 130,130 1130,1340 1130,1370 360,360 780,650 1130,1000 320,310 1250,770 1680,1070 470,220 950,410 1420,630l2000 660c310,70 630,170 900,230 530,110 1250,310 1760,370 470,60 960,180 1360,230 460,60 900,140 1360,180l310 -30 -610 -210 -1670 -440c-2680,-450 -6590,-2080 -8460,-4100 -2920,-3160 -3660,-9840 -3780,-9960 0,0 -200,-730 90,-740l140 140c630,180 1100,-190 880,-760 -70,-290 -180,-450 -500,-400 -300,50 -310,210 -480,350 -40,-440 100,-1070 240,-1550 220,360 470,330 870,-50 40,-370 -180,-490 -520,-520l-220 40c120,-400 230,-1170 330,-1120 60,30 60,60 110,110 240,120 460,200 810,20 440,-260 460,-1540 -530,-1120 260,-1380 1930,-3350 2770,-4530 1650,-1840 4210,-4020 6710,-4800 200,-170 1110,-500 1370,-500 380,-310 3710,-1260 4270,-1280 340,-10 1700,490 2100,630 340,120 680,240 1010,360 500,180 550,350 1020,20 1050,-720 2240,-1530 3340,-2170 970,-560 1120,-460 2240,-500 910,-40 1760,10 2660,90 830,30 5910,690 6330,1020 350,-30 940,140 1290,240 510,180 2120,2240 2560,2770l100 -210c320,320 490,490 780,870 120,170 210,280 420,340 30,10 600,130 460,-80l-260 10c-290,-460 -1370,-1690 -1760,-2050 -410,-390 -1660,-1520 -1900,-1910l-30 -30 -180 -90 -3180 -720c-400,-60 20,-50 -370,-100 -140,-20 -250,0 -400,-20 -310,-70 70,-70 -360,-110 -130,-10 -290,10 -410,0 -410,-60 30,-50 -370,-110 -210,-40 -700,-10 -940,-10l-110 -130c-240,20 -480,10 -720,20 -480,0 -390,-50 -670,-110l-4560 -10c-210,260 -1190,650 -1550,840 -730,380 -1440,750 -2170,1160 -650,380 -440,360 -1150,100 -370,-130 -890,-230 -1170,-460 -210,10 -560,-100 -740,-230l130 -120c300,20 770,-220 1090,-320 310,-110 940,-430 1240,-430l130 -90 -80 -100c-290,40 0,120 -500,120 -680,0 -340,30 -560,90 -210,60 -420,0 -620,40 -300,60 40,30 -260,90 -570,130 -350,-230 -460,190 -230,-90 -350,-80 -550,-20 -340,120 -230,40 -570,90 -530,70 -3310,900 -3880,1090 -270,90 -660,200 -920,320l-890 360c-280,90 -650,350 -880,350l-130 80 -110 40 -120 70 -150 50 -90 60 -150 60c0,90 20,60 -90,60l-140 60 -90 60 -150 60c0,90 20,50 -90,50 -200,190 -80,40 -80,180l-320 80c-240,100 -130,130 -350,160 0,90 20,60 -80,60l-150 60c0,90 20,60 -90,60 -110,100 -100,150 -270,180l-3040 2300zm34510 -2350l1000 1280 490 540c950,-40 2880,-770 3810,-570 -30,-570 -300,-530 -320,-630 0,-20 -20,-30 -30,-40 350,-170 210,-100 580,270l270 210c240,110 60,20 250,210l70 60c110,120 80,0 150,200 -310,170 -260,0 -650,-80l910 730 80 90c230,50 810,570 1020,740 460,370 560,690 1200,660l510 -70 -390 -420 -60 -60 -60 -60 -70 -50 -50 -60 -60 -60 -60 -60 -60 -60 -60 -60c-80,0 -60,30 -60,-60l-60 -50c-90,0 -60,20 -60,-70l-60 -50c-90,0 -60,20 -60,-70 -400,-50 20,-100 -290,-60l-260 -100c-160,130 -70,100 -250,30 -240,-100 -100,-20 -380,-40 120,-170 110,0 -210,-600 -10,-10 -40,-60 -50,-80 -40,-50 -60,-60 -90,-80l-360 -370c20,-140 150,10 -60,-180l-60 -60 -60 -50c-90,0 -70,20 -70,-60l-160 -60c-100,0 -80,20 -80,-60l-40 -60c-100,0 -70,30 -70,-60l-170 -60c-100,0 -80,30 -80,-60l-40 -50c-100,0 -70,30 -70,-70l-180 0c-560,240 -2530,290 -3380,640 140,210 -430,90 -460,80 -210,-60 -300,-170 -420,-340 -290,-380 -460,-550 -780,-870l-100 210zm7880 2350l0 -120 -60 -50 -60 -60 -60 -60 -60 -60 -60 -60 -60 -60c-80,0 -60,20 -60,-60 -190,-20 -170,-60 -290,-180l-70 -60 -50 -50 -60 -60 -60 -60c-100,0 -80,30 -80,-60 -170,-30 -160,-70 -270,-180l-60 -60 -240 0 360 370c30,20 50,30 90,80 10,20 40,70 50,80 320,600 330,430 210,600 280,20 140,-60 380,40 180,70 90,100 250,-30l260 100zm-2580 -1100l320 200c390,80 340,250 650,80 -70,-200 -40,-80 -150,-200l-70 -60c-190,-190 -10,-100 -250,-210l-270 -210c-370,-370 -230,-440 -580,-270 10,10 30,20 30,40 20,100 290,60 320,630z"/>
   </g>
   <path class="fil137" d="M23630 54020c340,500 610,1440 1480,910 510,-320 1070,-1380 360,-1820 -200,-320 -920,-220 -1250,-70 -600,260 -470,520 -590,980z"/>
   <path class="fil116" d="M27340 47230c-370,-90 -1670,170 -540,880 950,600 1140,-750 540,-880z"/>
   <path class="fil112" d="M22510 55050c1510,-310 -200,-1850 -640,-1050 -140,110 -80,340 -70,530 120,470 240,590 710,520z"/>
   <path class="fil116" d="M26360 50020l170 -80c60,-200 180,-400 50,-600 -130,-180 -460,-190 -650,-100 -320,160 -420,850 430,780z"/>
   <path class="fil126" d="M22570 51990c-390,190 -340,690 0,700 350,20 490,-310 430,-620l-130 -150c-140,-10 -230,-50 -300,70z"/>
   <path class="fil127" d="M28320 50370c-80,-310 70,-420 390,-410l-80 570 -210 -40c150,210 230,120 440,40 180,-250 160,-470 -50,-710 -340,-30 -380,-40 -640,160 -20,250 -40,250 150,390zm0 0l100 120 210 40 80 -570c-320,-10 -470,100 -390,410z"/>
   <path class="fil119" d="M27970 49260l70 70c440,120 610,-200 400,-490 -90,-110 -270,-140 -380,-80 -180,100 -110,340 -90,500z"/>
   <path class="fil138" d="M48580 51610c-250,350 -460,550 -120,1000 540,140 560,-150 840,-370 -40,-780 -60,-680 -720,-630z"/>
   <path class="fil138" d="M44780 51860l-30 400c380,270 710,70 720,-380l-10 -130c-350,-250 -350,-160 -680,110z"/>
   <path class="fil118" d="M44840 53280c-430,-30 -450,240 -230,560l330 -40c90,-240 90,-340 -100,-520z"/>
  </g>
 </g>
</svg>
