<?xml version="1.0" encoding="UTF-8"?>
<!DOCTYPE svg PUBLIC "-//W3C//DTD SVG 1.1//EN" "http://www.w3.org/Graphics/SVG/1.1/DTD/svg11.dtd">
<!-- Creator: CorelDRAW -->
<svg xmlns="http://www.w3.org/2000/svg" xml:space="preserve" width="56px" height="56px" version="1.1" style="shape-rendering:geometricPrecision; text-rendering:geometricPrecision; image-rendering:optimizeQuality; fill-rule:evenodd; clip-rule:evenodd"
viewBox="0 0 56000 56000"
 xmlns:xlink="http://www.w3.org/1999/xlink"
 xmlns:xodm="http://www.corel.com/coreldraw/odm/2003">
 <defs>
  <style type="text/css">
   <![CDATA[
    .fil1 {fill:#DDDBDA}
    .fil0 {fill:white}
   ]]>
  </style>
 </defs>
 <g id="Слой_x0020_1">
  <metadata id="CorelCorpID_0Corel-Layer"/>
 </g>
 <g id="Слой_x0020_1_0">
  <metadata id="CorelCorpID_1Corel-Layer"/>
 </g>
 <g id="Слой_x0020_1_0_31">
  <metadata id="CorelCorpID_2Corel-Layer"/>
 </g>
 <g id="Слой_x0020_1_0_3">
  <metadata id="CorelCorpID_3Corel-Layer"/>
  <path class="fil0" d="M43000 8000c6130,-5810 8110,-5880 9100,-4440 680,1000 -1100,-560 -2100,6440 -300,2090 -12000,4000 -10000,1000 -4680,5930 2000,2000 -1000,11000 1000,4000 -540,4070 0,6000 1250,-2200 2000,-12000 2000,-13000 3090,-1840 -2310,610 1000,-2000 2000,4000 10890,-5850 11000,-10000 150,-5910 -20240,11060 -14000,0 2900,-5150 -2380,-2450 -3000,-2000 -3770,2690 -4730,1380 -5000,2000 680,1390 0,-1600 -3000,0 -1360,720 1080,2130 2000,1000 870,-1070 2370,1550 1240,-620 460,-640 2470,-1020 5760,-2380 1630,-670 -1510,1940 -1000,4000 1000,4000 6280,3680 7000,3000z"/>
  <path class="fil0" d="M7000 -2000c1650,-270 22000,-2000 19000,1000 -3000,4000 -4080,5890 -4080,5890 1180,430 80,110 12080,2110 -1000,-1000 -8000,-2000 -11000,-2000 -1050,0 6000,-7010 4000,-8000 -350,-180 -15630,-40 -16000,0 -4620,450 -4830,420 -6000,1000 -1060,530 7540,1300 10000,6000 1220,2340 3480,7680 3000,11000 -370,2590 3980,4840 6000,5000 2060,160 -3490,4890 -2000,5000 3450,260 1550,-3770 5000,-5000 2980,-1060 11500,690 12400,510 1390,-280 -14510,-2290 -16720,-2000 -3680,490 -4680,-13510 -5680,-14510 -7210,-7210 -11650,-5730 -10000,-6000z"/>
  <path class="fil0" d="M56000 30240c-8000,-5240 -22050,-8100 -8000,-14240 1240,-2600 -5890,7060 -5000,5000 770,1540 16040,10290 13000,9240z"/>
  <path class="fil1" d="M51210 17660l-150 320c-10,-20 -120,120 -20,-170 90,-250 -20,-30 170,-150z"/>
 </g>
</svg>
