<?xml version="1.0" encoding="UTF-8"?>
<!DOCTYPE svg PUBLIC "-//W3C//DTD SVG 1.1//EN" "http://www.w3.org/Graphics/SVG/1.1/DTD/svg11.dtd">
<!-- Creator: CorelDRAW -->
<svg xmlns="http://www.w3.org/2000/svg" xml:space="preserve" width="56px" height="56px" version="1.1" style="shape-rendering:geometricPrecision; text-rendering:geometricPrecision; image-rendering:optimizeQuality; fill-rule:evenodd; clip-rule:evenodd"
viewBox="0 0 56000 56000"
 xmlns:xlink="http://www.w3.org/1999/xlink"
 xmlns:xodm="http://www.corel.com/coreldraw/odm/2003">
 <defs>
  <style type="text/css">
   <![CDATA[
    .fil0 {fill:white}
   ]]>
  </style>
 </defs>
 <g id="Слой_x0020_1">
  <metadata id="CorelCorpID_0Corel-Layer"/>
 </g>
 <g id="Слой_x0020_1_0">
  <metadata id="CorelCorpID_1Corel-Layer"/>
 </g>
 <g id="Слой_x0020_1_0_145">
  <metadata id="CorelCorpID_2Corel-Layer"/>
 </g>
 <g id="Слой_x0020_1_0_3">
  <metadata id="CorelCorpID_3Corel-Layer"/>
 </g>
 <g id="Слой_x0020_1_0_3_146">
  <metadata id="CorelCorpID_4Corel-Layer"/>
 </g>
 <g id="Слой_x0020_1_0_3_147">
  <metadata id="CorelCorpID_5Corel-Layer"/>
 </g>
 <g id="Слой_x0020_1_0_3_148">
  <metadata id="CorelCorpID_6Corel-Layer"/>
 </g>
 <g id="Слой_x0020_1_0_3_149">
  <metadata id="CorelCorpID_7Corel-Layer"/>
 </g>
 <g id="Слой_x0020_1_0_3_150">
  <metadata id="CorelCorpID_8Corel-Layer"/>
 </g>
 <g id="Слой_x0020_1_0_3_151">
  <metadata id="CorelCorpID_9Corel-Layer"/>
 </g>
 <g id="Слой_x0020_1_0_3_152">
  <metadata id="CorelCorpID_10Corel-Layer"/>
 </g>
 <g id="Слой_x0020_1_0_3_153">
  <metadata id="CorelCorpID_11Corel-Layer"/>
 </g>
 <g id="Слой_x0020_1_0_3_154">
  <metadata id="CorelCorpID_12Corel-Layer"/>
 </g>
 <g id="Слой_x0020_1_0_3_155">
  <metadata id="CorelCorpID_13Corel-Layer"/>
  <path class="fil0" d="M47230 32740c1290,-2220 2860,-2570 4500,-6000 1270,-2660 850,-4230 1760,-6340 270,520 190,-110 360,1020 730,4680 -4020,12200 -6620,11320zm2820 -31740c1190,-190 2520,420 3530,1890 700,1010 1310,2570 1010,3670 880,1970 -1390,6690 -2700,8350 -4780,6050 -10770,4000 -14890,9460 -1260,1680 -2880,6660 -2330,8630 1280,-2250 450,-6610 6060,-9950 3160,-1860 6240,-1400 9620,-4080 3310,-2610 5540,-6200 5640,-10440 170,-6030 -3910,-8380 -5790,-8020 -1920,370 -2950,1590 -3920,2710 -630,-430 -3710,-5110 -7580,-2350 -3850,2740 -2620,7080 -2900,7720 690,1420 840,2420 1910,3780 970,1240 2650,2580 4110,2940 -780,-1190 -2650,-2000 -3810,-4200 -1620,-3120 -1010,-8020 2350,-9410 1650,-680 3450,500 4870,2150 710,800 1060,1920 1060,2760 420,310 240,320 510,-160l0 -90c-230,-550 -80,-2500 270,-3290 460,-1030 1840,-1900 2980,-2070zm-24900 11950l70 2800 890 -1480c-310,-3170 5020,-6130 7490,-2050 1920,3170 780,6680 -1370,9310l-2630 2210c1300,-90 3820,-2020 4650,-3080 1020,-1290 1570,-2690 1810,-4210 950,-5880 -3410,-7110 -4310,-7930 -1060,170 -2170,60 -3200,650 -1320,730 -1720,1620 -2730,2360 -850,-1330 -710,-1370 -1930,-2500 -6500,-2950 -10040,6730 -6300,13820 3310,6260 7940,6370 11670,7980l2990 1600c50,40 450,370 450,370 740,390 -30,80 680,130 -2120,-4450 -7970,-4880 -11670,-8190 -4240,-3790 -5470,-11320 -3120,-13220 -30,-440 -360,160 160,-670 80,-130 480,-500 590,-600 2890,-2560 6460,240 5810,2700z"/>
 </g>
</svg>
