<?xml version="1.0" encoding="UTF-8"?>
<!DOCTYPE svg PUBLIC "-//W3C//DTD SVG 1.1//EN" "http://www.w3.org/Graphics/SVG/1.1/DTD/svg11.dtd">
<!-- Creator: CorelDRAW -->
<svg xmlns="http://www.w3.org/2000/svg" xml:space="preserve" width="56px" height="56px" version="1.1" style="shape-rendering:geometricPrecision; text-rendering:geometricPrecision; image-rendering:optimizeQuality; fill-rule:evenodd; clip-rule:evenodd"
viewBox="0 0 56000 56000"
 xmlns:xlink="http://www.w3.org/1999/xlink"
 xmlns:xodm="http://www.corel.com/coreldraw/odm/2003">
 <defs>
  <style type="text/css">
   <![CDATA[
    .fil1 {fill:#DDDBDA}
    .fil0 {fill:white}
   ]]>
  </style>
 </defs>
 <g id="Слой_x0020_1">
  <metadata id="CorelCorpID_0Corel-Layer"/>
 </g>
 <g id="Слой_x0020_1_0">
  <metadata id="CorelCorpID_1Corel-Layer"/>
 </g>
 <g id="Слой_x0020_1_0_52">
  <metadata id="CorelCorpID_2Corel-Layer"/>
 </g>
 <g id="Слой_x0020_1_0_3">
  <metadata id="CorelCorpID_3Corel-Layer"/>
 </g>
 <g id="Слой_x0020_1_0_3_53">
  <metadata id="CorelCorpID_4Corel-Layer"/>
 </g>
 <g id="Слой_x0020_1_0_3_54">
  <metadata id="CorelCorpID_5Corel-Layer"/>
 </g>
 <g id="Слой_x0020_1_0_3_55">
  <metadata id="CorelCorpID_6Corel-Layer"/>
 </g>
 <g id="Слой_x0020_1_0_3_56">
  <metadata id="CorelCorpID_7Corel-Layer"/>
 </g>
 <g id="Слой_x0020_1_0_3_57">
  <metadata id="CorelCorpID_8Corel-Layer"/>
 </g>
 <g id="Слой_x0020_1_0_3_58">
  <metadata id="CorelCorpID_9Corel-Layer"/>
 </g>
 <g id="Слой_x0020_1_0_3_59">
  <metadata id="CorelCorpID_10Corel-Layer"/>
  <path class="fil0" d="M54790 35880c-8010,-5830 -21460,40 -6610,-5590 1430,-2620 930,-3180 1960,-5260 240,540 -2380,6100 1810,5270 -5220,780 5420,6610 2840,5580l0 0zm-12460 -20570c6650,-5690 8840,-8770 9790,-7230 660,1070 -1110,-630 -2500,6550 -420,2150 -3100,-150 -880,-3150 -5150,5890 -3360,5020 -6930,14170 830,4190 -4950,5010 -4490,7040 1400,-2210 4240,-1870 4290,-2900 3290,-1750 1250,-10710 4810,-13240 1860,4240 6340,-4720 6660,-9000 460,-6110 -9470,10090 -9360,570 80,-6120 -7450,-3950 -8120,-3510 -4040,2580 4970,9970 4660,10600 630,1470 -3110,260 -6310,1760 -1440,670 -40,2210 980,1080 960,-1060 7420,-490 6360,-2790 -1480,-3240 -8130,-9370 -4650,-10600 1720,-610 5680,220 6100,2370 830,4190 -1190,8940 -410,8280l0 0zm-38790 -12300c1680,-180 17080,9470 19190,10290 950,370 9100,4600 4960,4390 -3050,-1190 -21200,-11420 -21200,-11420 1200,500 13910,12100 26220,14780 -980,-1080 1190,-3050 -1910,-3200 -1090,-60 -2950,-3260 -4970,-4400 -1330,-750 -5800,-5090 -6980,-5530 -1490,-550 -15030,-6680 -16550,-6010 -2120,940 3600,19060 13760,20390 11260,1460 19550,3040 22060,2660 1450,-230 -14890,-3110 -17200,-2930 -3830,320 -10860,-4180 -11840,-5260 -7090,-7830 -7220,-13570 -5540,-13760z"/>
  <path class="fil1" d="M156460 61400l-470 1000c-30,-60 -370,370 -60,-530 280,-780 -60,-100 530,-470z"/>
 </g>
</svg>
