<?xml version="1.0" encoding="UTF-8"?>
<!DOCTYPE svg PUBLIC "-//W3C//DTD SVG 1.1//EN" "http://www.w3.org/Graphics/SVG/1.1/DTD/svg11.dtd">
<!-- Creator: CorelDRAW -->
<svg xmlns="http://www.w3.org/2000/svg" xml:space="preserve" width="56px" height="56px" version="1.1" style="shape-rendering:geometricPrecision; text-rendering:geometricPrecision; image-rendering:optimizeQuality; fill-rule:evenodd; clip-rule:evenodd"
viewBox="0 0 56000 56000"
 xmlns:xlink="http://www.w3.org/1999/xlink"
 xmlns:xodm="http://www.corel.com/coreldraw/odm/2003">
 <defs>
  <style type="text/css">
   <![CDATA[
    .fil1 {fill:#DDDBDA}
    .fil0 {fill:white}
   ]]>
  </style>
 </defs>
 <g id="Слой_x0020_1">
  <metadata id="CorelCorpID_0Corel-Layer"/>
 </g>
 <g id="Слой_x0020_1_0">
  <metadata id="CorelCorpID_1Corel-Layer"/>
 </g>
 <g id="Слой_x0020_1_0_29">
  <metadata id="CorelCorpID_2Corel-Layer"/>
 </g>
 <g id="Слой_x0020_1_0_3">
  <metadata id="CorelCorpID_3Corel-Layer"/>
  <path class="fil0" d="M48170 4660c1150,-180 2840,-3100 3830,-1660 680,990 -1000,0 -2000,7000 -300,2090 -2720,-620 -4000,1000 -4680,5930 -970,5650 -5000,11000 -1230,1630 -16540,-2930 -16000,-1000 1250,-2200 4000,2000 16240,2400 3090,-1840 2450,-8790 5760,-11400 2000,4000 5890,-4850 6000,-9000 150,-5910 -2840,830 -4680,1180 -5800,1110 -19700,1370 -20320,1820 -3770,2690 13270,4380 13000,5000 680,1390 -990,6400 -4000,8000 -1360,720 2180,800 3110,-330 880,-1080 3020,-5500 1890,-7670 -1590,-3050 -16290,-3640 -13000,-5000 1630,-670 13290,-770 14680,840 1100,1270 3500,-2040 4490,-2180z"/>
  <path class="fil0" d="M14000 6000c390,-100 3920,310 6000,1000 950,310 -4000,2000 2760,620 1570,2070 6610,7070 6610,7070 -21990,-11000 -3370,4310 4630,2310 -1000,-1000 -4000,-2000 -3000,-3000 750,-740 -2000,-3000 -4000,-4000 -1320,-660 -5840,-4630 -7000,-5000 -1460,-470 -1570,1750 -3000,1000 -9190,-4840 -10860,14210 -1000,15000 10930,880 4490,13200 6000,12000 940,-750 2140,-10360 0,-11000 -10000,-3000 -6430,-2170 -9000,-4000 -7000,-5000 -2000,-12000 1000,-12000z"/>
  <path class="fil0" d="M30000 31000c1260,-2170 16790,-4590 18400,-7950 1240,-2600 840,-4140 1730,-6200 250,500 -300,3040 -130,4150 720,4580 -17460,10870 -20000,10000z"/>
  <path class="fil1" d="M51210 17660l-150 320c-10,-20 -120,120 -20,-170 90,-250 -20,-30 170,-150z"/>
 </g>
</svg>
