<?xml version="1.0" encoding="UTF-8"?>
<!DOCTYPE svg PUBLIC "-//W3C//DTD SVG 1.1//EN" "http://www.w3.org/Graphics/SVG/1.1/DTD/svg11.dtd">
<!-- Creator: CorelDRAW -->
<svg xmlns="http://www.w3.org/2000/svg" xml:space="preserve" width="56px" height="56px" version="1.1" style="shape-rendering:geometricPrecision; text-rendering:geometricPrecision; image-rendering:optimizeQuality; fill-rule:evenodd; clip-rule:evenodd"
viewBox="0 0 56000 56000"
 xmlns:xlink="http://www.w3.org/1999/xlink"
 xmlns:xodm="http://www.corel.com/coreldraw/odm/2003">
 <defs>
  <style type="text/css">
   <![CDATA[
    .fil1 {fill:#DDDBDA}
    .fil0 {fill:white}
   ]]>
  </style>
 </defs>
 <g id="Слой_x0020_1">
  <metadata id="CorelCorpID_0Corel-Layer"/>
 </g>
 <g id="Слой_x0020_1_0">
  <metadata id="CorelCorpID_1Corel-Layer"/>
 </g>
 <g id="Слой_x0020_1_0_30">
  <metadata id="CorelCorpID_2Corel-Layer"/>
 </g>
 <g id="Слой_x0020_1_0_3">
  <metadata id="CorelCorpID_3Corel-Layer"/>
  <path class="fil0" d="M43000 11000c6140,-5810 8110,-8880 9100,-7440 680,1000 -1100,-560 -2100,6440 -300,2090 -3000,0 -1000,-3000 -4680,5930 -3000,5000 -6000,14000 1000,4000 -4540,5070 -4000,7000 1250,-2200 4000,-2000 4000,-3000 3090,-1840 690,-10390 4000,-13000 2000,4000 5890,-4850 6000,-9000 150,-5910 -8650,10190 -9000,1000 -220,-5910 -7380,-3450 -8000,-3000 -3770,2690 5270,9380 5000,10000 680,1390 -2990,400 -6000,2000 -1360,720 70,2140 1000,1000 870,-1070 7130,-830 6000,-3000 -1590,-3050 -8290,-8640 -5000,-10000 1630,-670 5490,-60 6000,2000 1000,4000 -720,8680 0,8000z"/>
  <path class="fil0" d="M5000 1000c1610,-260 16930,8310 19000,9000 940,310 9000,4000 5000,4000 -3000,-1000 -21000,-10000 -21000,-10000 1180,430 14000,11000 26000,13000 -1000,-1000 1000,-3000 -2000,-3000 -1050,0 -3000,-3000 -5000,-4000 -1320,-660 -5840,-4630 -7000,-5000 -1460,-460 -14810,-5720 -16250,-5000 -2000,1000 4390,18210 14250,19000 10930,870 19000,2000 21400,1510 1390,-290 -14510,-2290 -16720,-2000 -3680,490 -10680,-3510 -11680,-4510 -7210,-7210 -7610,-12740 -6000,-13000z"/>
  <path class="fil0" d="M56000 30240c-8000,-5240 -20690,1070 -6640,-5070 1250,-2600 750,-3110 1640,-5170 260,510 -2000,6000 2000,5000 -5000,1000 5540,6110 3000,5240z"/>
  <path class="fil1" d="M51210 17660l-150 320c-10,-20 -120,120 -20,-170 90,-250 -20,-30 170,-150z"/>
 </g>
</svg>
