<?xml version="1.0" encoding="UTF-8"?>
<!DOCTYPE svg PUBLIC "-//W3C//DTD SVG 1.1//EN" "http://www.w3.org/Graphics/SVG/1.1/DTD/svg11.dtd">
<!-- Creator: CorelDRAW -->
<svg xmlns="http://www.w3.org/2000/svg" xml:space="preserve" width="56px" height="56px" version="1.1" style="shape-rendering:geometricPrecision; text-rendering:geometricPrecision; image-rendering:optimizeQuality; fill-rule:evenodd; clip-rule:evenodd"
viewBox="0 0 56000 56000"
 xmlns:xlink="http://www.w3.org/1999/xlink"
 xmlns:xodm="http://www.corel.com/coreldraw/odm/2003">
 <defs>
  <style type="text/css">
   <![CDATA[
    .fil1 {fill:#DDDBDA}
    .fil0 {fill:white}
   ]]>
  </style>
 </defs>
 <g id="Слой_x0020_1">
  <metadata id="CorelCorpID_0Corel-Layer"/>
 </g>
 <g id="Слой_x0020_1_0">
  <metadata id="CorelCorpID_1Corel-Layer"/>
 </g>
 <g id="Слой_x0020_1_0_34">
  <metadata id="CorelCorpID_2Corel-Layer"/>
 </g>
 <g id="Слой_x0020_1_0_3">
  <metadata id="CorelCorpID_3Corel-Layer"/>
 </g>
 <g id="Слой_x0020_1_0_3_35">
  <metadata id="CorelCorpID_4Corel-Layer"/>
 </g>
 <g id="Слой_x0020_1_0_3_36">
  <metadata id="CorelCorpID_5Corel-Layer"/>
 </g>
 <g id="Слой_x0020_1_0_3_37">
  <metadata id="CorelCorpID_6Corel-Layer"/>
 </g>
 <g id="Слой_x0020_1_0_3_38">
  <metadata id="CorelCorpID_7Corel-Layer"/>
  <path class="fil0" d="M38000 4000c5950,-5630 4040,-9400 5000,-8000 660,960 5960,3210 5000,10000 -280,2030 3060,9910 5000,7000 -4540,5750 -16450,-6500 -15000,10000 970,3880 970,5330 0,16000 2910,-4850 2000,-15030 2000,-16000 3000,-1780 8800,-3400 12010,-5930 2480,-4660 1630,-6050 1730,-10080 150,-5730 -12790,-6260 -6740,-16990 2810,-4990 -8400,11560 -9000,12000 -3660,2610 -3740,-2600 -4000,-2000 -970,-970 -11590,8390 -1000,4000 1580,-650 600,-2250 4000,5000 970,3880 7530,2910 8220,2250l-7220 -7250z"/>
  <path class="fil0" d="M33000 20000c1600,-260 -1190,-6490 -2000,-6000 -4850,2910 -8060,1850 -10000,-3000 -1670,-4180 4000,1000 5000,-7000 -6230,9330 -14020,-6700 -7390,5840 1200,2260 -11470,4010 -5610,14160 1270,2190 7040,6850 9000,7000 2000,160 6610,4180 8060,4280 3350,250 3590,1910 6940,720 -8000,-5000 -21840,-8560 -20970,-8740 1340,-270 -7030,-11260 2970,-15260 -3570,460 2310,940 1340,-30 -1000,6000 9060,4290 10660,4030l2000 4000z"/>
  <path class="fil0" d="M43000 31000c-7760,-5080 11920,-11020 10950,-11020 3880,-970 -3040,0 -4980,6430 970,-1940 -7310,-7120 -3970,3590l-2000 1000z"/>
  <path class="fil1" d="M52220 27410l-150 310c-10,-20 -120,120 -20,-160 90,-250 -20,-30 170,-150z"/>
 </g>
</svg>
