<?xml version="1.0" encoding="UTF-8"?>
<!DOCTYPE svg PUBLIC "-//W3C//DTD SVG 1.1//EN" "http://www.w3.org/Graphics/SVG/1.1/DTD/svg11.dtd">
<!-- Creator: CorelDRAW -->
<svg xmlns="http://www.w3.org/2000/svg" xml:space="preserve" width="56px" height="56px" version="1.1" style="shape-rendering:geometricPrecision; text-rendering:geometricPrecision; image-rendering:optimizeQuality; fill-rule:evenodd; clip-rule:evenodd"
viewBox="0 0 56000 56000"
 xmlns:xlink="http://www.w3.org/1999/xlink"
 xmlns:xodm="http://www.corel.com/coreldraw/odm/2003">
 <defs>
  <style type="text/css">
   <![CDATA[
    .fil0 {fill:white}
   ]]>
  </style>
 </defs>
 <g id="Слой_x0020_1">
  <metadata id="CorelCorpID_0Corel-Layer"/>
 </g>
 <g id="Слой_x0020_1_0">
  <metadata id="CorelCorpID_1Corel-Layer"/>
 </g>
 <g id="Слой_x0020_1_0_112">
  <metadata id="CorelCorpID_2Corel-Layer"/>
 </g>
 <g id="Слой_x0020_1_0_3">
  <metadata id="CorelCorpID_3Corel-Layer"/>
 </g>
 <g id="Слой_x0020_1_0_3_113">
  <metadata id="CorelCorpID_4Corel-Layer"/>
 </g>
 <g id="Слой_x0020_1_0_3_114">
  <metadata id="CorelCorpID_5Corel-Layer"/>
 </g>
 <g id="Слой_x0020_1_0_3_115">
  <metadata id="CorelCorpID_6Corel-Layer"/>
 </g>
 <g id="Слой_x0020_1_0_3_116">
  <metadata id="CorelCorpID_7Corel-Layer"/>
 </g>
 <g id="Слой_x0020_1_0_3_117">
  <metadata id="CorelCorpID_8Corel-Layer"/>
 </g>
 <g id="Слой_x0020_1_0_3_118">
  <metadata id="CorelCorpID_9Corel-Layer"/>
 </g>
 <g id="Слой_x0020_1_0_3_119">
  <metadata id="CorelCorpID_10Corel-Layer"/>
 </g>
 <g id="Слой_x0020_1_0_3_120">
  <metadata id="CorelCorpID_11Corel-Layer"/>
 </g>
 <g id="Слой_x0020_1_0_3_121">
  <metadata id="CorelCorpID_12Corel-Layer"/>
 </g>
 <g id="Слой_x0020_1_0_3_122">
  <metadata id="CorelCorpID_13Corel-Layer"/>
  <path class="fil0" d="M43000 4000c-2290,0 -4110,1620 -1470,2940 2000,1000 4600,-3720 11470,1060 3480,2420 -3590,7980 -3390,11510 220,3620 -1160,-2540 2390,12490 460,1950 110,-5040 -1000,-8000 -3000,-8000 9820,-13430 2000,-17000 -7620,-3480 -11780,880 -12000,-1000 -240,-2030 15000,-3430 14000,-5000 -240,-380 -4000,3000 -12000,3000zm-6000 1000c-280,-630 2190,6430 6000,6000 2150,-240 6120,2000 4000,2000 -7000,0 -10190,18390 -9000,16000 2000,-4000 2890,-10070 4970,-13500 430,-710 2140,-2760 4590,-1790 5000,2000 -2830,-5450 -5560,-3710 -1860,1180 -4830,-4620 -5000,-5000zm-5000 1000c0,570 3000,4670 2000,6000 -3000,4000 -1050,2990 1580,-10 930,-1060 -3010,-4750 -2580,-5990 970,-2760 1410,-3410 2000,-4000 2000,-2000 -3000,1130 -3000,4000zm-7000 18000c3000,0 6200,-7810 10200,-4820 830,630 -2190,9830 -2200,11820 -10,2400 2000,-6000 3000,-10000 2200,-8790 -10320,1910 -12000,1000 -8920,-4850 2410,-12000 6000,-12000 1000,0 -5540,-1950 -10540,-950 -670,130 7490,-4360 6540,-4050 -1260,410 -8840,2290 -9000,4000 -190,1990 11560,670 9770,1660 -16630,9190 -2770,13340 -1770,13340z"/>
 </g>
</svg>
