<?xml version="1.0" encoding="UTF-8"?>
<!DOCTYPE svg PUBLIC "-//W3C//DTD SVG 1.1//EN" "http://www.w3.org/Graphics/SVG/1.1/DTD/svg11.dtd">
<!-- Creator: CorelDRAW -->
<svg xmlns="http://www.w3.org/2000/svg" xml:space="preserve" width="56px" height="56px" version="1.1" style="shape-rendering:geometricPrecision; text-rendering:geometricPrecision; image-rendering:optimizeQuality; fill-rule:evenodd; clip-rule:evenodd"
viewBox="0 0 56000 56000"
 xmlns:xlink="http://www.w3.org/1999/xlink"
 xmlns:xodm="http://www.corel.com/coreldraw/odm/2003">
 <defs>
  <style type="text/css">
   <![CDATA[
    .fil1 {fill:#DDDBDA}
    .fil0 {fill:white}
   ]]>
  </style>
 </defs>
 <g id="Слой_x0020_1">
  <metadata id="CorelCorpID_0Corel-Layer"/>
 </g>
 <g id="Слой_x0020_1_0">
  <metadata id="CorelCorpID_1Corel-Layer"/>
 </g>
 <g id="Слой_x0020_1_0_69">
  <metadata id="CorelCorpID_2Corel-Layer"/>
 </g>
 <g id="Слой_x0020_1_0_3">
  <metadata id="CorelCorpID_3Corel-Layer"/>
 </g>
 <g id="Слой_x0020_1_0_3_70">
  <metadata id="CorelCorpID_4Corel-Layer"/>
 </g>
 <g id="Слой_x0020_1_0_3_71">
  <metadata id="CorelCorpID_5Corel-Layer"/>
 </g>
 <g id="Слой_x0020_1_0_3_72">
  <metadata id="CorelCorpID_6Corel-Layer"/>
 </g>
 <g id="Слой_x0020_1_0_3_73">
  <metadata id="CorelCorpID_7Corel-Layer"/>
 </g>
 <g id="Слой_x0020_1_0_3_74">
  <metadata id="CorelCorpID_8Corel-Layer"/>
 </g>
 <g id="Слой_x0020_1_0_3_75">
  <metadata id="CorelCorpID_9Corel-Layer"/>
 </g>
 <g id="Слой_x0020_1_0_3_76">
  <metadata id="CorelCorpID_10Corel-Layer"/>
 </g>
 <g id="Слой_x0020_1_0_3_77">
  <metadata id="CorelCorpID_11Corel-Layer"/>
 </g>
 <g id="Слой_x0020_1_0_3_78">
  <metadata id="CorelCorpID_12Corel-Layer"/>
  <path class="fil0" d="M44950 34300c1290,-2210 2860,-2560 4500,-5990 1270,-2670 850,-4230 1760,-6340 270,520 190,-120 360,1020 740,4670 -4020,12200 -6620,11310zm2820 -31740c1190,-180 2520,420 3530,1890 700,1010 1310,2580 1010,3680 880,1970 -1390,6690 -2700,8340 -4780,6060 -10770,4000 -14890,9470 -1250,1670 -2880,6660 -2330,8630 1280,-2250 450,-6610 6060,-9950 3160,-1870 6240,-1410 9620,-4080 3310,-2620 5540,-6200 5640,-10440 170,-6030 -3910,-8380 -5790,-8030 -1920,370 -2950,1600 -3920,2720 -630,-440 -3710,-5120 -7580,-2360 -3850,2750 -2620,7090 -2900,7720 690,1420 840,2420 1910,3790 970,1240 2650,2570 4110,2930 -780,-1180 -2640,-1990 -3810,-4200 -1620,-3110 -1010,-8010 2350,-9400 1650,-680 3450,500 4870,2140 710,810 1060,1920 1060,2770 420,310 240,320 510,-160l0 -90c-230,-560 -80,-2510 270,-3290 460,-1030 1840,-1900 2980,-2080l0 0zm-24900 11950l70 2810 900 -1480c-320,-3180 5010,-6140 7480,-2050 1920,3160 780,6670 -1370,9310l-2630 2200c1300,-90 3820,-2020 4650,-3080 1030,-1290 1570,-2680 1810,-4210 950,-5880 -3410,-7100 -4310,-7920 -1060,160 -2170,60 -3200,640 -1320,740 -1720,1630 -2730,2360 -850,-1330 -710,-1370 -1930,-2490 -6500,-2950 -10040,6730 -6300,13820 3310,6260 7940,6370 11670,7970l2990 1610c50,40 450,360 450,360 740,400 -30,80 680,140 -2120,-4460 -7970,-4890 -11670,-8190 -4240,-3790 -5470,-11320 -3120,-13230 -30,-440 -360,170 160,-660 80,-140 480,-500 600,-610 2890,-2560 6450,250 5800,2700z"/>
  <path class="fil1" d="M115500 52680l-460 1000c-40,-60 -380,370 -70,-530 280,-780 -60,-100 530,-470z"/>
 </g>
</svg>
