<?xml version="1.0" encoding="UTF-8"?>
<!DOCTYPE svg PUBLIC "-//W3C//DTD SVG 1.1//EN" "http://www.w3.org/Graphics/SVG/1.1/DTD/svg11.dtd">
<!-- Creator: CorelDRAW -->
<svg xmlns="http://www.w3.org/2000/svg" xml:space="preserve" width="56px" height="56px" version="1.1" style="shape-rendering:geometricPrecision; text-rendering:geometricPrecision; image-rendering:optimizeQuality; fill-rule:evenodd; clip-rule:evenodd"
viewBox="0 0 56000 56000"
 xmlns:xlink="http://www.w3.org/1999/xlink"
 xmlns:xodm="http://www.corel.com/coreldraw/odm/2003">
 <defs>
  <style type="text/css">
   <![CDATA[
    .fil0 {fill:white}
   ]]>
  </style>
 </defs>
 <g id="Слой_x0020_1">
  <metadata id="CorelCorpID_0Corel-Layer"/>
 </g>
 <g id="Слой_x0020_1_0">
  <metadata id="CorelCorpID_1Corel-Layer"/>
 </g>
 <g id="Слой_x0020_1_0_134">
  <metadata id="CorelCorpID_2Corel-Layer"/>
 </g>
 <g id="Слой_x0020_1_0_3">
  <metadata id="CorelCorpID_3Corel-Layer"/>
 </g>
 <g id="Слой_x0020_1_0_3_135">
  <metadata id="CorelCorpID_4Corel-Layer"/>
 </g>
 <g id="Слой_x0020_1_0_3_136">
  <metadata id="CorelCorpID_5Corel-Layer"/>
 </g>
 <g id="Слой_x0020_1_0_3_137">
  <metadata id="CorelCorpID_6Corel-Layer"/>
 </g>
 <g id="Слой_x0020_1_0_3_138">
  <metadata id="CorelCorpID_7Corel-Layer"/>
 </g>
 <g id="Слой_x0020_1_0_3_139">
  <metadata id="CorelCorpID_8Corel-Layer"/>
 </g>
 <g id="Слой_x0020_1_0_3_140">
  <metadata id="CorelCorpID_9Corel-Layer"/>
 </g>
 <g id="Слой_x0020_1_0_3_141">
  <metadata id="CorelCorpID_10Corel-Layer"/>
 </g>
 <g id="Слой_x0020_1_0_3_142">
  <metadata id="CorelCorpID_11Corel-Layer"/>
 </g>
 <g id="Слой_x0020_1_0_3_143">
  <metadata id="CorelCorpID_12Corel-Layer"/>
 </g>
 <g id="Слой_x0020_1_0_3_144">
  <metadata id="CorelCorpID_13Corel-Layer"/>
  <path class="fil0" d="M52360 1610c2270,-1750 -2590,14690 -1360,18390 3000,9000 -3140,12800 -1000,12000 3040,-1120 4130,-7350 2860,-9270 -2100,-3150 1290,-13800 1630,-21590 80,-2000 -5330,800 -6170,560 -6990,-2000 -360,3310 4040,-90zm-9270 400c-250,-610 110,5400 3910,4990 2140,-230 50,3910 -2000,4000 -2460,110 2550,3770 2000,8000 -630,4830 -7490,2650 -11000,6000 -930,890 -740,7090 -600,5850 200,-1740 -720,-5090 2550,-5560 7220,-1050 10320,-5440 10250,-6490 -210,-3080 -4720,-8000 -2200,-7800 970,80 2430,-300 2850,-2000 280,-1140 1830,-1220 150,-2000 -2820,-1300 -880,-150 -3790,-1270 -2040,-790 -1980,-3380 -2120,-3720zm-7090 6990c60,80 -4640,840 -3800,1960 1100,1450 7270,1210 7150,1960 -270,1660 -4850,160 -4920,300 -1540,3280 6340,4110 7240,7600 60,230 2410,-100 -2590,-4100 -840,-660 -1580,-980 -2160,-2140 -420,-840 4210,620 4060,-190 -720,-3890 -6290,-2210 -6570,-4000 -190,-1210 1970,-70 2930,-1190 1440,-1700 -1970,-460 -2070,-3560 -20,-620 3820,-2930 3730,-3640 -70,-600 -2190,2670 -3700,2640 -2020,-40 -1030,1910 700,4360zm-14000 10000c2590,590 13170,-780 10000,1000 -3790,2140 -14250,-1070 -14000,1000 370,3050 14130,11440 14250,11420 3040,-480 -13430,-10290 -13190,-11160 80,-270 4210,1130 6940,740 2980,-430 7760,-820 9230,-1090 3950,-710 840,-1610 -4230,-2910 -2180,-560 -10180,810 -12000,0 -6270,-2790 -2170,-10930 -2000,-11000 1010,-400 2110,-2310 3810,-2040 900,150 3440,-130 4720,180 2890,710 6680,-870 6470,-1140 -800,-1080 -2580,1380 -4000,1000 -3950,-1060 -9870,-760 -12000,2000 -2350,3040 -2960,9960 1000,12000 660,380 4250,-170 5000,0z"/>
 </g>
</svg>
