<?xml version="1.0" encoding="UTF-8"?>
<!DOCTYPE svg PUBLIC "-//W3C//DTD SVG 1.1//EN" "http://www.w3.org/Graphics/SVG/1.1/DTD/svg11.dtd">
<!-- Creator: CorelDRAW -->
<svg xmlns="http://www.w3.org/2000/svg" xml:space="preserve" width="56px" height="56px" version="1.1" style="shape-rendering:geometricPrecision; text-rendering:geometricPrecision; image-rendering:optimizeQuality; fill-rule:evenodd; clip-rule:evenodd"
viewBox="0 0 56000 56000"
 xmlns:xlink="http://www.w3.org/1999/xlink"
 xmlns:xodm="http://www.corel.com/coreldraw/odm/2003">
 <defs>
  <style type="text/css">
   <![CDATA[
    .fil0 {fill:white}
   ]]>
  </style>
 </defs>
 <g id="Слой_x0020_1">
  <metadata id="CorelCorpID_0Corel-Layer"/>
 </g>
 <g id="Слой_x0020_1_0">
  <metadata id="CorelCorpID_1Corel-Layer"/>
 </g>
 <g id="Слой_x0020_1_0_60">
  <metadata id="CorelCorpID_2Corel-Layer"/>
 </g>
 <g id="Слой_x0020_1_0_3">
  <metadata id="CorelCorpID_3Corel-Layer"/>
 </g>
 <g id="Слой_x0020_1_0_3_61">
  <metadata id="CorelCorpID_4Corel-Layer"/>
 </g>
 <g id="Слой_x0020_1_0_3_62">
  <metadata id="CorelCorpID_5Corel-Layer"/>
 </g>
 <g id="Слой_x0020_1_0_3_63">
  <metadata id="CorelCorpID_6Corel-Layer"/>
 </g>
 <g id="Слой_x0020_1_0_3_64">
  <metadata id="CorelCorpID_7Corel-Layer"/>
 </g>
 <g id="Слой_x0020_1_0_3_65">
  <metadata id="CorelCorpID_8Corel-Layer"/>
 </g>
 <g id="Слой_x0020_1_0_3_66">
  <metadata id="CorelCorpID_9Corel-Layer"/>
 </g>
 <g id="Слой_x0020_1_0_3_67">
  <metadata id="CorelCorpID_10Corel-Layer"/>
  <path class="fil0" d="M57970 22290l-170 350c-10,-20 -130,130 -20,-180 100,-270 -20,-30 190,-170zm-10150 -15580c1260,-200 3100,-3390 4180,-1820 740,1080 -1090,0 -2180,7640 -330,2280 -2970,-670 -4370,1090 -5100,6470 -1050,6170 -5450,12000 -1340,1780 -18050,-3190 -17460,-1090 1370,-2400 4370,2180 17720,2620 3370,-2010 2670,-9590 6290,-12440 2180,4370 6420,-5290 6540,-9820 170,-6440 -3100,910 -5110,1290 -6320,1210 -21490,1500 -22160,1990 -4120,2930 14470,4780 14180,5450 740,1520 -1080,6980 -4360,8730 -1490,780 2370,870 3390,-360 960,-1180 3290,-6000 2060,-8370 -1730,-3330 -17770,-3970 -14180,-5450 1780,-730 14500,-840 16010,910 1200,1390 3820,-2220 4900,-2380l0 10zm-37280 1460c430,-110 4280,340 6550,1090 1040,340 -4370,2180 3010,670 1710,2260 7210,7720 7210,7720 -23990,-12000 -3680,4700 5050,2520 -1090,-1090 -4360,-2180 -3270,-3280 820,-800 -2180,-3270 -4360,-4360 -1450,-720 -6380,-5050 -7640,-5450 -1590,-520 -1710,1900 -3270,1090 -10030,-5280 -11850,15500 -1100,16360 11930,960 4900,14400 6550,13090 1030,-810 2340,-11300 0,-12000 -10910,-3270 -7010,-2360 -9820,-4360 -7640,-5460 -2180,-13090 1090,-13090l0 0zm17460 27270c1370,-2370 18320,-5010 20070,-8670 1360,-2840 920,-4520 1890,-6770 270,550 -330,3320 -140,4530 780,5000 -19050,11860 -21820,10910l0 0zm23140 -14550l-170 350c-10,-20 -130,130 -20,-190 100,-270 -20,-30 190,-160z"/>
 </g>
 <g id="Слой_x0020_1_0_3_68">
  <metadata id="CorelCorpID_11Corel-Layer"/>
 </g>
</svg>
