<?xml version="1.0" encoding="UTF-8"?>
<!DOCTYPE svg PUBLIC "-//W3C//DTD SVG 1.1//EN" "http://www.w3.org/Graphics/SVG/1.1/DTD/svg11.dtd">
<!-- Creator: CorelDRAW -->
<svg xmlns="http://www.w3.org/2000/svg" xml:space="preserve" width="56px" height="56px" version="1.1" style="shape-rendering:geometricPrecision; text-rendering:geometricPrecision; image-rendering:optimizeQuality; fill-rule:evenodd; clip-rule:evenodd"
viewBox="0 0 56000 56000"
 xmlns:xlink="http://www.w3.org/1999/xlink"
 xmlns:xodm="http://www.corel.com/coreldraw/odm/2003">
 <defs>
  <style type="text/css">
   <![CDATA[
    .fil1 {fill:#DDDBDA}
    .fil0 {fill:white}
   ]]>
  </style>
 </defs>
 <g id="Слой_x0020_1">
  <metadata id="CorelCorpID_0Corel-Layer"/>
 </g>
 <g id="Слой_x0020_1_0">
  <metadata id="CorelCorpID_1Corel-Layer"/>
 </g>
 <g id="Слой_x0020_1_0_28">
  <metadata id="CorelCorpID_2Corel-Layer"/>
 </g>
 <g id="Слой_x0020_1_0_3">
  <metadata id="CorelCorpID_3Corel-Layer"/>
  <path class="fil0" d="M48170 4660c1160,-180 2470,410 3460,1850 680,990 1280,2520 990,3600 860,1930 -1370,6550 -2650,8170 -4680,5930 -10550,3920 -14580,9270 -1230,1640 -2820,6520 -2280,8450 1250,-2200 440,-6470 5930,-9740 3100,-1830 6110,-1380 9420,-4000 3240,-2560 5430,-6070 5530,-10220 160,-5910 -3830,-8210 -5670,-7860 -1880,360 -2890,1560 -3840,2660 -620,-430 -3640,-5010 -7430,-2310 -3770,2690 -2560,6940 -2840,7560 680,1390 830,2370 1870,3710 950,1210 2600,2520 4030,2870 -760,-1160 -2590,-1950 -3730,-4110 -1590,-3050 -990,-7850 2300,-9210 1620,-670 3380,490 4770,2100 690,790 1040,1880 1040,2710 410,300 230,310 500,-160l0 -90c-230,-540 -80,-2450 260,-3220 450,-1010 1800,-1860 2920,-2030z"/>
  <path class="fil0" d="M23780 16360l70 2750 880 -1450c-310,-3110 4910,-6010 7330,-2010 1880,3100 760,6540 -1340,9120l-2580 2160c1280,-90 3740,-1980 4560,-3020 1000,-1260 1530,-2630 1770,-4120 930,-5760 -3340,-6960 -4220,-7760 -1040,160 -2130,60 -3140,630 -1290,720 -1680,1590 -2670,2310 -830,-1300 -690,-1340 -1890,-2440 -6360,-2890 -9830,6590 -6170,13530 3240,6130 7780,6240 11430,7810l2930 1570c50,40 440,360 440,360 720,390 -30,80 660,130 -2070,-4360 -7800,-4780 -11420,-8020 -4160,-3710 -5360,-11080 -3060,-12950 -30,-430 -350,160 160,-650 80,-130 470,-490 580,-590 2830,-2510 6320,240 5680,2640z"/>
  <path class="fil0" d="M45410 35740c1260,-2170 2800,-2510 4400,-5870 1250,-2610 840,-4140 1730,-6210 260,510 180,-110 350,1000 720,4580 -3940,11950 -6480,11080z"/>
  <path class="fil1" d="M51210 17660l-150 320c-10,-20 -120,120 -20,-170 90,-250 -20,-30 170,-150z"/>
 </g>
</svg>
