<?xml version="1.0" encoding="UTF-8"?>
<!DOCTYPE svg PUBLIC "-//W3C//DTD SVG 1.1//EN" "http://www.w3.org/Graphics/SVG/1.1/DTD/svg11.dtd">
<!-- Creator: CorelDRAW -->
<svg xmlns="http://www.w3.org/2000/svg" xml:space="preserve" width="56px" height="56px" version="1.1" style="shape-rendering:geometricPrecision; text-rendering:geometricPrecision; image-rendering:optimizeQuality; fill-rule:evenodd; clip-rule:evenodd"
viewBox="0 0 56000 56000"
 xmlns:xlink="http://www.w3.org/1999/xlink"
 xmlns:xodm="http://www.corel.com/coreldraw/odm/2003">
 <defs>
  <style type="text/css">
   <![CDATA[
    .fil1 {fill:#DDDBDA}
    .fil0 {fill:white}
   ]]>
  </style>
 </defs>
 <g id="Слой_x0020_1">
  <metadata id="CorelCorpID_0Corel-Layer"/>
 </g>
 <g id="Слой_x0020_1_0">
  <metadata id="CorelCorpID_1Corel-Layer"/>
 </g>
 <g id="Слой_x0020_1_0_32">
  <metadata id="CorelCorpID_2Corel-Layer"/>
 </g>
 <g id="Слой_x0020_1_0_3">
  <metadata id="CorelCorpID_3Corel-Layer"/>
  <path class="fil0" d="M44000 1000c6130,-5800 6010,-4440 7000,-3000 680,990 2580,-5000 1590,2000 -290,2090 -3590,9000 -1590,6000 -4680,5930 -9000,2000 -12000,11000 1000,4000 1000,0 0,11000 3000,-5000 2000,-13000 2000,-14000 3090,-1840 6690,-4390 10000,-7000 2550,-4810 2890,-6850 3000,-11000 150,-5910 -19240,13060 -13000,2000 2900,-5140 1620,-3450 1000,-3000 -3770,2690 -10730,-620 -11000,0 -1000,-1000 -920,5530 10000,1000 1630,-670 -3510,2940 -3000,5000 1000,4000 5280,680 6000,0z"/>
  <path class="fil0" d="M20000 0c1650,-270 -2170,-3500 -3000,-3000 -5000,3000 -4000,4000 -6000,-1000 -1720,-4310 -410,2920 -1130,4000 -6420,9620 -2590,-10670 4250,2260 1230,2330 1880,-2260 7920,8200 1310,2260 7940,5380 9960,5540 2060,160 510,7890 2000,8000 3450,260 -2450,-8770 1000,-10000 2980,-1060 3100,-3820 4000,-4000 1380,-280 -6190,4590 -8390,4880 -3680,480 -11710,-9180 -12710,-10180 -7210,-7220 450,-4430 2100,-4700z"/>
  <path class="fil0" d="M46000 26000c-8000,-5240 8000,-16000 7000,-16000 4000,-1000 3000,-3630 1000,3000 1000,-2000 -11440,1960 -8000,13000z"/>
  <path class="fil1" d="M51210 17660l-150 320c-10,-20 -120,120 -20,-170 90,-250 -20,-30 170,-150z"/>
 </g>
</svg>
