<?xml version="1.0" encoding="UTF-8"?>
<!DOCTYPE svg PUBLIC "-//W3C//DTD SVG 1.1//EN" "http://www.w3.org/Graphics/SVG/1.1/DTD/svg11.dtd">
<!-- Creator: CorelDRAW -->
<svg xmlns="http://www.w3.org/2000/svg" xml:space="preserve" width="56px" height="56px" version="1.1" style="shape-rendering:geometricPrecision; text-rendering:geometricPrecision; image-rendering:optimizeQuality; fill-rule:evenodd; clip-rule:evenodd"
viewBox="0 0 56000 56000"
 xmlns:xlink="http://www.w3.org/1999/xlink"
 xmlns:xodm="http://www.corel.com/coreldraw/odm/2003">
 <defs>
  <style type="text/css">
   <![CDATA[
    .fil0 {fill:white}
   ]]>
  </style>
 </defs>
 <g id="Слой_x0020_1">
  <metadata id="CorelCorpID_0Corel-Layer"/>
 </g>
 <g id="Слой_x0020_1_0">
  <metadata id="CorelCorpID_1Corel-Layer"/>
 </g>
 <g id="Слой_x0020_1_0_101">
  <metadata id="CorelCorpID_2Corel-Layer"/>
 </g>
 <g id="Слой_x0020_1_0_3">
  <metadata id="CorelCorpID_3Corel-Layer"/>
 </g>
 <g id="Слой_x0020_1_0_3_102">
  <metadata id="CorelCorpID_4Corel-Layer"/>
 </g>
 <g id="Слой_x0020_1_0_3_103">
  <metadata id="CorelCorpID_5Corel-Layer"/>
 </g>
 <g id="Слой_x0020_1_0_3_104">
  <metadata id="CorelCorpID_6Corel-Layer"/>
 </g>
 <g id="Слой_x0020_1_0_3_105">
  <metadata id="CorelCorpID_7Corel-Layer"/>
 </g>
 <g id="Слой_x0020_1_0_3_106">
  <metadata id="CorelCorpID_8Corel-Layer"/>
 </g>
 <g id="Слой_x0020_1_0_3_107">
  <metadata id="CorelCorpID_9Corel-Layer"/>
 </g>
 <g id="Слой_x0020_1_0_3_108">
  <metadata id="CorelCorpID_10Corel-Layer"/>
 </g>
 <g id="Слой_x0020_1_0_3_109">
  <metadata id="CorelCorpID_11Corel-Layer"/>
 </g>
 <g id="Слой_x0020_1_0_3_110">
  <metadata id="CorelCorpID_12Corel-Layer"/>
 </g>
 <g id="Слой_x0020_1_0_3_111">
  <metadata id="CorelCorpID_13Corel-Layer"/>
  <path class="fil0" d="M43000 4000c-2290,0 -5640,1680 -3000,3000 2000,1000 7120,1220 14000,6000 3480,2420 -14570,7960 -11000,10000 7000,4000 -1500,8000 0,8000 2000,0 7910,-2760 3000,-6000 -5900,-3890 14750,-8350 7710,-13290 -6710,-4710 -13490,-3820 -13710,-5710 -240,-2030 13000,-1000 14000,-5000 330,-1310 -3000,3000 -11000,3000zm-7000 6000c-280,-630 2190,3430 6000,3000 2160,-240 1940,2310 -180,2310 -7000,0 -4490,10690 -1820,10690 3000,0 -3080,-4560 -1000,-8000 430,-720 3550,-2980 6000,-2000 5000,2000 -830,-5830 -3570,-4090 -1860,1190 -5260,-1530 -5430,-1910zm-4000 2000c-7990,9990 -7860,9850 -6280,8270 3280,-3270 7430,-6800 7350,-8780 -130,-2930 -260,-2670 -2070,-4490 -6940,-6980 2800,2750 1000,5000zm-15480 1260c-30,3600 3720,14640 10480,10740 9950,-5740 5100,8670 5000,11000 -80,2000 3270,-7860 3000,-11000 -400,-4630 -10120,-990 -12000,-2000 -10350,-5590 -6000,-18000 -2000,-17000 3070,770 -4320,-6880 -4480,8260z"/>
 </g>
</svg>
