<?xml version="1.0" encoding="UTF-8"?>
<!DOCTYPE svg PUBLIC "-//W3C//DTD SVG 1.1//EN" "http://www.w3.org/Graphics/SVG/1.1/DTD/svg11.dtd">
<!-- Creator: CorelDRAW -->
<svg xmlns="http://www.w3.org/2000/svg" xml:space="preserve" width="56px" height="56px" version="1.1" style="shape-rendering:geometricPrecision; text-rendering:geometricPrecision; image-rendering:optimizeQuality; fill-rule:evenodd; clip-rule:evenodd"
viewBox="0 0 56000 56000"
 xmlns:xlink="http://www.w3.org/1999/xlink"
 xmlns:xodm="http://www.corel.com/coreldraw/odm/2003">
 <defs>
  <style type="text/css">
   <![CDATA[
    .fil1 {fill:#DDDBDA}
    .fil0 {fill:white}
   ]]>
  </style>
 </defs>
 <g id="Слой_x0020_1">
  <metadata id="CorelCorpID_0Corel-Layer"/>
 </g>
 <g id="Слой_x0020_1_0">
  <metadata id="CorelCorpID_1Corel-Layer"/>
 </g>
 <g id="Слой_x0020_1_0_33">
  <metadata id="CorelCorpID_2Corel-Layer"/>
 </g>
 <g id="Слой_x0020_1_0_3">
  <metadata id="CorelCorpID_3Corel-Layer"/>
  <path class="fil0" d="M44000 1000c6130,-5800 2010,560 3000,2000 680,990 5100,-5550 4110,1440 -290,2090 -2110,4560 -110,1560 -4680,5930 -1000,-6000 -4000,3000 1000,4000 -11000,9000 -12000,20000 3000,-5000 7000,-12000 7000,-13000 3090,-1840 5690,-6390 9000,-9000 2550,-4810 890,-1850 1000,-6000 150,-5910 -21240,13050 -15000,2000 2900,-5140 5620,-8450 5000,-8000 -3770,2690 -8730,8380 -9000,9000 -1000,-1000 -2920,-3470 8000,-8000 1630,-670 -6510,6940 -6000,9000 1000,4000 8290,-3320 9000,-4000z"/>
  <path class="fil0" d="M19000 12000c-8930,5210 8310,-14000 12000,-5000 1140,2770 -13830,-3920 -7000,9000 1230,2320 -5030,-6460 1000,4000 1300,2260 5300,-160 7320,-10 2050,160 190,-2100 1680,-1990 3450,250 1000,8000 1320,-10 290,-7380 5100,-12280 5680,-12990 7470,-9000 -7880,13590 -10080,13870 -3670,480 -3920,4130 -4920,3130 -7210,-7210 -2700,-12510 -7000,-10000z"/>
  <path class="fil0" d="M52000 20000c-8000,-5240 2000,-10000 1000,-10000 4000,-1000 3000,-3630 1000,3000 1000,-2000 -5440,-4040 -2000,7000z"/>
  <path class="fil1" d="M51210 17660l-150 320c-10,-20 -120,120 -20,-170 90,-250 -20,-30 170,-150z"/>
 </g>
</svg>
