<?xml version="1.0" encoding="UTF-8"?>
<!DOCTYPE svg PUBLIC "-//W3C//DTD SVG 1.1//EN" "http://www.w3.org/Graphics/SVG/1.1/DTD/svg11.dtd">
<!-- Creator: CorelDRAW -->
<svg xmlns="http://www.w3.org/2000/svg" xml:space="preserve" width="56px" height="56px" version="1.1" style="shape-rendering:geometricPrecision; text-rendering:geometricPrecision; image-rendering:optimizeQuality; fill-rule:evenodd; clip-rule:evenodd"
viewBox="0 0 56000 56000"
 xmlns:xlink="http://www.w3.org/1999/xlink"
 xmlns:xodm="http://www.corel.com/coreldraw/odm/2003">
 <defs>
  <style type="text/css">
   <![CDATA[
    .fil0 {fill:#DDDBDA}
    .fil1 {fill:white}
   ]]>
  </style>
 </defs>
 <g id="Слой_x0020_1">
  <metadata id="CorelCorpID_0Corel-Layer"/>
 </g>
 <g id="Слой_x0020_1_0">
  <metadata id="CorelCorpID_1Corel-Layer"/>
 </g>
 <g id="Слой_x0020_1_0_39">
  <metadata id="CorelCorpID_2Corel-Layer"/>
 </g>
 <g id="Слой_x0020_1_0_3">
  <metadata id="CorelCorpID_3Corel-Layer"/>
 </g>
 <g id="Слой_x0020_1_0_3_40">
  <metadata id="CorelCorpID_4Corel-Layer"/>
 </g>
 <g id="Слой_x0020_1_0_3_41">
  <metadata id="CorelCorpID_5Corel-Layer"/>
 </g>
 <g id="Слой_x0020_1_0_3_42">
  <metadata id="CorelCorpID_6Corel-Layer"/>
 </g>
 <g id="Слой_x0020_1_0_3_43">
  <metadata id="CorelCorpID_7Corel-Layer"/>
 </g>
 <g id="Слой_x0020_1_0_3_44">
  <metadata id="CorelCorpID_8Corel-Layer"/>
  <g id="_3029160087904">
   <path class="fil0" d="M15220 7670l-50 110c-10,-10 -40,40 -10,-60 30,-80 0,-10 60,-50z"/>
   <path class="fil1" d="M41330 11220c6610,-6250 6480,-4780 7550,-3230 730,1070 2780,-5390 1710,2160 -310,2250 -3870,9700 -1710,6460 -5050,6390 -9700,2160 -12940,11860 1080,4310 1080,0 0,11860 3240,-5390 2160,-14020 2160,-15090 3330,-1990 7210,-4740 10780,-7550 2750,-5180 3110,-7380 3230,-11860 170,-6370 -20740,14080 -14010,2160 3130,-5540 1750,-3720 1080,-3230 -4070,2890 -11570,-670 -11860,0 -1080,-1080 -990,5960 10780,1070 1760,-720 -3780,3170 -3230,5390 1070,4310 5690,740 6460,0l0 0z"/>
   <path class="fil1" d="M15460 10150c1780,-290 -2340,-3780 -3230,-3240 -5390,3240 -4310,4310 -6470,-1080 -1850,-4640 -440,3150 -1220,4320 -6920,10370 -2790,-11510 4590,2430 1320,2510 2020,-2430 8530,8840 1410,2440 8560,5800 10740,5970 2220,180 550,8510 2150,8630 3720,280 -2640,-9460 1080,-10780 3210,-1150 3340,-4120 4310,-4320 1490,-300 -6670,4950 -9040,5270 -3970,510 -12620,-9900 -13700,-10980 -7770,-7780 480,-4770 2260,-5060l0 0z"/>
   <path class="fil1" d="M43490 38170c-8620,-5650 8620,-17250 7550,-17250 4310,-1070 3230,-3910 1070,3240 1080,-2160 -12330,2110 -8620,14010l0 0z"/>
   <path class="fil0" d="M49110 29180l-170 350c-10,-20 -120,130 -20,-190 100,-270 -20,-30 190,-160z"/>
  </g>
 </g>
</svg>
