<?xml version="1.0" encoding="UTF-8"?>
<!DOCTYPE svg PUBLIC "-//W3C//DTD SVG 1.1//EN" "http://www.w3.org/Graphics/SVG/1.1/DTD/svg11.dtd">
<!-- Creator: CorelDRAW -->
<svg xmlns="http://www.w3.org/2000/svg" xml:space="preserve" width="56px" height="56px" version="1.1" style="shape-rendering:geometricPrecision; text-rendering:geometricPrecision; image-rendering:optimizeQuality; fill-rule:evenodd; clip-rule:evenodd"
viewBox="0 0 56000 56000"
 xmlns:xlink="http://www.w3.org/1999/xlink"
 xmlns:xodm="http://www.corel.com/coreldraw/odm/2003">
 <defs>
  <style type="text/css">
   <![CDATA[
    .fil0 {fill:white}
   ]]>
  </style>
 </defs>
 <g id="Слой_x0020_1">
  <metadata id="CorelCorpID_0Corel-Layer"/>
 </g>
 <g id="Слой_x0020_1_0">
  <metadata id="CorelCorpID_1Corel-Layer"/>
 </g>
 <g id="Слой_x0020_1_0_123">
  <metadata id="CorelCorpID_2Corel-Layer"/>
 </g>
 <g id="Слой_x0020_1_0_3">
  <metadata id="CorelCorpID_3Corel-Layer"/>
 </g>
 <g id="Слой_x0020_1_0_3_124">
  <metadata id="CorelCorpID_4Corel-Layer"/>
 </g>
 <g id="Слой_x0020_1_0_3_125">
  <metadata id="CorelCorpID_5Corel-Layer"/>
 </g>
 <g id="Слой_x0020_1_0_3_126">
  <metadata id="CorelCorpID_6Corel-Layer"/>
 </g>
 <g id="Слой_x0020_1_0_3_127">
  <metadata id="CorelCorpID_7Corel-Layer"/>
 </g>
 <g id="Слой_x0020_1_0_3_128">
  <metadata id="CorelCorpID_8Corel-Layer"/>
 </g>
 <g id="Слой_x0020_1_0_3_129">
  <metadata id="CorelCorpID_9Corel-Layer"/>
 </g>
 <g id="Слой_x0020_1_0_3_130">
  <metadata id="CorelCorpID_10Corel-Layer"/>
 </g>
 <g id="Слой_x0020_1_0_3_131">
  <metadata id="CorelCorpID_11Corel-Layer"/>
 </g>
 <g id="Слой_x0020_1_0_3_132">
  <metadata id="CorelCorpID_12Corel-Layer"/>
 </g>
 <g id="Слой_x0020_1_0_3_133">
  <metadata id="CorelCorpID_13Corel-Layer"/>
  <path class="fil0" d="M52000 6000c460,310 460,6190 -1020,9810 -1900,4650 20,7190 1020,11190 240,970 -160,-3540 0,-5000 190,-1760 5000,-11000 0,-17000 -1370,-1650 630,-4250 80,-3570 -2080,2570 -720,4140 -80,4570zm-18000 -4000c-270,-620 -650,5750 3150,5330 2150,-230 10910,5570 8850,5670 -2470,120 -5440,2760 -6000,7000 -630,4840 2230,11400 2000,10000 -1000,-6000 -1080,-6990 -1000,-11000 20,-860 1800,-3920 3950,-5260 1590,-990 3630,-40 4050,-1740 290,-1150 -4310,-2220 -6000,-3000 -2820,-1310 -3840,-2040 -6540,-2620 -2140,-470 -2300,-4020 -2460,-4380zm-1930 7580c0,570 4050,2160 3930,2420 -1550,3280 2100,1510 3000,5000 60,240 260,-1690 0,-2000 -670,-840 -3170,-1420 -2000,-2000 2000,-1000 -3950,-3430 -3960,-4260 -40,-7740 -970,-2030 -970,840zm-8070 6420c4690,-270 13800,730 8000,4000 -8460,4770 -9500,8170 -8010,6860 7340,-6480 10980,-4620 12060,-6070 4290,-5730 -9220,-3440 -13370,-7540 -10460,-10310 7320,750 5700,-1950 -1170,-1940 1080,-4930 -380,-6300 -1670,-1570 -4060,-3310 -5000,-3000 -1260,410 4160,2290 4000,4000 -180,1990 1220,5310 -640,4480 -14770,-6660 -6590,5770 -2360,5520z"/>
 </g>
</svg>
