<?xml version="1.0" encoding="UTF-8"?>
<!DOCTYPE svg PUBLIC "-//W3C//DTD SVG 1.1//EN" "http://www.w3.org/Graphics/SVG/1.1/DTD/svg11.dtd">
<!-- Creator: CorelDRAW -->
<svg xmlns="http://www.w3.org/2000/svg" xml:space="preserve" width="56px" height="56px" version="1.1" style="shape-rendering:geometricPrecision; text-rendering:geometricPrecision; image-rendering:optimizeQuality; fill-rule:evenodd; clip-rule:evenodd"
viewBox="0 0 56000 56000"
 xmlns:xlink="http://www.w3.org/1999/xlink"
 xmlns:xodm="http://www.corel.com/coreldraw/odm/2003">
 <defs>
  <style type="text/css">
   <![CDATA[
    .fil0 {fill:white}
   ]]>
  </style>
 </defs>
 <g id="Слой_x0020_1">
  <metadata id="CorelCorpID_0Corel-Layer"/>
 </g>
 <g id="Слой_x0020_1_0">
  <metadata id="CorelCorpID_1Corel-Layer"/>
 </g>
 <g id="Слой_x0020_1_0_90">
  <metadata id="CorelCorpID_2Corel-Layer"/>
 </g>
 <g id="Слой_x0020_1_0_3">
  <metadata id="CorelCorpID_3Corel-Layer"/>
 </g>
 <g id="Слой_x0020_1_0_3_91">
  <metadata id="CorelCorpID_4Corel-Layer"/>
 </g>
 <g id="Слой_x0020_1_0_3_92">
  <metadata id="CorelCorpID_5Corel-Layer"/>
 </g>
 <g id="Слой_x0020_1_0_3_93">
  <metadata id="CorelCorpID_6Corel-Layer"/>
 </g>
 <g id="Слой_x0020_1_0_3_94">
  <metadata id="CorelCorpID_7Corel-Layer"/>
 </g>
 <g id="Слой_x0020_1_0_3_95">
  <metadata id="CorelCorpID_8Corel-Layer"/>
 </g>
 <g id="Слой_x0020_1_0_3_96">
  <metadata id="CorelCorpID_9Corel-Layer"/>
 </g>
 <g id="Слой_x0020_1_0_3_97">
  <metadata id="CorelCorpID_10Corel-Layer"/>
 </g>
 <g id="Слой_x0020_1_0_3_98">
  <metadata id="CorelCorpID_11Corel-Layer"/>
 </g>
 <g id="Слой_x0020_1_0_3_99">
  <metadata id="CorelCorpID_12Corel-Layer"/>
 </g>
 <g id="Слой_x0020_1_0_3_100">
  <metadata id="CorelCorpID_13Corel-Layer"/>
  <path class="fil0" d="M52080 1430c-7070,310 -13080,5570 -10080,5570 2940,0 11220,4830 12000,6000 1990,2990 -8000,3000 -9000,7000 -690,2770 7270,10490 7000,12000 -2000,-9000 -6000,-9860 -5000,-12000 1560,-3320 16910,-4480 1210,-11280 -13040,-5650 7980,-7470 3870,-7290zm-12080 18570c2370,-20120 -70,-7800 -4100,-14440 -3350,-5550 -550,5520 4100,2440 830,-550 1230,330 -2000,10000 -1000,3000 1000,3000 -2830,10520 -670,1330 4350,-4440 4830,-8520zm-14000 -15000c0,-3000 -5290,8360 -3290,9360 1410,710 12220,600 10810,4830 -1000,3000 2720,-260 2620,-2260 -140,-2930 -9100,-1860 -10960,-2580 -3880,-1500 820,-5420 820,-9350zm-12080 13450c3000,2000 4410,9110 12080,10550 6160,1160 4820,6000 6000,6000 2000,0 270,-850 0,-4000 -400,-4630 -4120,-1980 -6000,-3000 -4570,-2470 -13960,-8200 -11000,-18000 630,-2100 1000,-3000 1000,-3000 -1220,-2440 -3760,10330 -2080,11450z"/>
 </g>
</svg>
